<svg width="34" height="26" viewBox="0 0 34 26" fill="none" xmlns="http://www.w3.org/2000/svg">
<g clip-path="url(#clip0_2665_15417)">
<path d="M30.5717 0H3.45511C1.54606 0 0 1.57534 0 3.50685V22.4932C0 24.4247 1.54606 26 3.44167 26H30.5582C32.4539 26 33.9999 24.4247 33.9999 22.4932V3.50685C34.0134 1.57534 32.4673 0 30.5717 0ZM30.3028 2.31507L20.7038 13.0411C19.7358 14.1096 18.4317 14.7123 16.9932 14.7123C15.5547 14.7123 14.2507 14.1233 13.2827 13.0411L3.71055 2.31507H30.3028ZM2.27204 22.0411V4.13699L10.6342 13.4795L2.27204 22.0411ZM3.85843 23.6849L12.1937 15.1507C13.5112 16.3425 15.2321 17 17.0067 17C18.7813 17 20.5021 16.3288 21.8196 15.1507L30.1549 23.6849H3.85843ZM31.7413 22.0411L23.3791 13.4795L31.7413 4.13699V22.0411Z" fill="white"/>
</g>
<defs>
<clipPath id="clip0_2665_15417">
<rect width="34" height="26" fill="white"/>
</clipPath>
</defs>
</svg>
