<svg width="122" height="29" viewBox="0 0 122 29" fill="none" xmlns="http://www.w3.org/2000/svg">
<g clip-path="url(#clip0_411_915)">
<path d="M17.139 14.2533C18.7907 14.4368 20.1977 14.7427 21.4211 15.1097C22.6446 15.4768 23.6234 15.9661 24.4798 16.5167C25.275 17.0673 25.8868 17.679 26.2538 18.3519C26.6208 19.0248 26.8655 19.7589 26.8655 20.5541C26.8655 21.8999 26.4985 23.0622 25.7032 24.041C24.9692 25.0197 23.9292 25.8762 22.5834 26.4879C21.2988 27.0996 19.7695 27.589 17.9954 27.8949C16.2214 28.2007 14.3862 28.3842 12.4287 28.3842C11.0217 28.3842 9.73711 28.3231 8.63599 28.2619C7.53488 28.2007 6.49494 28.0172 5.51618 27.8949C4.53741 27.7113 3.68099 27.5278 2.88574 27.2831C2.0905 27.0384 1.23407 26.7937 0.5 26.4879V23.7963C2.21284 24.7139 4.04803 25.3868 5.88321 25.815C7.7184 26.2432 9.73711 26.4267 11.817 26.4267C13.958 26.4267 15.7932 26.3044 17.3225 25.9985C18.8519 25.6926 20.1365 25.3256 21.1764 24.8362C22.2164 24.3468 22.9505 23.7351 23.4398 23.001C23.9292 22.267 24.1739 21.5329 24.1739 20.6765C24.1739 18.8413 22.8893 17.4955 20.3812 16.639C17.9343 15.7215 14.0804 15.2932 8.88069 15.2932V13.2745C13.591 13.2745 17.2002 12.9075 19.5859 12.1734C21.9717 11.4394 23.1951 10.2771 23.1951 8.6254C23.1951 7.09608 22.2164 5.93379 20.32 5.07737C18.4237 4.22095 15.6097 3.85391 11.8782 3.85391C10.777 3.85391 9.79828 3.91508 8.81951 3.97626C7.90192 4.0986 6.98433 4.22095 6.12791 4.40447C5.21031 4.64916 4.41507 4.89385 3.55864 5.13854C2.7634 5.44441 1.90698 5.75027 1.05056 6.11731V3.48687C1.96815 3.24218 2.88574 2.99749 3.80334 2.7528C4.72093 2.56928 5.57735 2.38576 6.49494 2.26342C7.41254 2.14107 8.33013 2.01872 9.24772 1.95755C10.2265 1.89638 11.2053 1.83521 12.2452 1.83521C13.4075 1.83521 14.5698 1.89638 15.6709 1.95755C16.772 2.0799 17.8731 2.20224 18.8519 2.44693C19.8306 2.69163 20.8094 2.93632 21.6046 3.30335C22.4611 3.67039 23.1951 4.03743 23.8069 4.52681C24.4186 5.0162 24.908 5.56675 25.2139 6.23965C25.5809 6.91256 25.7032 7.64663 25.7032 8.44188C25.7032 9.11478 25.5197 9.72651 25.1527 10.3382C24.7856 10.95 24.2351 11.5617 23.5622 12.0511C22.8281 12.6016 21.9717 13.0298 20.8706 13.3969C19.8918 13.8251 18.6072 14.0698 17.139 14.2533Z" fill="white"/>
<path d="M49.1326 3.85391C47.2974 3.85391 45.7069 3.97626 44.3 4.28212C42.893 4.58799 41.6695 4.95502 40.6908 5.50558C39.6508 5.99496 38.7944 6.60669 38.1215 7.34077C37.4486 8.07484 36.898 8.87009 36.4698 9.72651C36.0416 10.5829 35.7358 11.5005 35.5522 12.4793C35.3687 13.4581 35.3075 14.4368 35.3075 15.5379C35.8581 15.1709 36.5922 14.8039 37.3874 14.3145C38.1827 13.8863 39.1003 13.4581 40.2014 13.0298C41.2413 12.6016 42.4648 12.2958 43.7494 11.9899C45.0952 11.684 46.5634 11.5617 48.1539 11.5617C49.989 11.5617 51.7019 11.7452 53.3535 12.1123C54.944 12.4793 56.351 12.9687 57.5133 13.7027C58.6756 14.3756 59.5932 15.2932 60.2661 16.3332C60.939 17.3731 61.2449 18.5966 61.2449 20.0036C61.2449 21.1658 60.939 22.267 60.3273 23.3069C59.7155 24.3468 58.8591 25.2033 57.6968 25.9985C56.5345 26.7937 55.1276 27.3443 53.4759 27.8337C51.8242 28.2619 49.8667 28.5066 47.7256 28.5066C45.5846 28.5066 43.5659 28.2619 41.7307 27.7113C39.8955 27.222 38.305 26.4267 36.9592 25.3868C35.6134 24.3468 34.5735 23.0622 33.8394 21.4717C33.1053 19.8812 32.7383 18.046 32.7383 15.9661C32.7383 13.8863 33.0441 11.9899 33.717 10.2771C34.3899 8.56422 35.3687 7.09607 36.7757 5.81144C38.1215 4.58799 39.8955 3.60922 41.9754 2.93632C43.9329 2.20224 46.441 1.83521 49.255 1.83521C50.0502 1.83521 50.7843 1.89638 51.5795 1.95755C52.3748 2.01872 53.17 2.14107 53.9041 2.26342C54.6382 2.38576 55.4334 2.50811 56.1675 2.69163C56.9016 2.87514 57.5745 2.99749 58.2474 3.24218V5.75027C57.758 5.56675 57.2686 5.38323 56.5957 5.13854C55.984 4.95502 55.3111 4.7715 54.5158 4.58799C53.7206 4.40447 52.9253 4.28212 52.0077 4.15978C51.1513 3.91508 50.1726 3.85391 49.1326 3.85391ZM47.3586 13.5804C45.8905 13.5804 44.5447 13.7639 43.3212 14.0698C42.0977 14.3756 40.9966 14.8039 40.0179 15.2321C39.0391 15.7215 38.1827 16.1497 37.3874 16.7002C36.6533 17.1896 35.9804 17.6178 35.4299 18.046C35.6134 19.086 35.9193 20.1259 36.4087 21.1047C36.898 22.0834 37.5709 23.001 38.4885 23.7963C39.4061 24.5915 40.6296 25.2033 42.0977 25.6926C43.5659 26.182 45.4011 26.4267 47.5421 26.4267C49.3161 26.4267 50.9066 26.2432 52.3136 25.9985C53.6594 25.6926 54.8217 25.2644 55.8005 24.7139C56.7181 24.1633 57.4521 23.4904 57.9415 22.6952C58.4309 21.8999 58.6756 21.0435 58.6756 20.0647C58.6756 19.086 58.4309 18.2295 58.0027 17.4343C57.5745 16.639 56.9016 15.9661 55.984 15.4156C55.0664 14.865 53.9041 14.4368 52.4971 14.131C50.9678 13.7639 49.3161 13.5804 47.3586 13.5804Z" fill="white"/>
<path d="M95.9905 15.1097C95.9905 16.5167 95.807 17.8625 95.3787 19.086C95.0117 20.3094 94.4611 21.4105 93.7271 22.3893C93.0542 23.3681 92.1978 24.2245 91.219 25.0197C90.2402 25.7538 89.2003 26.4267 88.0992 26.9161C86.9981 27.4055 85.7746 27.8337 84.5511 28.0784C83.3277 28.3231 82.043 28.4454 80.7584 28.4454C79.4738 28.4454 78.1892 28.3231 76.9657 28.0784C75.7422 27.8337 74.5188 27.4055 73.4177 26.9161C72.3166 26.4267 71.2154 25.7538 70.2979 25.0197C69.3191 24.2857 68.5238 23.4293 67.7898 22.3893C67.0557 21.4105 66.5051 20.3094 66.1381 19.086C65.7711 17.8625 65.5264 16.5779 65.5264 15.1097C65.5264 13.7028 65.7099 12.357 66.1381 11.1335C66.5051 9.91004 67.0557 8.80893 67.7898 7.83016C68.4627 6.8514 69.3191 5.99498 70.2979 5.19973C71.2766 4.46566 72.3166 3.79275 73.4177 3.30337C74.5188 2.81399 75.7422 2.38578 76.9657 2.14109C78.1892 1.89639 79.4738 1.77405 80.7584 1.77405C82.043 1.77405 83.3277 1.89639 84.5511 2.14109C85.7746 2.38578 86.9981 2.81399 88.0992 3.30337C89.2003 3.79275 90.2402 4.46566 91.219 5.19973C92.1978 5.9338 92.993 6.79023 93.7271 7.83016C94.4 8.80893 94.9505 9.91004 95.3787 11.1335C95.807 12.357 95.9905 13.7028 95.9905 15.1097ZM93.4212 15.1097C93.4212 13.8251 93.2377 12.6628 92.9318 11.6229C92.5648 10.5829 92.1366 9.60418 91.5248 8.80893C90.9131 7.95251 90.2402 7.21844 89.445 6.60671C88.6497 5.99498 87.7933 5.44442 86.8145 5.07738C85.8969 4.64917 84.9182 4.34331 83.8782 4.15979C82.8383 3.97627 81.8595 3.85393 80.8196 3.85393C79.2903 3.85393 77.7609 4.09862 76.2928 4.52683C74.7635 4.95504 73.4177 5.68911 72.2554 6.60671C71.0319 7.5243 70.1143 8.68659 69.3803 10.0936C68.6462 11.5005 68.2791 13.1522 68.2791 15.1097C68.2791 17.0061 68.6462 18.6578 69.3803 20.0647C70.1143 21.4717 71.0931 22.634 72.2554 23.5516C73.4788 24.4692 74.8246 25.2033 76.2928 25.6315C77.8221 26.0597 79.2903 26.3044 80.8196 26.3044C81.8595 26.3044 82.8383 26.182 83.8782 25.9985C84.9182 25.815 85.8969 25.5091 86.8145 25.0809C87.7321 24.6527 88.5885 24.1633 89.445 23.5516C90.2402 22.9399 90.9743 22.2058 91.5248 21.3494C92.1366 20.493 92.5648 19.5754 92.9318 18.5354C93.2377 17.5567 93.4212 16.3944 93.4212 15.1097Z" fill="white"/>
<path d="M121.5 7.76894C121.5 9.11475 121.256 10.277 120.705 11.2558C120.155 12.2346 119.421 13.0298 118.442 13.6415C117.463 14.2533 116.362 14.7427 115.077 15.0485C113.793 15.3544 112.386 15.4767 110.918 15.4767C109.388 15.4767 108.042 15.2932 106.697 15.0485C105.412 14.7427 104.25 14.2533 103.332 13.6415C102.353 13.0298 101.619 12.2346 101.069 11.2558C100.518 10.277 100.273 9.11475 100.273 7.76894C100.273 6.85135 100.396 6.0561 100.64 5.32203C100.885 4.58795 101.252 3.91505 101.68 3.36449C102.109 2.81394 102.659 2.26338 103.332 1.89634C104.005 1.46813 104.678 1.1011 105.473 0.856405C106.268 0.55054 107.125 0.367022 108.042 0.244676C108.96 0.12233 109.878 0.0611572 110.918 0.0611572C112.386 0.0611572 113.793 0.183503 115.077 0.489368C116.362 0.795232 117.463 1.28462 118.442 1.89634C119.359 2.50807 120.155 3.30332 120.705 4.28209C121.256 5.26085 121.5 6.42314 121.5 7.76894ZM119.971 7.76894C119.971 6.729 119.788 5.75024 119.421 4.95499C119.054 4.15974 118.442 3.48684 117.708 2.87511C116.974 2.32455 115.995 1.89634 114.894 1.59048C113.793 1.28462 112.447 1.16227 110.979 1.16227C109.511 1.16227 108.165 1.28462 107.064 1.59048C105.901 1.89634 104.984 2.32455 104.188 2.87511C103.454 3.42567 102.843 4.09857 102.476 4.95499C102.109 5.75024 101.864 6.729 101.864 7.76894C101.864 8.80888 102.047 9.78765 102.476 10.5829C102.843 11.3781 103.454 12.051 104.188 12.6628C104.984 13.2133 105.901 13.6415 107.064 13.9474C108.226 14.2533 109.511 14.3756 110.979 14.3756C112.447 14.3756 113.793 14.2533 114.894 13.9474C115.995 13.6415 116.974 13.2745 117.708 12.6628C118.442 12.1122 119.054 11.4393 119.421 10.5829C119.788 9.72647 119.971 8.80888 119.971 7.76894Z" fill="white"/>
</g>
<defs>
<clipPath id="clip0_411_915">
<rect width="121" height="28.4454" fill="white" transform="translate(0.5)"/>
</clipPath>
</defs>
</svg>
