<svg width="18" height="26" viewBox="0 0 18 26" fill="none" xmlns="http://www.w3.org/2000/svg">
<g clip-path="url(#clip0_2665_15423)">
<path d="M17.9617 7.8C17.8946 7 17.5589 4.53333 15.478 2.46667C13.0613 0.0666667 9.9063 0 8.96651 0C8.02671 0 5.00594 0.0666667 2.52219 2.46667C0.441212 4.53333 0.105571 7.06667 0.0384422 7.8C-0.162943 9.93333 0.441212 12.0667 1.51526 13.8667L8.89938 25.9333L8.96651 26L9.03363 25.9333L16.4177 13.8667C17.5589 12.0667 18.1631 9.93333 17.9617 7.8ZM8.96651 13C6.61702 13 4.73742 11.1333 4.73742 8.8C4.73742 6.46667 6.61702 4.6 8.96651 4.6C11.316 4.6 13.1956 6.46667 13.1956 8.8C13.1956 11.1333 11.316 13 8.96651 13Z" fill="white"/>
</g>
<defs>
<clipPath id="clip0_2665_15423">
<rect width="18" height="26" fill="white"/>
</clipPath>
</defs>
</svg>
