<svg width="30" height="30" viewBox="0 0 30 30" fill="none" xmlns="http://www.w3.org/2000/svg">
<path d="M16.637 16.6809C16.3252 16.6809 16.0508 16.6809 15.7577 16.6809C15.7577 16.338 15.7577 16.02 15.7577 15.6832C16.4 15.6832 17.0298 15.6832 17.6908 15.6832C17.6908 15.783 17.6908 15.8703 17.6908 15.9576C17.6908 17.0426 17.6845 18.1213 17.697 19.2063C17.697 19.4432 17.7219 19.6864 17.7781 19.9171C17.9464 20.5781 18.4951 20.9024 19.1623 20.7527C19.7921 20.6093 20.3533 20.0668 20.397 19.3996C20.4531 18.5079 20.4094 17.6162 20.4094 16.6934C20.0977 16.6934 19.7734 16.6934 19.4305 16.6934C19.4305 16.3442 19.4305 16.02 19.4305 15.6895C20.1164 15.6895 20.7898 15.6895 21.5131 15.6895C21.5131 17.3232 21.5131 18.9444 21.5131 20.5906C21.8 20.5906 22.0431 20.5906 22.305 20.5906C22.305 20.9211 22.305 21.2328 22.305 21.5571C21.7812 21.5571 21.2637 21.5571 20.715 21.5571C20.6713 21.2702 20.6214 20.9772 20.5716 20.6529C20.5217 20.7153 20.4843 20.7589 20.4593 20.8026C19.9605 21.5633 19.1997 21.8813 18.3081 21.7005C17.4351 21.5259 16.8614 20.9398 16.6931 20.0543C16.6494 19.8298 16.637 19.5929 16.6307 19.3622C16.6245 18.564 16.6307 17.7659 16.6307 16.9677C16.637 16.8742 16.637 16.7932 16.637 16.6809Z" fill="white"/>
<path d="M21.7563 10.5452C21.4071 10.5452 21.0891 10.5452 20.7462 10.5452C20.7462 10.2521 20.7524 9.97151 20.7399 9.68468C20.7337 9.60985 20.6838 9.50385 20.6277 9.47267C19.8919 9.11101 19.1374 9.06736 18.4328 9.52255C17.7032 9.99645 17.4164 10.7198 17.4912 11.5678C17.566 12.4158 17.9901 13.0581 18.8194 13.3449C19.6799 13.638 20.4344 13.401 21.0579 12.7401C21.0891 12.7089 21.1078 12.6653 21.1328 12.6154C21.4196 12.8336 21.6752 13.0269 21.9496 13.2389C21.4819 13.8562 20.8958 14.2553 20.1475 14.3987C18.1834 14.7791 16.4624 13.426 16.3688 11.4306C16.294 9.85304 17.591 8.38146 19.1748 8.26298C20.0665 8.19439 20.8958 8.39393 21.6191 8.94889C21.7002 9.01124 21.7563 9.14219 21.7625 9.24196C21.7625 9.67844 21.7563 10.1025 21.7563 10.5452Z" fill="white"/>
<path d="M12.8707 12.8024C13.0204 12.3597 13.1513 11.9793 13.2823 11.6052C13.6314 10.6075 13.9806 9.61609 14.3111 8.61841C14.3672 8.44381 14.4483 8.39393 14.6291 8.40016C15.1217 8.41263 15.6143 8.4064 16.1194 8.4064C16.1194 8.73688 16.1194 9.05489 16.1194 9.41655C15.9012 9.41655 15.6892 9.43526 15.4771 9.41032C15.2402 9.38537 15.128 9.46644 15.0469 9.69715C14.4982 11.1937 13.9307 12.684 13.382 14.1805C13.3197 14.3426 13.2511 14.4237 13.064 14.405C12.8271 14.38 12.5278 14.4735 12.3656 14.3613C12.2035 14.2491 12.1661 13.9435 12.0913 13.7253C11.6049 12.3659 11.1123 11.0066 10.6322 9.64103C10.5698 9.4602 10.4825 9.39784 10.2954 9.41032C10.046 9.42902 9.79037 9.41655 9.52224 9.41655C9.52224 9.07983 9.52224 8.76182 9.52224 8.4064C9.59083 8.4064 9.65942 8.4064 9.72801 8.4064C10.1957 8.4064 10.6696 8.41263 11.1372 8.40016C11.3118 8.39393 11.3804 8.46252 11.4365 8.61841C11.8855 9.94033 12.3407 11.256 12.7896 12.5717C12.8084 12.6278 12.8333 12.684 12.8707 12.8024Z" fill="white"/>
<path d="M10.8941 16.5936C10.6322 16.5936 10.3765 16.5874 10.1271 16.5936C9.98991 16.5999 9.92131 16.5624 9.92755 16.4066C9.94002 16.1696 9.92755 15.9327 9.92755 15.6832C10.5511 15.6832 11.1497 15.6832 11.7733 15.6832C11.7982 16.0387 11.8169 16.3941 11.8481 16.8306C12.5153 15.7206 13.5005 15.5523 14.6104 15.6895C14.6104 16.2756 14.6104 16.8617 14.6104 17.4541C14.2799 17.4541 13.9619 17.4541 13.6252 17.4541C13.6252 17.161 13.6252 16.8805 13.6252 16.5811C13.2386 16.5811 12.9206 16.6934 12.64 16.9303C12.1973 17.2982 11.9603 17.7784 11.9541 18.352C11.9479 19.0255 11.9541 19.6927 11.9541 20.3661C11.9541 20.4409 11.9541 20.5095 11.9541 20.6093C12.8084 20.6093 13.6314 20.6093 14.467 20.6093C14.467 20.9335 14.467 21.2391 14.467 21.5571C12.958 21.5571 11.4615 21.5571 9.94626 21.5571C9.94626 21.2515 9.94626 20.9398 9.94626 20.6093C10.2518 20.6093 10.5636 20.6093 10.8878 20.6093C10.8941 19.2624 10.8941 17.9467 10.8941 16.5936Z" fill="white"/>
<path d="M8.90493 21.582C8.56197 21.582 8.23149 21.582 7.89478 21.582C7.89478 21.2453 7.89478 20.9211 7.89478 20.5781C8.23149 20.5781 8.56197 20.5781 8.90493 20.5781C8.90493 20.9086 8.90493 21.2328 8.90493 21.582Z" fill="white"/>
</svg>
