<svg width="34" height="26" viewBox="0 0 34 26" fill="none" xmlns="http://www.w3.org/2000/svg">
<g clip-path="url(#clip0_2665_15401)">
<path d="M30.4106 2C31.2082 2 31.9062 2.7 31.9062 3.6V16.8C31.9062 17.7 31.2082 18.4 30.4106 18.4H28.5161C27.2199 18.4 26.1232 19.5 26.1232 20.8V21.9L23.2317 19C22.8328 18.6 22.2346 18.3 21.5367 18.3H3.48974C2.69208 18.3 1.99414 17.6 1.99414 16.7V3.6C1.99414 2.7 2.69208 2 3.48974 2H30.4106ZM30.4106 0H3.48974C1.59531 0 0 1.6 0 3.6V16.8C0 18.8 1.59531 20.4 3.48974 20.4H21.6364C21.7361 20.4 21.8358 20.4 21.9355 20.5L27.5191 25.9C27.6188 26 27.7185 26 27.8182 26C28.0176 26 28.217 25.8 28.217 25.6V20.7C28.217 20.5 28.4164 20.3 28.6158 20.3H30.5103C32.4047 20.3 34 18.7 34 16.7V3.6C33.9003 1.6 32.305 0 30.4106 0Z" fill="white"/>
<path d="M29.0147 14H4.88563C4.28739 14 3.88856 13.6 3.88856 13C3.88856 12.4 4.28739 12 4.88563 12H29.0147C29.6129 12 30.0117 12.4 30.0117 13C30.0117 13.6 29.5132 14 29.0147 14Z" fill="white"/>
<path d="M29.0147 8.4H13.5601C12.9619 8.4 12.5631 8 12.5631 7.4C12.5631 6.8 12.9619 6.4 13.5601 6.4H29.0147C29.6129 6.4 30.0117 6.8 30.0117 7.4C30.0117 8 29.5132 8.4 29.0147 8.4Z" fill="white"/>
<path d="M9.87097 8.4H4.88563C4.28739 8.4 3.88856 8 3.88856 7.4C3.88856 6.8 4.28739 6.4 4.88563 6.4H9.87097C10.4692 6.4 10.868 6.8 10.868 7.4C10.868 8 10.4692 8.4 9.87097 8.4Z" fill="white"/>
</g>
<defs>
<clipPath id="clip0_2665_15401">
<rect width="34" height="26" fill="white"/>
</clipPath>
</defs>
</svg>
