<svg width="285" height="84" viewBox="0 0 285 84" fill="none" xmlns="http://www.w3.org/2000/svg">
<path d="M225.763 24.3656L236.265 16.5167H201.095V63.5385H236.265V55.6831H211.141V43.6815H232.615V35.8326H211.141V24.3656H225.763Z" fill="white"/>
<path d="M174.524 34.8286H162.34V24.3656H181.831L192.34 16.5167H152.294V63.5385H173.226C184.954 63.5385 191.727 58.1473 191.727 48.7598C191.727 39.757 185.639 34.8286 174.524 34.8286ZM172.848 55.6831H162.34V42.6776H172.848C179.243 42.6776 182.21 44.8354 182.21 49.2227C182.21 53.61 179.015 55.6831 172.848 55.6831Z" fill="white"/>
<path d="M264.741 16.5167H245.633V63.5385H255.679V50.2201H264.819C276.996 50.2201 284.611 43.7597 284.611 33.3684C284.611 22.977 276.996 16.5167 264.741 16.5167ZM264.512 42.3712H255.607V24.3656H264.512C270.986 24.3656 274.487 27.599 274.487 33.3684C274.487 39.1377 270.986 42.3712 264.512 42.3712Z" fill="white"/>
<path d="M135.083 53.3753C132.424 54.8421 129.451 55.6113 126.407 55.6113C117.345 55.6113 110.8 49.0662 110.8 40.0634C110.8 31.0606 117.345 24.5155 126.407 24.5155C129.679 24.4438 132.88 25.5195 135.54 27.4426L142.776 22.0578L142.32 21.595C138.134 17.8205 132.495 15.8974 126.1 15.8974C119.177 15.8974 112.854 18.2833 108.29 22.5924C103.72 27.0579 101.132 33.2902 101.282 39.757C101.204 46.2956 103.72 52.6061 108.29 57.2215C113.082 61.7653 119.477 64.3077 126.028 64.1513C133.258 64.1513 139.575 61.6089 143.839 56.9934L137.372 52.1432L135.083 53.3753Z" fill="white"/>
<path d="M69.8409 16.2103C71.6662 18.5962 73.1917 21.2104 74.4825 23.981L39.3122 50.2201L24.5401 40.8327V29.6004L39.234 38.9096L69.8409 16.2103Z" fill="white"/>
<path d="M9.53977 40.0634C9.53977 39.5224 9.53977 39.066 9.618 38.5249L0.712994 38.0621C0.712994 38.6814 0.634766 39.3724 0.634766 39.9852C0.634766 50.7612 4.97645 60.5332 11.9779 67.6129L18.2948 61.2242C12.8906 55.8395 9.53977 48.3752 9.53977 40.0634Z" fill="white"/>
<path d="M39.234 10.0498C39.7686 10.0498 40.2249 10.0498 40.7595 10.128L41.2158 1.12521C40.603 1.12521 39.9185 1.04698 39.3122 1.04698C28.6536 1.04698 18.9859 5.43429 11.9779 12.514L18.2948 18.9026C23.6274 13.4397 31.0852 10.0498 39.234 10.0498Z" fill="white"/>
<path d="M39.234 70.0771C38.6994 70.0771 38.2431 70.0771 37.7085 69.9989L37.2522 79.0017C37.865 79.0017 38.5495 79.0799 39.1558 79.0799C49.8144 79.0799 59.4887 74.6926 66.4901 67.6129L60.1732 61.2242C54.8406 66.7654 47.4545 70.0771 39.234 70.0771Z" fill="white"/>
<path d="M55.9814 15.2846L63.5174 9.66515C56.8941 4.28042 48.4454 0.96875 39.234 0.96875V9.97155C45.4792 10.0498 51.2616 11.9729 55.9814 15.2846Z" fill="white"/>
<path d="M77.9115 40.0634C77.9115 37.6775 77.6833 35.3697 77.2987 33.062L68.9999 39.2942C68.9999 39.5224 68.9999 39.8353 68.9999 40.0634C68.9999 48.9163 65.1928 56.8434 59.1823 62.3064L65.1928 69.0014C72.9635 61.9218 77.9115 51.5304 77.9115 40.0634Z" fill="white"/>
<path d="M39.234 70.0771C30.4789 70.0771 22.6365 66.2309 17.2322 60.1486L10.6089 66.2309C17.6886 74.158 27.8909 79.0799 39.234 79.0799L39.234 70.0771Z" fill="white"/>
<path d="M19.364 17.8205L13.3469 11.1254C5.50449 18.2833 0.634766 28.5964 0.634766 40.0634H9.53977C9.53977 31.2888 13.3469 23.2899 19.364 17.8205Z" fill="white"/>
</svg>
