<svg width="28" height="26" viewBox="0 0 28 26" fill="none" xmlns="http://www.w3.org/2000/svg">
<g clip-path="url(#clip0_2665_15395)">
<path d="M27.9451 20.7883L27.7297 21.5957C27.299 23.284 26.1504 24.6787 24.571 25.266C23.4223 25.7798 21.9865 26 20.4071 26C19.1867 26 17.8227 25.8532 16.3151 25.5596C8.99247 24.0181 3.39282 16.4574 0.951949 10.8052C0.449417 9.63077 0.0904651 8.38289 0.0186748 7.06161C-0.0531155 6.03395 0.0904651 5.2265 0.305836 4.34564C0.521207 3.39138 0.951949 2.43712 1.66985 1.70308C3.24924 0.0881742 5.25937 -0.058635 6.04906 0.0147696C6.76697 0.0881742 7.48487 0.528602 7.84382 1.18924C8.56172 2.73074 9.92574 5.52011 10.2129 6.76799C10.5719 8.30949 8.92068 10.218 8.05919 11.0255C9.99753 14.9893 12.9409 17.4851 17.2484 19.0266C18.4688 17.4851 19.6174 16.6776 20.3353 16.2372C20.9815 15.8702 21.7711 15.8702 22.4173 16.1638L26.8683 18.4393C27.7297 18.8798 28.1605 19.834 27.9451 20.7883Z" fill="white"/>
</g>
<defs>
<clipPath id="clip0_2665_15395">
<rect width="28" height="26" fill="white"/>
</clipPath>
</defs>
</svg>
