<svg width="25" height="20" viewBox="0 0 25 20" fill="none" xmlns="http://www.w3.org/2000/svg">
<path fill-rule="evenodd" clip-rule="evenodd" d="M19.2165 19.7779C19.5427 20.0081 19.9551 20.0657 20.3196 19.9218C20.6938 19.7779 20.9623 19.4614 21.0391 19.0777C21.912 14.9913 24.0128 4.66012 24.8089 0.947823C24.8665 0.669641 24.7706 0.372273 24.5499 0.190016C24.3293 0.00775823 24.0224 -0.0497968 23.7538 0.0461282C19.5714 1.60971 6.65992 6.45392 1.38404 8.4012C1.0483 8.5259 0.827677 8.84245 0.846862 9.19738C0.856455 9.5523 1.09627 9.85926 1.4416 9.96478C3.81095 10.6746 6.91892 11.6531 6.91892 11.6531C6.91892 11.6531 8.36739 16.0368 9.12519 18.2719C9.22112 18.5501 9.44175 18.7707 9.72952 18.8474C10.0173 18.9242 10.3243 18.8474 10.5449 18.6364C11.7631 17.4853 13.6433 15.7107 13.6433 15.7107C13.6433 15.7107 17.1925 18.339 19.2165 19.7779ZM8.21391 11.1063L9.8926 16.6412L10.2667 13.1303C10.2667 13.1303 16.7512 7.27888 20.4539 3.94069C20.5595 3.84476 20.5786 3.68169 20.4827 3.56658C20.3964 3.45147 20.2333 3.42269 20.1086 3.49943C15.8208 6.24289 8.21391 11.1063 8.21391 11.1063Z" fill="white"/>
</svg>
