<svg width="20" height="18" viewBox="0 0 20 18" fill="none" xmlns="http://www.w3.org/2000/svg">
<path d="M11.7207 11.2415C11.305 11.2415 10.9392 11.2415 10.5484 11.2415C10.5484 10.7842 10.5484 10.3602 10.5484 9.91122C11.4048 9.91122 12.2445 9.91122 13.1258 9.91122C13.1258 10.0442 13.1258 10.1606 13.1258 10.277C13.1258 11.7237 13.1174 13.162 13.1341 14.6086C13.1341 14.9246 13.1673 15.2488 13.2422 15.5564C13.4666 16.4377 14.1983 16.87 15.0879 16.6705C15.9276 16.4793 16.6758 15.756 16.734 14.8664C16.8089 13.6775 16.7507 12.4886 16.7507 11.2581C16.335 11.2581 15.9026 11.2581 15.4454 11.2581C15.4454 10.7925 15.4454 10.3602 15.4454 9.91954C16.3599 9.91954 17.2578 9.91954 18.2222 9.91954C18.2222 12.0978 18.2222 14.2594 18.2222 16.4543C18.6047 16.4543 18.9289 16.4543 19.2781 16.4543C19.2781 16.895 19.2781 17.3107 19.2781 17.743C18.5797 17.743 17.8897 17.743 17.1581 17.743C17.0999 17.3606 17.0333 16.9698 16.9668 16.5375C16.9003 16.6206 16.8504 16.6788 16.8172 16.737C16.1521 17.7513 15.1377 18.1753 13.9488 17.9342C12.7849 17.7014 12.02 16.9199 11.7955 15.7393C11.7373 15.44 11.7207 15.1241 11.7124 14.8165C11.7041 13.7523 11.7124 12.6881 11.7124 11.6239C11.7207 11.4992 11.7207 11.3911 11.7207 11.2415Z" fill="white"/>
<path d="M18.5465 3.06048C18.0809 3.06048 17.6569 3.06048 17.1996 3.06048C17.1996 2.66972 17.2079 2.29559 17.1913 1.91315C17.183 1.81338 17.1165 1.67204 17.0417 1.63047C16.0606 1.14826 15.0546 1.09006 14.1151 1.69698C13.1424 2.32885 12.7599 3.29327 12.8597 4.42398C12.9595 5.55468 13.5248 6.41103 14.6306 6.79347C15.7779 7.18423 16.7839 6.8683 17.6153 5.98701C17.6569 5.94544 17.6818 5.88724 17.7151 5.82073C18.0975 6.11172 18.4384 6.36946 18.8042 6.65213C18.1807 7.47522 17.3992 8.00732 16.4015 8.19854C13.7826 8.70569 11.4879 6.90155 11.3632 4.24107C11.2634 2.13763 12.9927 0.17552 15.1045 0.0175543C16.2934 -0.0738998 17.3992 0.192149 18.3636 0.932095C18.4717 1.01524 18.5465 1.18983 18.5548 1.32285C18.5548 1.90483 18.5465 2.47019 18.5465 3.06048Z" fill="white"/>
<path d="M6.69903 6.07015C6.89857 5.47986 7.07316 4.9727 7.24776 4.47386C7.71334 3.14362 8.17892 1.82169 8.61957 0.491453C8.69439 0.258661 8.80247 0.192148 9.04358 0.200462C9.70039 0.21709 10.3572 0.208776 11.0306 0.208776C11.0306 0.649419 11.0306 1.07343 11.0306 1.55565C10.7396 1.55565 10.457 1.58059 10.1743 1.54733C9.85835 1.51408 9.7087 1.62216 9.60062 1.92978C8.86899 3.92514 8.11241 5.91219 7.38078 7.90755C7.29764 8.12371 7.20619 8.23179 6.95677 8.20685C6.64083 8.1736 6.24176 8.29831 6.0256 8.14865C5.80943 7.999 5.75955 7.59161 5.65978 7.30062C5.01129 5.48817 4.35448 3.67572 3.7143 1.85495C3.63116 1.61384 3.51477 1.5307 3.26535 1.54733C2.93279 1.57227 2.59191 1.55565 2.23441 1.55565C2.23441 1.10669 2.23441 0.682675 2.23441 0.208776C2.32586 0.208776 2.41732 0.208776 2.50877 0.208776C3.13232 0.208776 3.76419 0.21709 4.38774 0.200462C4.62053 0.192148 4.71198 0.283603 4.78681 0.491453C5.38542 2.25402 5.99234 4.00828 6.59095 5.76253C6.61589 5.83736 6.64915 5.91219 6.69903 6.07015Z" fill="white"/>
<path d="M4.06349 11.1251C3.7143 11.1251 3.37343 11.1168 3.04087 11.1251C2.85796 11.1334 2.76651 11.0835 2.77482 10.8756C2.79145 10.5597 2.77482 10.2438 2.77482 9.91122C3.60622 9.91122 4.40437 9.91122 5.23577 9.91122C5.26902 10.3851 5.29396 10.859 5.33553 11.441C6.22513 9.96111 7.53875 9.73663 9.01864 9.91954C9.01864 10.7011 9.01864 11.4826 9.01864 12.2724C8.578 12.2724 8.15398 12.2724 7.70503 12.2724C7.70503 11.8816 7.70503 11.5075 7.70503 11.1084C7.18956 11.1084 6.76554 11.2581 6.39141 11.574C5.80112 12.0646 5.48519 12.7047 5.47687 13.4696C5.46856 14.3675 5.47687 15.2571 5.47687 16.155C5.47687 16.2548 5.47687 16.3463 5.47687 16.4793C6.61589 16.4793 7.71334 16.4793 8.82742 16.4793C8.82742 16.9116 8.82742 17.319 8.82742 17.743C6.81543 17.743 4.82007 17.743 2.79976 17.743C2.79976 17.3356 2.79976 16.9199 2.79976 16.4793C3.20715 16.4793 3.62285 16.4793 4.05518 16.4793C4.06349 14.6835 4.06349 12.9292 4.06349 11.1251Z" fill="white"/>
<path d="M1.41132 17.7763C0.954052 17.7763 0.51341 17.7763 0.0644531 17.7763C0.0644531 17.3273 0.0644531 16.895 0.0644531 16.4377C0.51341 16.4377 0.954052 16.4377 1.41132 16.4377C1.41132 16.8784 1.41132 17.3107 1.41132 17.7763Z" fill="white"/>
</svg>
