<svg width="40" height="40" viewBox="0 0 40 40" fill="none" xmlns="http://www.w3.org/2000/svg">
<path d="M25.4256 22.8571L25.3532 23.1429C25.2083 23.7857 24.7738 24.2857 24.122 24.5714C23.6151 24.7857 23.1081 24.8571 22.5288 24.8571C22.0218 24.8571 21.5149 24.7857 20.9355 24.7143C18.0387 24.1429 15.9385 21.3571 14.997 19.2857C14.7798 18.8571 14.7073 18.3571 14.6349 17.8571C14.5625 17.3571 14.7073 17 14.8522 16.4286C15.1419 15.4286 16.5903 15.2143 16.9524 15.2143C17.2421 15.2143 17.5317 15.4286 17.6042 15.7143C17.8938 16.2857 18.4008 17.2857 18.4732 17.7857C18.6181 18.3571 17.9663 19.0714 17.6042 19.3571C18.3284 20.7857 19.4871 21.7143 21.1528 22.2857C21.6597 21.7143 22.0218 21.4286 22.3839 21.2857C22.6736 21.1429 22.8909 21.1429 23.1806 21.2857L24.9187 22.1429C25.4256 22.1429 25.5704 22.5 25.4256 22.8571Z" fill="white"/>
<path d="M10.3414 29.8639C10.3414 29.8639 10.7392 28.6522 10.9373 27.8776C11.1967 26.8635 11.5933 25.7143 11.5208 25.2857C10.5069 23.7143 10 21.9286 10 20C10 14.5 14.5625 10 20.1389 10C22.8909 10 25.4256 11.0714 27.3085 12.9286C29.1915 14.7857 30.2054 17.3571 30.2054 20C30.2054 25.5 25.6429 30 20.0665 30C18.1111 30 16.1558 29.4286 14.4901 28.3571C14.2004 28.4286 12.8244 28.8707 12.8244 28.8707L10.3414 29.8639ZM15.2867 27.2143C16.7351 28.1429 18.4008 28.6429 20.0665 28.6429C24.8462 28.6429 28.7569 24.7857 28.7569 20.0714C28.7569 17.7857 27.8879 15.6429 26.2946 14C24.629 12.3571 22.4563 11.5 20.1389 11.5C15.3591 11.5 11.4484 15.3571 11.4484 20.0714C11.4484 21.7143 11.8829 23.2857 12.752 24.6429C13.1865 25.3571 12.8244 26.3571 12.1726 27.9286L12.3175 27.8571C13.8383 27.0714 14.6349 26.7143 15.2867 27.2143Z" fill="white"/>
</svg>
