<svg width="211" height="46" viewBox="0 0 211 46" fill="none" xmlns="http://www.w3.org/2000/svg">
<g clip-path="url(#clip0_1207_3431)">
<mask id="mask0_1207_3431" style="mask-type:luminance" maskUnits="userSpaceOnUse" x="0" y="0" width="211" height="46">
<path d="M210.631 0.367188H0.368164V45.104H210.631V0.367188Z" fill="white"/>
</mask>
<g mask="url(#mask0_1207_3431)">
<path d="M55.5281 1.95508H52.749V12.6865H55.5281V1.95508Z" fill="#6E675C"/>
<path d="M55.5281 12.6855H52.749V23.4169H55.5281V12.6855Z" fill="#6E675C"/>
<path d="M55.5281 23.418H52.749V34.1494H55.5281V23.418Z" fill="#6E675C"/>
<path d="M55.5281 34.1484H52.749V44.8798H55.5281V34.1484Z" fill="#6E675C"/>
<path d="M25.1565 22.0584C25.1461 22.048 24.8963 21.7878 24.4644 21.7878C24.2354 21.7878 24.0012 21.8606 23.767 21.996C23.7253 22.0168 23.6993 22.0636 23.7097 22.1105C23.7097 22.1209 23.8815 23.2866 23.7514 23.7863C23.6525 24.161 23.335 24.6034 22.7573 24.6034C22.6324 24.6034 22.5075 24.5825 22.3722 24.5461H22.367L22.8042 24.2495C22.8354 24.2286 22.8562 24.1922 22.8562 24.1506C22.8562 24.1089 22.8354 24.0777 22.8042 24.0517L21.935 23.4532C22.2109 23.245 22.3826 23.0993 22.4034 23.0785C22.4295 23.0577 22.4451 23.0264 22.4451 22.9952C22.4451 22.964 22.4347 22.9327 22.4086 22.9067L22.2525 22.7506C22.2317 22.7298 22.2005 22.7142 22.1692 22.7142C22.1432 22.7142 22.1172 22.7246 22.0964 22.7402C22.086 22.7454 21.857 22.9223 21.5083 23.1617L21.1596 22.9223L22.5231 21.9856L22.6272 22.2562C22.6428 22.2978 22.6845 22.329 22.7313 22.329C22.7313 22.329 22.7313 22.329 22.7365 22.329C22.7781 22.329 22.8198 22.303 22.8406 22.2666L23.4911 21.0696C23.512 21.0279 23.5068 20.9811 23.4859 20.9447C23.4651 20.9134 23.4287 20.8926 23.3871 20.8926C23.3819 20.8926 23.3766 20.8926 23.3714 20.8926L22.0287 21.0956C21.9819 21.1008 21.9454 21.132 21.9298 21.1789C21.9194 21.2205 21.9298 21.2673 21.9663 21.2986L22.1848 21.4911L20.6339 22.558L19.0882 21.4911L19.3068 21.2986C19.338 21.2673 19.3537 21.2205 19.3381 21.1789C19.3276 21.132 19.2912 21.1008 19.2444 21.0956L17.9016 20.8926C17.8964 20.8926 17.8912 20.8926 17.886 20.8926C17.8444 20.8926 17.808 20.9082 17.7871 20.9447C17.7611 20.9811 17.7611 21.0279 17.7819 21.0696L18.4273 22.2666C18.4481 22.303 18.4897 22.329 18.5314 22.329C18.5366 22.329 18.5366 22.329 18.5366 22.329C18.5834 22.329 18.6198 22.2978 18.6407 22.2562L18.75 21.9856L20.1135 22.9223L19.7648 23.1617C19.4161 22.9223 19.1871 22.7454 19.1819 22.7402C19.1611 22.7246 19.1351 22.7142 19.1091 22.7142C19.0778 22.7142 19.0466 22.7246 19.0258 22.7506L18.8697 22.9067C18.8488 22.9275 18.8332 22.9588 18.8332 22.9952C18.8332 23.0264 18.8488 23.0577 18.8749 23.0785C18.9009 23.0993 19.0726 23.245 19.3485 23.4532L18.4793 24.0517C18.4481 24.0725 18.4273 24.1089 18.4273 24.1506C18.4273 24.1922 18.4481 24.2234 18.4793 24.2495L18.9165 24.5461C18.9165 24.5461 18.9165 24.5461 18.9113 24.5461C18.776 24.5825 18.6511 24.6034 18.5262 24.6034C17.9485 24.6034 17.6258 24.161 17.5269 23.7863C17.3968 23.2866 17.5686 22.1209 17.5686 22.1105C17.5738 22.0636 17.5529 22.0168 17.5113 21.996C17.2719 21.8606 17.0377 21.7878 16.8139 21.7878C16.3768 21.7878 16.1269 22.0428 16.1165 22.0584C16.0957 22.074 16.0853 22.1053 16.0853 22.1261C16.0801 22.1989 15.9448 23.8799 16.7255 24.7335C17.0117 25.0457 17.3916 25.2071 17.8444 25.2071C17.9225 25.2071 18.0109 25.2071 18.0942 25.1915C18.5366 25.1394 18.9685 25.0197 19.3901 24.874L20.1135 25.3632L18.5158 26.4457C18.4845 26.4717 18.4637 26.503 18.4637 26.5446C18.4637 26.581 18.4793 26.6175 18.5158 26.6435L20.1187 27.752L18.75 28.6992L18.6459 28.4338C18.6303 28.3921 18.5886 28.3661 18.5418 28.3609C18.5418 28.3609 18.5418 28.3609 18.5366 28.3609C18.4949 28.3609 18.4533 28.3869 18.4325 28.4234L17.7871 29.6204C17.7663 29.6568 17.7715 29.7089 17.7923 29.7401C17.8132 29.7713 17.8496 29.7921 17.8912 29.7921C17.8964 29.7921 17.9016 29.7921 17.9068 29.7921L19.2496 29.5944C19.2964 29.5892 19.3328 29.5527 19.3433 29.5111C19.3589 29.4642 19.3433 29.4174 19.312 29.3862L19.0882 29.1884L20.6391 28.1163L22.19 29.1884L21.9663 29.3862C21.9298 29.4174 21.9194 29.4642 21.9298 29.5111C21.9402 29.5527 21.9819 29.5839 22.0287 29.5944L23.3714 29.7921C23.3766 29.7921 23.3819 29.7921 23.3871 29.7921C23.4235 29.7921 23.4599 29.7765 23.4859 29.7401C23.512 29.7036 23.512 29.6568 23.4911 29.6204L22.8406 28.4234C22.8198 28.3869 22.7833 28.3609 22.7365 28.3609H22.7313C22.6793 28.3609 22.6428 28.3921 22.6272 28.4338L22.5231 28.6992L21.1544 27.752L22.7573 26.6435C22.7886 26.6227 22.8094 26.5862 22.8094 26.5446C22.8094 26.503 22.7886 26.4717 22.7573 26.4457L21.1596 25.3632L21.883 24.874C22.2993 25.0249 22.7313 25.1394 23.1737 25.1915C23.2622 25.2019 23.3454 25.2071 23.4235 25.2071C23.8815 25.2071 24.2562 25.0457 24.5424 24.7335C25.3231 23.8799 25.1878 22.1989 25.1826 22.1261C25.1826 22.1053 25.1722 22.0792 25.1565 22.0584ZM20.6287 23.2971L20.9722 23.5313C20.8629 23.5989 20.7484 23.6718 20.6287 23.7446C20.509 23.6718 20.3945 23.6041 20.2852 23.5313L20.6287 23.2971ZM19.3797 24.1558L19.8533 23.8279C19.947 23.8852 20.0406 23.9476 20.1447 24.0153C19.9574 24.1141 19.77 24.2078 19.5827 24.2963L19.3797 24.1558ZM21.8518 26.5446L20.6287 27.3877L19.4109 26.5446L20.6287 25.7171L21.8518 26.5446ZM20.6287 25.0041L20.0406 24.6034C20.2488 24.5045 20.4414 24.4056 20.6287 24.3015C20.8161 24.4056 21.0139 24.5045 21.222 24.6034L20.6287 25.0041ZM21.68 24.2963C21.4927 24.213 21.3001 24.1193 21.1127 24.0153C21.2168 23.9528 21.3105 23.8904 21.4042 23.8279L21.883 24.1558L21.68 24.2963Z" fill="#6E675C"/>
<path d="M25.5684 23.0474C25.6152 22.9537 25.636 22.7767 25.636 22.7767L25.5684 22.7559V23.0474Z" fill="#6E675C"/>
<path d="M40.9459 18.8791C40.4463 18.5773 39.6188 18.4732 38.7757 18.5513C40.0924 18.0933 40.9927 17.1149 41.0396 16.2405C40.3526 16.0428 39.6396 16.1468 39.0203 16.2874C39.6604 15.8086 40.7117 14.9342 40.5816 13.6487C39.9623 13.4978 38.8278 13.9298 38.3542 14.1432C39.8738 13.2896 40.4203 11.2703 39.6136 10.1254C39.1348 10.4064 36.9646 12.6235 36.6107 12.8785C37.7349 11.593 38.2605 10.6718 38.5623 9.80793C38.9214 8.86594 38.9475 7.22135 37.7817 6.66969C37.23 7.92915 35.3045 11.161 34.2324 12.5038C34.1127 12.3997 34.019 12.2592 33.8681 12.2331C33.6131 13.0502 32.8532 14.138 32.1611 14.6584C32.1246 14.5907 32.057 14.4034 31.9373 14.2004C31.2035 15.2985 29.2987 16.8026 28.6846 17.729C28.2058 18.416 28.2058 19.0353 28.872 19.6754C29.1426 19.946 29.6526 20.4196 29.2103 21.0858C28.6066 21.9653 27.394 22.0694 26.7382 21.549C26.7382 21.3929 26.733 21.2419 26.7278 21.1014C27.5032 20.7996 27.6854 19.7431 27.1129 19.0873C26.988 19.3267 26.7799 19.5037 26.5301 19.5921C26.4624 19.3163 26.4051 19.1862 26.3999 19.1706L26.3687 19.1081H26.3011C26.2959 19.1081 26.0408 19.0925 25.6609 19.0509C26.0929 18.9104 26.3687 18.5096 26.3063 17.9736C25.6401 18.5461 24.974 17.9996 24.823 17.8487C24.4067 17.3595 24.287 16.8078 24.4535 15.9647C24.5941 15.2309 25.3539 14.0651 25.8535 13.6904C25.9264 13.758 26.0408 13.8986 26.2854 13.8777C26.426 13.8309 26.6602 13.7112 26.8371 13.6435C27.3419 13.4926 27.8311 13.6071 28.1434 13.8101C28.7158 14.1588 28.6638 14.5439 28.6482 14.8249C29.5173 14.3357 29.2155 13.5186 28.0757 13.2168C28.8564 13.2168 29.4965 13.9298 29.663 14.0183C30.095 14.3357 30.7143 14.2629 31.0734 14.0911C31.7656 13.7632 31.9061 12.9461 31.7187 12.7796C31.6511 13.0711 31.4273 13.3313 31.0265 13.3781C30.4333 13.4458 29.8608 13.1908 29.408 12.9878C29.0229 12.8264 28.4036 12.7067 27.982 12.7328C28.7627 12.3008 29.9753 12.3476 30.4072 13.0138C30.6674 12.8056 30.8288 12.6183 30.9016 12.1863C31.1254 11.0205 30.2147 10.422 29.2415 10.422C29.2675 10.141 29.0697 10.0005 28.8095 10.0941C28.8095 9.97447 28.7783 9.88079 28.7106 9.83395C28.7315 9.83395 28.7627 9.82354 28.7835 9.82354C29.7619 9.75588 30.6883 9.45403 31.1879 8.92839C32.0622 7.9916 30.6674 6.805 31.1671 5.88383C31.6459 6.092 31.9997 6.36263 32.6607 6.45631C32.7283 6.59683 32.7908 6.87786 32.8116 7.02879C33.025 8.06967 31.9997 8.24141 32.2652 9.34994C32.3797 9.85477 32.7596 10.0265 32.8845 10.625C32.8845 10.625 32.9313 11.0413 32.567 11.4057C33.4101 11.4265 33.8525 10.7135 33.5923 10.0525C33.4778 9.78191 33.1863 9.52689 33.1863 9.20942C33.6183 9.78191 34.0034 9.76109 34.6695 9.54771C34.9714 9.45403 34.9974 9.87559 34.8101 10.2139C35.268 9.94324 35.3825 9.50087 35.3825 9.3031C35.3825 8.83471 35.0182 8.61613 34.6695 8.7098C34.4718 8.73062 34.0763 9.00125 34.0502 8.61613C33.967 7.94997 35.0182 7.97599 34.8048 6.90388C34.6904 6.36783 34.0919 6.07118 33.1603 5.95669C33.0666 5.86301 32.8324 5.63922 32.7075 5.45186C32.1975 4.60355 31.6667 4.37976 31.3492 4.5515C30.9745 4.73886 30.7819 4.9002 30.4749 5.06674C30.2303 5.19685 29.9701 5.26451 29.8087 5.45186C29.4028 5.95669 29.7879 6.73734 29.9961 7.21615C30.1366 7.49718 30.4749 8.13732 30.324 8.61613C30.1574 9.18861 29.2155 9.54771 28.643 9.66741C28.6066 9.66741 28.5805 9.67782 28.5441 9.67782V9.45403C28.7106 9.16258 28.8512 8.81389 28.9657 8.49643C29.3508 7.46596 28.7783 7.04961 27.93 6.85184C27.8207 6.78418 27.7062 6.75816 27.5657 6.805H27.5397L27.5189 6.97675L27.4044 6.94032L27.4304 6.73214H27.3783C27.4772 6.66448 27.5189 6.54478 27.5189 6.43029C27.5189 6.30538 27.472 6.2065 27.4252 6.13884H27.5397L27.4928 6.092C27.472 6.04516 27.4252 5.99832 27.3523 5.92546C27.3315 5.90464 27.3055 5.8578 27.3055 5.83178C27.3263 5.8526 27.3523 5.87862 27.3992 5.89944C27.446 5.94628 27.5137 5.99312 27.5397 6.03996L27.6073 6.0868V5.1448L27.5397 5.20205C27.5189 5.22287 27.446 5.26971 27.3992 5.32175C27.3523 5.36859 27.3315 5.36859 27.3055 5.38941C27.3055 5.36859 27.3263 5.34257 27.3523 5.29573C27.4252 5.24889 27.472 5.18124 27.4928 5.1448L27.5397 5.07194H26.5821L26.6289 5.1448C26.6758 5.17603 26.733 5.24889 26.7799 5.29573C26.8007 5.34257 26.8267 5.36859 26.8475 5.38941C26.8215 5.36859 26.7799 5.36859 26.7538 5.32175C26.6706 5.27491 26.6289 5.22807 26.5821 5.20205L26.5457 5.1448V6.10241L26.5925 6.05557C26.6393 6.00873 26.6862 5.96189 26.7642 5.91505C26.7903 5.89424 26.8319 5.86821 26.8579 5.8474C26.8319 5.86821 26.8111 5.91505 26.7903 5.94107C26.7434 6.01394 26.681 6.05557 26.6393 6.10761L26.5925 6.15445H26.7434C26.6602 6.22211 26.6393 6.32099 26.6393 6.4459C26.6393 6.5604 26.6862 6.6801 26.7642 6.74775H26.7434L26.7642 6.95593L26.6393 6.99236L26.6133 6.82061H26.5925C26.452 6.77378 26.3375 6.7998 26.2438 6.86745C25.3799 7.06522 24.8074 7.48678 25.1926 8.51204C25.3122 8.82951 25.4528 9.1782 25.6245 9.46964V9.62057C24.7606 9.33954 23.2045 8.39234 22.7882 7.81986C22.7413 7.76261 22.7049 7.71577 22.6841 7.67934H22.6789L22.6945 7.06002C22.9963 6.55519 23.267 5.93587 23.4751 5.36859C24.0216 3.88534 23.2149 3.26602 21.9347 3.01101C21.8046 2.91733 21.6432 2.87049 21.4299 2.94335L21.383 3.17755L21.1124 3.15673L21.1332 2.85488C21.0968 2.86529 21.0499 2.86529 21.0031 2.86529C21.1853 2.77161 21.3154 2.54782 21.3154 2.31883C21.3154 2.15229 21.2321 1.95452 21.0916 1.86084H21.3154C21.1853 1.74634 20.9771 1.50174 20.9355 1.3352C21.0968 1.38204 21.3414 1.60062 21.4559 1.72032V0.507706C21.3414 0.601385 21.0968 0.835581 20.9355 0.856399C20.9771 0.721085 21.1853 0.486888 21.3154 0.367188H20.1028C20.1964 0.486888 20.4306 0.721085 20.4515 0.856399C20.3109 0.835581 20.0767 0.601385 19.9466 0.507706V1.72032C20.0767 1.60062 20.3057 1.38204 20.4515 1.3352C20.4306 1.49653 20.1964 1.74114 20.1028 1.86084H20.3109C20.1704 1.95452 20.1028 2.15229 20.1028 2.31883C20.1028 2.54782 20.2173 2.77681 20.4046 2.86529C20.3578 2.86529 20.3109 2.86529 20.2381 2.84447L20.2641 3.14632L19.9935 3.16714L19.9675 2.93294C19.7593 2.86529 19.598 2.91213 19.4574 3.0006C18.1876 3.26082 17.3809 3.87494 17.9274 5.35818C18.1147 5.92546 18.3854 6.54999 18.708 7.04961V7.68975C18.6872 7.71056 18.6612 7.7574 18.6143 7.80424C18.2084 8.37672 16.6419 9.32392 15.778 9.60496V9.45403C15.9498 9.16258 16.0955 8.81389 16.21 8.49643C16.5951 7.46596 16.0226 7.04961 15.1587 6.85184C15.0598 6.78418 14.9505 6.75816 14.81 6.805H14.7892L14.7632 6.97675L14.6487 6.94032L14.6695 6.73214H14.6487C14.7163 6.66448 14.7632 6.54478 14.7632 6.43029C14.7632 6.30538 14.7424 6.2065 14.6695 6.13884H14.81L14.7632 6.092C14.7163 6.04516 14.6695 5.99832 14.6227 5.92546C14.6018 5.90464 14.5654 5.8578 14.5394 5.83178C14.5654 5.8526 14.6227 5.87862 14.6435 5.89944C14.7111 5.94628 14.758 5.99312 14.81 6.03996L14.8569 6.0868V5.1448L14.81 5.20205C14.7632 5.22287 14.7163 5.26971 14.6435 5.32175C14.6227 5.36859 14.5654 5.36859 14.5394 5.38941C14.5654 5.36859 14.5966 5.34257 14.6227 5.29573C14.6695 5.24889 14.7163 5.18124 14.7632 5.1448L14.81 5.07194H13.8524L13.8993 5.1448C13.9201 5.17603 13.9825 5.24889 14.0294 5.29573C14.0762 5.34257 14.097 5.36859 14.097 5.38941C14.0814 5.36339 14.0554 5.36339 14.0138 5.31655C13.9565 5.26971 13.8837 5.22287 13.8628 5.19685L13.79 5.1396V6.09721L13.8628 6.05037C13.8837 6.00353 13.9565 5.95669 14.0138 5.90985C14.0606 5.88903 14.0814 5.86301 14.1022 5.84219C14.1022 5.86301 14.0814 5.90985 14.0346 5.93587C13.9877 6.00873 13.9253 6.05037 13.9045 6.10241L13.8576 6.14925H13.9825C13.9253 6.21691 13.8732 6.31579 13.8732 6.4407C13.8732 6.55519 13.9201 6.67489 14.0294 6.74255H13.9825L14.0086 6.95072L13.8785 6.98715L13.8576 6.81541H13.8316C13.6911 6.76857 13.5766 6.79459 13.4829 6.86225C12.619 7.06002 12.0465 7.48157 12.4317 8.50683C12.5514 8.8243 12.6919 9.17299 12.8636 9.46444V9.68823C12.8272 9.68823 12.796 9.67782 12.7699 9.67782C12.1975 9.55812 11.2399 9.19902 11.0786 8.62653C10.9276 8.14773 11.2659 7.50759 11.4064 7.22656C11.6302 6.74775 12.0049 5.9671 11.6094 5.46227C11.4324 5.27491 11.1774 5.20726 10.9276 5.07715C10.6258 4.91581 10.4384 4.74927 10.0533 4.56191C9.74627 4.39017 9.22584 4.60875 8.695 5.46227C8.58051 5.64963 8.33591 5.86821 8.23703 5.9671C7.31587 6.08159 6.72258 6.37304 6.59248 6.91429C6.3791 7.9864 7.43037 7.96558 7.36271 8.62653C7.33669 9.01166 6.93075 8.74103 6.7434 8.72021C6.3791 8.62653 6.02001 8.84512 6.02001 9.31351C6.02001 9.51128 6.15011 9.95365 6.59248 10.2243C6.40512 9.88599 6.42594 9.46444 6.7434 9.55812C7.40955 9.7715 7.77905 9.79232 8.21621 9.21983C8.21621 9.5321 7.93518 9.79231 7.81028 10.0629C7.55006 10.7291 7.98202 11.4369 8.83552 11.4161C8.4504 11.0518 8.52847 10.6354 8.52847 10.6354C8.64817 10.0369 9.02287 9.86518 9.14778 9.36035C9.40799 8.25182 8.37754 8.08007 8.60133 7.0392C8.62214 6.88827 8.66898 6.60724 8.74184 6.46672C9.40799 6.37304 9.77229 6.10761 10.2355 5.89424C10.7143 6.81541 9.33513 8.00201 10.2146 8.9388C10.7195 9.46444 11.651 9.76629 12.619 9.83395C12.6398 9.83395 12.6711 9.84436 12.6971 9.84956C12.6294 9.8964 12.593 9.98488 12.593 10.1046C12.338 10.0109 12.1402 10.1514 12.1767 10.4324C11.1722 10.4324 10.2875 11.0309 10.5061 12.1967C10.5737 12.6287 10.7403 12.816 11.0109 13.0242C11.4324 12.3581 12.645 12.3112 13.4361 12.7432C13.0041 12.7172 12.3848 12.8369 12.0049 12.9982C11.5573 13.196 10.9901 13.4562 10.3968 13.3885C9.98567 13.3417 9.77749 13.0867 9.69423 12.79C9.50687 12.9566 9.64739 13.7684 10.3448 14.1015C10.6934 14.2733 11.3127 14.3461 11.7447 14.0287C11.9112 13.935 12.5514 13.2272 13.3372 13.2272C12.2027 13.529 11.8852 14.3461 12.7751 14.8353C12.7387 14.5543 12.6971 14.1692 13.2643 13.8205C13.5818 13.6227 14.0814 13.503 14.5758 13.6539C14.7476 13.7216 14.9818 13.8413 15.1223 13.8881C15.3669 13.909 15.4814 13.7684 15.5542 13.7008C16.059 14.0755 16.7928 15.2413 16.9542 15.9751C17.1311 16.8182 17.001 17.3647 16.5795 17.8591C16.439 18.01 15.7624 18.5565 15.1015 17.984C15.039 18.52 15.3148 18.9156 15.7468 19.0613C15.3617 19.1029 15.1015 19.1185 15.0963 19.1185H15.0286L15.0026 19.181C14.9974 19.1914 14.9401 19.3267 14.8673 19.5973C14.6279 19.5037 14.4197 19.3319 14.2948 19.0925C13.7223 19.7483 13.8993 20.7996 14.6695 21.1014C14.6643 21.2471 14.6591 21.3981 14.6591 21.5594C13.9982 22.0694 12.8012 21.9601 12.2079 21.0858C11.7499 20.4196 12.2755 19.9408 12.5358 19.6754C13.2019 19.0353 13.2019 18.416 12.7179 17.729C12.0986 16.8078 10.199 15.2985 9.46524 14.2004C9.34554 14.3982 9.27788 14.5855 9.25186 14.6584C8.5649 14.138 7.79466 13.0502 7.53965 12.2331C7.39914 12.254 7.29505 12.3997 7.17536 12.5038C6.11368 11.161 4.17769 7.92915 3.63124 6.66969C2.47589 7.22135 2.49671 8.86594 2.8506 9.80793C3.16286 10.6718 3.68849 11.593 4.797 12.8785C4.44832 12.6183 2.27813 10.4064 1.79934 10.1254C0.997882 11.2703 1.54433 13.2896 3.05877 14.1432C2.59559 13.9298 1.45065 13.4978 0.831345 13.6487C0.716851 14.9342 1.7525 15.8086 2.39263 16.2874C1.76811 16.1468 1.05513 16.0428 0.368164 16.2405C0.415003 17.1149 1.32575 18.0985 2.606 18.5513C1.78893 18.468 0.961452 18.5773 0.456637 18.8791C0.550314 19.7899 1.58076 20.5758 2.81417 20.7631C1.98669 20.8568 1.25289 21.2211 0.867775 21.7207C1.32054 22.314 1.98669 22.772 3.00153 22.7512C2.76733 22.8345 2.49671 22.9958 2.26772 23.2144C2.2417 23.1936 2.19486 23.1676 2.15323 23.1676C2.10119 23.1884 2.08557 23.2612 2.10119 23.3081C2.10119 23.3081 2.10119 23.3081 2.10119 23.3445C2.00231 23.4122 1.95026 23.4954 1.93985 23.5787C1.84618 23.714 1.7473 23.8701 1.69525 24.0107C1.72127 24.0211 1.74209 24.0471 1.76291 24.0575C1.7577 24.1304 1.77852 24.2188 1.83577 24.3073C1.78893 24.3542 1.76811 24.4218 1.74209 24.4947L1.1488 24.2553C1.11758 24.7965 1.23728 25.2389 1.5079 25.5147C1.72127 25.7593 1.96588 25.7229 1.89302 25.8062L2.53835 26.2017C2.65284 26.4463 2.88703 26.4463 3.04836 26.3787C3.04836 26.3787 3.04836 26.3995 3.04836 26.4255C3.04836 26.6805 3.22531 26.8887 3.4543 26.972C3.40746 27.1853 3.50114 27.3206 3.79258 27.4195L6.21777 33.3005C6.12409 33.5815 6.21777 33.8261 6.43114 33.9198C6.3791 33.9875 6.33747 34.0603 6.33747 34.2008C6.43114 34.1332 6.57166 34.1072 6.63932 34.3049C6.68615 34.4454 6.43114 34.8982 6.81626 35.2053C6.76422 35.4759 6.90994 35.7517 7.18576 35.8714C7.18576 36.012 7.31587 36.4647 7.33669 36.6261C7.16495 36.8707 6.76422 37.2454 6.81626 37.6565C6.8631 37.948 6.97759 38.0417 7.21179 38.1145C7.11811 38.6402 7.40955 38.8744 7.85191 38.9004C7.85191 39.2855 8.21101 39.4208 8.4452 39.4468C8.66898 39.6134 8.76266 39.681 9.01767 39.8112C8.78348 40.087 8.95001 40.4513 9.37676 40.571C9.4236 40.7323 9.5433 40.8729 9.7827 40.9301C9.92321 41.1643 10.1782 41.1643 10.3291 41.0966C10.4228 41.0498 10.5894 40.7792 10.4436 40.545C10.5373 40.4305 10.4905 40.2067 10.4228 40.0662C10.5633 39.8112 10.4436 39.4937 10.2511 39.4C10.2771 39.2595 10.2042 39.0357 10.1574 38.9004C10.4957 38.687 10.9172 38.4216 11.0681 38.3279C11.8956 37.7346 12.8324 37.2038 13.8941 37.1361C14.1647 37.1101 14.6643 37.0893 14.9453 37.1101C15.3773 37.1569 15.9706 37.287 16.3193 37.0164C16.4285 36.9487 16.4962 36.829 16.4754 36.7145C16.4286 36.4439 16.1371 36.2097 16.0434 35.9703C16.0174 35.8975 15.9758 35.7882 15.9289 35.6893C16.2308 35.7413 16.5118 35.6997 16.6836 35.6164C16.8709 35.5488 17.3237 35.2105 17.3029 34.7057C16.9386 34.8774 16.0642 35.1116 15.9706 34.2269C15.8769 33.4462 16.5639 32.78 17.6411 33.0715C18.3749 33.2588 19.447 34.8202 18.4686 35.5019C17.9898 35.8298 17.256 36.1421 17.3497 36.9956C17.662 36.6105 18.0835 36.4231 18.63 36.4699C17.8285 37.0632 17.2092 37.1361 16.3661 37.5889C15.6323 38.0208 15.0858 38.7339 14.5082 38.7547C14.0658 38.7755 13.8212 38.2498 14.2532 37.8439C13.8212 37.7502 13.2487 38.0885 13.0874 38.5413C12.8792 39.1606 13.0406 39.603 13.4257 39.8528C12.9053 40.1338 12.5149 40.6803 12.7023 41.4609C12.8792 42.1011 13.5194 42.1011 13.2748 42.9182C13.6339 42.8245 13.868 42.5799 13.9721 42.2312C14.019 41.9866 14.0658 41.7316 14.1855 41.6119C14.1335 42.1011 14.4145 42.8245 15.0858 43.1524C15.5386 43.3762 16.2516 43.4646 16.7981 42.8974C17.0218 43.5375 17.7765 44.0892 18.5623 44.0631C18.9214 44.0631 19.2753 43.907 19.5407 43.7509C19.7281 44.2245 20.2069 44.7085 20.6804 44.9375C21.1696 44.7085 21.6484 44.2245 21.8462 43.7509C22.1064 43.9122 22.4655 44.0631 22.8142 44.0631C23.5688 44.084 24.3651 43.5375 24.5784 42.8974C25.1249 43.4646 25.8379 43.3762 26.2907 43.1524C26.9568 42.8245 27.2378 42.1011 27.191 41.6119C27.3159 41.7316 27.3627 41.9866 27.4148 42.2312C27.5085 42.5799 27.7374 42.8245 28.1017 42.9182C27.8571 42.1011 28.5129 42.1011 28.6742 41.4609C28.8616 40.6803 28.4764 40.1286 27.9612 39.8528C28.3359 39.6082 28.5129 39.1658 28.2891 38.5413C28.1278 38.0885 27.5553 37.7502 27.1233 37.8439C27.5553 38.2498 27.3211 38.7755 26.8683 38.7547C26.2959 38.7339 25.7494 38.0156 25.0104 37.5889C24.1725 37.1309 23.5532 37.0632 22.7465 36.4699C23.293 36.4231 23.7249 36.6105 24.0268 36.9956C24.1205 36.1421 23.3867 35.8298 22.9079 35.5019C21.9399 34.8202 23.0016 33.2588 23.751 33.0715C24.8126 32.78 25.5152 33.4462 25.4059 34.2269C25.2914 35.1168 24.4379 34.8826 24.0528 34.7057C24.0528 35.2053 24.5056 35.5436 24.6929 35.6164C24.9115 35.7205 25.3175 35.7778 25.6765 35.6216C25.6661 35.7101 25.6505 35.8038 25.6505 35.8298C25.5777 36.5896 25.1717 36.6573 25.3122 36.9696C25.51 37.2038 26.8163 37.1569 27.1702 37.2298C27.7895 37.3131 28.3151 37.542 28.9084 37.6618C29.5746 37.8023 30.2823 37.8023 30.8808 38.0469C31.2659 38.2134 31.6979 38.5257 32.0726 38.713C32.6451 38.8067 32.5514 39.0409 32.9157 39.0409C33.2436 39.0409 33.3685 38.7599 33.79 38.6454C34.0815 38.5777 34.4093 38.6922 34.7008 38.5985C34.9141 38.5517 35.0078 38.3331 35.2056 38.2134C35.4398 38.0729 35.7676 38.0729 35.9862 37.8699C36.1007 37.7658 36.1267 37.5681 36.1059 37.4276L36.1111 37.4588C36.5587 37.1465 36.897 36.6885 37.0843 36.1629C37.1988 36.1421 37.2925 36.038 37.2925 35.9183C37.2925 35.8975 37.2925 35.8714 37.2925 35.8714C37.407 35.7778 37.4798 35.6372 37.4798 35.4967C37.4798 35.3198 37.4122 35.1793 37.2925 35.0648C37.2925 35.0648 37.2925 35.0387 37.2925 35.0179C37.2925 34.9242 37.2457 34.8566 37.1988 34.7941C37.0115 33.7793 36.2412 32.9622 35.2472 32.7072C35.2472 32.6812 35.2472 32.6812 35.2472 32.6603H35.2264C35.2264 32.6135 35.2056 32.5875 35.1692 32.5875C35.0286 32.447 34.8621 32.2284 34.8413 32.0879C35.0026 32.1347 35.2732 32.3897 35.4137 32.4938V31.1511C35.2732 31.2552 35.0078 31.5102 34.8413 31.557C34.8621 31.3905 35.1171 31.099 35.2472 30.9845H33.8837C34.0086 31.099 34.2688 31.3905 34.2896 31.557C34.1283 31.5102 33.8577 31.2552 33.7224 31.1511V32.4938C33.8629 32.3897 34.1283 32.1347 34.2896 32.0879C34.2688 32.2544 34.0086 32.5458 33.8837 32.6603L33.9305 32.6812C32.9157 32.9154 32.0986 33.7585 31.9113 34.7941C31.8436 34.8514 31.7968 34.9242 31.7968 35.0179C31.7968 35.0387 31.7968 35.0648 31.7968 35.0648C31.6771 35.1793 31.6094 35.3198 31.6094 35.4967C31.6094 35.632 31.6771 35.7778 31.7968 35.8714C31.7968 35.8714 31.7968 35.8923 31.7968 35.9183C31.7968 36.0692 31.8905 36.1421 32.0049 36.1629C32.0518 36.293 32.109 36.4231 32.1715 36.5376C32.1715 36.5272 32.1715 36.5272 32.1871 36.5116C32.1038 36.8967 31.6354 37.1309 31.5314 37.1309C30.6987 37.2506 29.7775 36.8967 28.9396 36.5844C28.5701 36.4439 28.0653 36.2826 27.8207 35.9183C27.6698 35.6529 27.6021 35.4863 27.6802 35.2521C27.7739 35.3666 27.9248 35.4967 28.1382 35.6112C28.159 35.4967 28.159 35.3666 28.2058 35.2729C28.4192 35.5904 28.7575 35.7517 29.1634 35.7309C28.9188 35.5227 28.8043 34.9711 28.9188 34.4923C29.2571 35.0648 30.5425 35.1793 30.7767 34.154C30.2979 34.3778 29.9909 34.1332 29.9024 33.873C29.7619 33.4618 30.2303 32.4678 29.8087 31.7027C29.4705 31.1303 29.0853 30.7816 28.1902 30.641C28.2579 30.5317 28.2839 30.4381 28.3047 30.2767C27.4772 30.5786 26.7642 30.3444 26.426 29.6834C26.5925 29.7511 26.8319 29.7771 27.0661 29.7771C26.3323 29.1786 26.3791 27.4872 26.9048 26.6128C26.9724 26.566 26.9984 26.5192 27.0661 26.4984C27.2274 26.8262 27.7062 26.8262 27.9508 27.0917C28.0445 26.998 28.0913 26.972 28.185 26.8939C28.185 26.8939 28.2058 28.2835 28.2995 28.8559C28.3932 29.4961 29.0125 29.4284 29.33 29.7095C29.7047 29.2983 30.3812 29.3191 30.2771 28.6113C30.1835 27.9035 30.0429 27.2582 30.0221 26.7794C30.2303 27.2114 30.6414 28.8351 30.8028 29.2983C31.0682 29.9853 31.7343 29.7771 32.109 30.0477C32.3536 29.5689 32.9729 29.4284 32.7283 28.705C32.6607 28.5177 31.6459 26.3839 31.4949 25.9727C31.854 26.4984 32.8376 28.3771 33.1395 28.9028C33.4778 29.4492 34.0971 29.1838 34.5394 29.3191C34.6227 28.9236 35.2212 28.4656 34.784 27.7786C34.2376 26.8679 32.9521 25.2805 32.8845 25.0567C33.1395 25.3013 35.1327 27.7786 35.2888 27.9139C35.752 28.3199 36.4286 28.0076 36.8293 28.0076C36.8293 27.5548 37.1884 27.0396 36.668 26.514C36.1892 26.056 35.0911 25.2753 34.8569 25.0099C35.5907 25.5147 36.4546 26.3162 36.9698 26.4463C37.8806 26.6805 38.2084 26.3162 38.5467 26.1757C38.2657 25.3482 38.6404 24.9631 36.7148 24.1564C38.3802 24.7497 39.1192 24.4582 39.7125 23.9898C39.4783 23.3965 38.885 22.8969 38.401 22.7304C39.421 22.7512 40.0976 22.2984 40.54 21.6999C40.1653 21.2003 39.421 20.836 38.5675 20.7423C39.827 20.5706 40.8314 19.7899 40.9459 18.8791ZM2.31456 24.9943C2.29374 24.9943 2.29374 25.0151 2.26772 25.0411C2.12721 25.0203 2.12721 24.8538 2.15323 24.7133C2.22088 24.7133 2.26772 24.6924 2.31456 24.6456L2.33538 24.6716L2.26772 24.7185C2.29374 24.8069 2.29374 24.9006 2.31456 24.9943ZM2.77254 25.9727L2.54355 25.8374C2.63723 25.7281 2.7257 25.7281 2.81938 25.7906C2.81938 25.8582 2.81938 25.9259 2.77254 25.9727ZM3.4595 24.5155C3.42828 24.5155 3.39705 24.5155 3.36583 24.5155C3.36062 24.5103 3.35542 24.4999 3.35021 24.4947C3.39185 24.4843 3.43869 24.4843 3.47512 24.4738C3.47512 24.4843 3.46471 24.4999 3.4595 24.5155ZM16.694 41.565C16.1215 41.565 15.7156 41.2059 16.007 40.7011C16.1579 40.9301 16.4598 41.0342 16.72 41.0602C16.694 41.2996 16.694 41.3673 16.694 41.565ZM25.4007 40.7011C25.6922 41.2059 25.2862 41.565 24.7138 41.565C24.7138 41.3673 24.7138 41.2996 24.6669 41.0602C24.9323 41.0394 25.2446 40.9405 25.4007 40.7011ZM16.6732 9.80793C17.9794 9.52689 19.3117 8.79307 19.9102 8.17375C20.4046 8.20498 21.0447 8.21018 21.5287 8.17896C22.1168 8.80348 23.4283 9.52169 24.7398 9.80272C23.98 9.80272 22.6529 9.73507 22.4863 9.54771C22.5332 10.0265 23.548 10.5677 24.2141 10.7135C23.6625 10.7811 23.1525 10.7135 22.7205 10.5157C22.9547 10.854 23.2253 11.109 23.6677 11.2599C23.2045 11.8324 22.2469 12.2019 21.2998 12.1134C21.5339 12.3945 21.9659 12.5714 22.3406 12.5194C21.4871 13.8777 20.8574 15.2725 20.7065 16.8859H20.7013V16.8911C20.5607 15.2725 19.931 13.8777 19.0827 12.5194C19.4678 12.5662 19.8894 12.3945 20.108 12.1134C19.1504 12.2071 18.2292 11.8324 17.7504 11.2599C18.198 11.109 18.4634 10.854 18.6976 10.5157C18.2761 10.7135 17.7504 10.7811 17.204 10.7135C17.8701 10.5625 18.8954 10.0265 18.9422 9.54771C18.7601 9.74027 17.433 9.80793 16.6732 9.80793ZM4.69812 24.1668C4.57842 24.2188 4.4327 24.2813 4.32341 24.3281C4.32341 24.3177 4.32341 24.3073 4.32341 24.2969C4.43791 24.2501 4.58363 24.2084 4.69812 24.1668ZM13.0978 30.2819C13.1238 30.4433 13.1447 30.537 13.2123 30.6462C12.312 30.7868 11.9321 31.1355 11.6042 31.7079C11.1462 32.4782 11.625 33.4722 11.4949 33.8782C11.4012 34.1332 11.1046 34.383 10.6258 34.1592C10.86 35.1897 12.1402 35.07 12.4785 34.4975C12.593 34.9763 12.4785 35.528 12.2443 35.7361C12.645 35.7569 12.9833 35.5956 13.1915 35.2781C13.2383 35.3718 13.2383 35.5019 13.2591 35.6164C13.4829 35.5019 13.6234 35.3718 13.7171 35.2573C13.7536 35.3718 13.7952 35.6424 13.7431 35.861C13.5714 35.9755 13.3788 36.0848 13.077 36.241C12.5982 36.4752 11.7239 36.8134 11.2243 36.8811C10.8131 36.9487 10.1001 36.7145 9.91801 36.1421C9.75147 35.5956 9.2987 35.4187 8.9396 35.7569C8.84593 35.6893 8.59092 35.6372 8.48163 35.809C8.48163 35.809 8.36714 35.5488 8.22662 35.4239C8.3203 35.1428 8.24744 34.8045 7.99243 34.69C7.97161 34.1384 7.63333 34.1384 7.51363 33.951C7.44598 33.8365 7.44598 33.6908 7.60731 33.67C7.53966 33.5659 7.39394 33.5451 7.37312 33.5451C7.41996 33.3109 7.3471 33.0194 7.03484 32.9258L4.26617 27.2114C4.44311 27.024 4.34943 26.7534 4.15167 26.6597C4.15167 26.6597 4.15167 26.6389 4.15167 26.6128C4.16728 26.566 4.17249 26.5348 4.17769 26.4984C4.25055 26.4879 4.34423 26.4671 4.42229 26.4463C4.96874 26.3162 5.82224 25.5147 6.56125 25.0099C6.30104 25.2805 5.22896 26.0612 4.75016 26.514C4.3026 26.9563 4.48995 27.3987 4.56281 27.7994L4.66689 28.0232C5.07283 28.0493 5.68173 28.2939 6.1345 27.9191C6.27502 27.7786 8.27346 25.3013 8.53888 25.0619C8.43479 25.2857 7.17536 26.8731 6.60289 27.7838C6.18134 28.4708 6.80065 28.9236 6.87351 29.3243C7.32628 29.1838 7.94559 29.4544 8.27346 28.908C8.59092 28.3823 9.55891 26.5036 9.91801 25.9779C9.77749 26.3891 8.75225 28.5229 8.67939 28.7102C8.43479 29.4336 9.0541 29.5741 9.2987 30.0529C9.67341 29.7823 10.3448 29.9957 10.605 29.3035C10.7663 28.8403 11.1774 27.2166 11.3908 26.7846C11.3648 27.2634 11.2243 27.9087 11.1306 28.6165C11.0369 29.3295 11.7031 29.3035 12.0518 29.7147C12.39 29.4336 13.0093 29.5013 13.103 28.8611C13.1967 28.2887 13.2175 26.8991 13.2175 26.8991C13.3112 26.9824 13.358 27.0032 13.4621 27.0969C13.6911 26.8262 14.1751 26.8262 14.3364 26.5036C14.4093 26.5244 14.4301 26.5712 14.503 26.6181C15.0286 27.4924 15.0702 29.1838 14.3364 29.7823C14.5498 29.7823 14.8152 29.7563 14.9766 29.6886C14.6539 30.3496 13.9305 30.5838 13.0978 30.2819ZM18.2709 38.2759C17.8389 38.8692 17.5006 39.3011 17.2196 40.0402C16.7148 39.9933 16.8137 39.374 16.975 39.0617C17.3133 38.4424 18.6872 37.6357 19.3794 36.829C19.0723 37.3443 18.6456 37.8127 18.2709 38.2759ZM19.7645 39.374C19.4835 40.4669 19.2857 42.0803 19.3794 42.8037C18.4114 42.2989 18.9578 40.3524 19.3325 39.5145C19.853 38.3487 20.2173 36.9227 20.337 36.012C20.6388 36.7041 19.9675 38.635 19.7645 39.374ZM22.0284 42.8037C22.122 42.0803 21.9347 40.4669 21.6432 39.374C21.4403 38.635 20.7741 36.7041 21.0708 36.012C21.1853 36.9227 21.5496 38.3435 22.0752 39.5145C22.4499 40.3524 22.9963 42.2989 22.0284 42.8037ZM24.4327 39.0565C24.5993 39.374 24.6929 39.9881 24.1881 40.0349C23.9071 39.2959 23.5688 38.8692 23.1525 38.2707C22.7622 37.8127 22.3354 37.3391 22.0284 36.8238C22.7153 37.6357 24.0944 38.4372 24.4327 39.0565ZM24.313 30.7035C23.0484 33.16 20.7325 35.1584 20.7065 35.1324C20.6804 35.1636 18.3645 33.16 17.0999 30.7035C15.8353 28.2522 15.0234 24.3958 14.9818 22.5534C14.9349 20.7111 15.2992 19.9252 15.2992 19.9252C15.2992 19.9252 16.8813 19.8367 18.146 19.3996C19.218 19.0301 20.3838 18.0881 20.7117 17.8122C21.0395 18.0881 22.2053 19.0249 23.2826 19.3996C24.542 19.842 26.1241 19.9252 26.1241 19.9252C26.1241 19.9252 26.4832 20.7163 26.4364 22.5534C26.3843 24.3958 25.5725 28.2522 24.313 30.7035Z" fill="#6E675C"/>
<path d="M67.6279 24.9684C68.4242 24.7966 69.2933 24.6769 70.2353 24.6145C71.1773 24.5468 72.0985 24.5156 73.0144 24.5156C73.9824 24.5156 74.9661 24.5989 75.9601 24.7706C76.9594 24.9424 77.8649 25.2546 78.682 25.7126C79.4991 26.1706 80.1652 26.8003 80.6909 27.607C81.2113 28.4137 81.4768 29.4546 81.4768 30.7244C81.4768 31.9214 81.2373 32.9415 80.7638 33.7846C80.2902 34.6277 79.6552 35.3199 78.8694 35.8507C78.0835 36.3816 77.1779 36.7719 76.1631 37.0165C75.1482 37.2611 74.0969 37.386 73.0144 37.386C72.8999 37.386 72.723 37.3808 72.4888 37.3704C72.2494 37.36 72.0048 37.3496 71.7498 37.3444C71.4948 37.334 71.2449 37.3184 71.0108 37.3028C70.7714 37.2819 70.5996 37.2663 70.4851 37.2455V44.7086H67.6383V24.9684H67.6279ZM73.0977 27.0189C72.5825 27.0189 72.0881 27.0293 71.6041 27.0449C71.12 27.0657 70.7453 27.1126 70.4799 27.1854V34.737C70.5736 34.7734 70.7297 34.7995 70.9483 34.8099C71.1669 34.8203 71.3959 34.8307 71.6301 34.8515C71.8695 34.8723 72.0933 34.8775 72.3118 34.8775C72.5304 34.8775 72.697 34.8775 72.8115 34.8775C73.4932 34.8775 74.1698 34.8255 74.836 34.7214C75.5021 34.6173 76.1006 34.4195 76.6471 34.1177C77.1883 33.8158 77.6255 33.3995 77.9586 32.853C78.2917 32.3118 78.4582 31.6092 78.4582 30.7452C78.4582 29.9958 78.2969 29.3817 77.9742 28.8925C77.6515 28.4085 77.2352 28.0234 76.72 27.7423C76.2099 27.4613 75.6322 27.2687 74.9973 27.1646C74.3572 27.071 73.7222 27.0189 73.0977 27.0189Z" fill="#6E675C"/>
<path d="M82.127 37.2453C82.127 36.0118 82.2884 34.9033 82.611 33.9249C82.9337 32.9464 83.4073 32.1137 84.037 31.432C84.6616 30.7502 85.4266 30.2246 86.3322 29.8655C87.2325 29.5063 88.263 29.3242 89.4236 29.3242C90.6362 29.3242 91.7031 29.522 92.6138 29.9227C93.5246 30.3234 94.2845 30.8751 94.8934 31.5881C95.5023 32.3011 95.9499 33.1338 96.2465 34.0966C96.5432 35.0542 96.6889 36.1055 96.6889 37.2453C96.6889 38.4579 96.5223 39.5508 96.1893 40.5188C95.8562 41.4868 95.3826 42.3143 94.7633 42.9961C94.1439 43.6779 93.3841 44.2035 92.4837 44.5626C91.5834 44.9217 90.5633 45.1039 89.4236 45.1039C88.1693 45.1039 87.0868 44.9061 86.176 44.5054C85.2653 44.1046 84.5106 43.5582 83.9121 42.8556C83.3136 42.153 82.8661 41.3203 82.5746 40.3627C82.2728 39.4051 82.127 38.3642 82.127 37.2453ZM84.9738 37.2453C84.9738 37.9479 85.0519 38.6348 85.2132 39.3114C85.3746 39.988 85.6296 40.5865 85.9887 41.1225C86.3478 41.6586 86.8058 42.0801 87.3678 42.4028C87.9299 42.7255 88.6221 42.8868 89.4496 42.8868C92.3744 42.8868 93.8369 41.008 93.8369 37.2505C93.8369 36.5114 93.7587 35.7984 93.5975 35.1115C93.4361 34.4297 93.1863 33.826 92.8376 33.3055C92.4889 32.7851 92.0362 32.3636 91.4741 32.0357C90.912 31.713 90.2354 31.5517 89.4496 31.5517C87.9872 31.5517 86.8786 32.0201 86.1188 32.9621C85.3537 33.8936 84.9738 35.3248 84.9738 37.2453Z" fill="#6E675C"/>
<path d="M111.038 43.6779C110.372 44.1515 109.596 44.5106 108.701 44.7448C107.806 44.9842 106.869 45.1039 105.88 45.1039C104.626 45.1039 103.559 44.9113 102.674 44.5314C101.79 44.1515 101.077 43.6206 100.525 42.9389C99.9728 42.2571 99.5773 41.4296 99.3275 40.4616C99.0829 39.4936 98.958 38.4215 98.958 37.2453C98.958 34.7211 99.5721 32.7695 100.796 31.3903C102.019 30.0164 103.783 29.3242 106.078 29.3242C107.083 29.3242 107.957 29.4127 108.701 29.5948C109.44 29.777 110.106 30.0008 110.694 30.2662L110.018 32.4C109.508 32.1346 108.956 31.9264 108.363 31.7755C107.77 31.6245 107.124 31.5465 106.427 31.5465C103.351 31.5465 101.816 33.4461 101.816 37.2453C101.816 37.9687 101.899 38.6661 102.071 39.3374C102.242 40.014 102.513 40.6125 102.893 41.1329C103.273 41.6534 103.767 42.0801 104.376 42.4028C104.99 42.7255 105.74 42.8868 106.625 42.8868C107.416 42.8868 108.113 42.7775 108.706 42.5589C109.3 42.3404 109.794 42.0801 110.195 41.7783L111.038 43.6779Z" fill="#6E675C"/>
<path d="M124.309 43.6779C123.643 44.1515 122.867 44.5106 121.972 44.7448C121.077 44.9842 120.14 45.1039 119.151 45.1039C117.897 45.1039 116.83 44.9113 115.945 44.5314C115.061 44.1515 114.348 43.6206 113.796 42.9389C113.244 42.2571 112.849 41.4296 112.599 40.4616C112.354 39.4936 112.229 38.4215 112.229 37.2453C112.229 34.7211 112.844 32.7695 114.067 31.3903C115.29 30.0164 117.054 29.3242 119.349 29.3242C120.354 29.3242 121.228 29.4127 121.972 29.5948C122.711 29.777 123.377 30.0008 123.965 30.2662L123.289 32.4C122.779 32.1346 122.227 31.9264 121.634 31.7755C121.04 31.6245 120.395 31.5465 119.698 31.5465C116.622 31.5465 115.087 33.4461 115.087 37.2453C115.087 37.9687 115.17 38.6661 115.342 39.3374C115.513 40.014 115.784 40.6125 116.164 41.1329C116.539 41.6534 117.038 42.0801 117.652 42.4028C118.267 42.7255 119.016 42.8868 119.901 42.8868C120.692 42.8868 121.389 42.7775 121.982 42.5589C122.576 42.3404 123.07 42.0801 123.466 41.7783L124.309 43.6779Z" fill="#6E675C"/>
<path d="M137.294 36.1617L137.694 33.2005H137.382L135.987 35.99L128.982 44.7073H126.963V29.75H129.586V38.5766L129.388 41.1996H129.7L131.012 38.6651L137.876 29.75H139.927V44.7021H137.304V36.1617H137.294Z" fill="#6E675C"/>
<path d="M154.129 36.1617L154.53 33.2005H154.217L152.823 35.99L145.818 44.7073H143.798V29.75H146.416V38.5766L146.218 41.1996H146.531L147.842 38.6651L154.707 29.75H156.757V44.7021H154.134V36.1617H154.129Z" fill="#6E675C"/>
<path d="M83.7151 8.10187L84.0221 5.15619H83.8712L82.7106 7.84685L77.1575 16.7099H76.3925L70.5064 7.82083L69.4082 5.15619H69.2573L69.6841 8.07064V21.2794H67.3057V1.64844H69.1948L75.8773 11.6877L76.8817 13.8735H76.9442L77.8914 11.6304L84.2667 1.64844H86.2496V21.2742H83.7151V8.10187Z" fill="#6E675C" stroke="#6E675C" stroke-width="0.559211" stroke-miterlimit="10"/>
<path d="M100.707 12.9774L100.8 11.2391H100.707L99.4582 13.0347L92.5937 21.2784H91.1885V7.25781H93.6293V15.8086L93.5356 17.4636H93.6553L94.8471 15.7253L101.711 7.25781H103.142V21.2784H100.702V12.9774H100.707Z" fill="#6E675C" stroke="#6E675C" stroke-width="0.559211" stroke-miterlimit="10"/>
<path d="M117.179 15.08H110.283V21.2784H107.842V7.25781H110.283V13.1179H117.179V7.25781H119.62V21.2784H117.179V15.08Z" fill="#6E675C" stroke="#6E675C" stroke-width="0.559211" stroke-miterlimit="10"/>
<path d="M138.016 24.8382H136.366L135.908 21.2784H124.318V7.25781H126.759V19.3163H133.379V7.25781H135.82V19.3163H138.016V24.8382Z" fill="#6E675C" stroke="#6E675C" stroke-width="0.559211" stroke-miterlimit="10"/>
<path d="M150.553 12.9774L150.647 11.2391H150.553L149.304 13.0347L142.439 21.2784H141.034V7.25781H143.475V15.8086L143.381 17.4636H143.506L144.698 15.7253L151.563 7.25781H152.994V21.2784H150.553V12.9774Z" fill="#6E675C" stroke="#6E675C" stroke-width="0.559211" stroke-miterlimit="10"/>
<path d="M164.553 21.3886C164.204 21.5031 163.845 21.5656 163.471 21.5864C163.096 21.6072 162.752 21.6124 162.451 21.6124C160.598 21.6124 159.177 21.0139 158.178 19.8169C157.179 18.6199 156.684 16.7724 156.684 14.2639C156.684 11.8698 157.231 10.0691 158.334 8.8513C159.432 7.63868 161.019 7.02977 163.091 7.02977C163.658 7.02977 164.147 7.0662 164.553 7.14426V1.64844H166.874V7.17028C167.239 7.11304 167.566 7.07661 167.853 7.05579C168.139 7.03497 168.41 7.02977 168.675 7.02977C170.689 7.02977 172.204 7.56582 173.218 8.64312C174.233 9.72043 174.743 11.5003 174.743 13.9828C174.743 15.159 174.608 16.2207 174.332 17.1627C174.056 18.1047 173.656 18.9062 173.125 19.5619C172.594 20.2177 171.949 20.7225 171.189 21.0764C170.424 21.4303 169.544 21.6072 168.55 21.6072C168.368 21.6072 168.097 21.5916 167.743 21.5656C167.389 21.5396 167.098 21.4875 166.874 21.4095V26.8793H164.553V21.3886ZM163.059 19.7649C163.304 19.7649 163.549 19.7545 163.793 19.7389C164.038 19.718 164.303 19.6816 164.584 19.6244V8.99702C164.34 8.96059 164.111 8.92936 163.897 8.91375C163.684 8.89293 163.424 8.88773 163.122 8.88773C161.862 8.88773 160.879 9.31969 160.176 10.194C159.474 11.0632 159.125 12.4215 159.125 14.2743C159.125 15.0601 159.203 15.7887 159.354 16.4601C159.505 17.1315 159.744 17.7196 160.072 18.214C160.395 18.7084 160.811 19.0935 161.306 19.3641C161.8 19.6296 162.388 19.7649 163.059 19.7649ZM168.212 8.88253C167.967 8.88253 167.749 8.88773 167.556 8.89814C167.363 8.90855 167.124 8.95018 166.838 9.02304V19.6764C167.041 19.7128 167.27 19.7389 167.525 19.7441C167.78 19.7545 168.061 19.7597 168.363 19.7597C169.664 19.7597 170.647 19.2653 171.308 18.2712C171.969 17.2824 172.302 15.8512 172.302 13.9828C172.302 12.3955 172.001 11.1464 171.402 10.2409C170.804 9.34051 169.742 8.88253 168.212 8.88253Z" fill="#6E675C" stroke="#6E675C" stroke-width="0.559211" stroke-miterlimit="10"/>
<path d="M178.433 7.25625H180.109L180.567 8.93727H180.687C181.155 8.28152 181.759 7.7819 182.503 7.43841C183.247 7.09492 184.095 6.91797 185.048 6.91797C187.083 6.91797 188.597 7.46963 189.591 8.57296C190.585 9.67629 191.085 11.4823 191.085 13.9856C191.085 15.1617 190.918 16.2234 190.58 17.1654C190.242 18.1074 189.773 18.9089 189.159 19.5647C188.55 20.2204 187.811 20.7252 186.947 21.0791C186.084 21.433 185.121 21.61 184.064 21.61C183.31 21.61 182.716 21.5683 182.279 21.4851C181.842 21.4018 181.368 21.2561 180.858 21.0479V26.882H178.417V7.25625H178.433ZM184.595 8.88002C183.559 8.88002 182.737 9.12983 182.139 9.62425C181.54 10.1187 181.119 10.8733 180.874 11.883V18.836C181.238 19.0963 181.655 19.2992 182.123 19.4397C182.591 19.5803 183.211 19.6479 183.986 19.6479C185.391 19.6479 186.505 19.1691 187.327 18.2063C188.15 17.2435 188.561 15.8279 188.561 13.9595C188.561 13.1945 188.488 12.4971 188.347 11.8726C188.207 11.2481 187.978 10.712 187.66 10.2748C187.343 9.83763 186.937 9.49414 186.443 9.24953C185.943 9.00493 185.329 8.88002 184.595 8.88002Z" fill="#6E675C" stroke="#6E675C" stroke-width="0.559211" stroke-miterlimit="10"/>
<path d="M197.376 12.6131C197.866 12.5402 198.334 12.4882 198.782 12.457C199.229 12.4309 199.656 12.4153 200.062 12.4153C201.098 12.4153 201.967 12.5246 202.669 12.738C203.372 12.9514 203.934 13.248 204.361 13.6227C204.787 13.9975 205.089 14.4398 205.261 14.9551C205.433 15.4703 205.521 16.0168 205.521 16.5944C205.521 18.2963 205.006 19.5297 203.981 20.2948C202.956 21.0598 201.29 21.4449 198.995 21.4449C197.694 21.4449 196.341 21.3877 194.936 21.2784V7.25781H197.376V12.6131ZM197.376 19.3163C198.126 19.4308 198.849 19.4829 199.541 19.4829C200.822 19.4829 201.717 19.2539 202.227 18.7959C202.737 18.3379 202.992 17.6874 202.992 16.8495C202.992 16.1 202.742 15.4859 202.243 14.9967C201.743 14.5127 200.874 14.2681 199.635 14.2681C199.286 14.2681 198.912 14.2785 198.506 14.2941C198.1 14.3149 197.725 14.367 197.376 14.4607V19.3163ZM207.931 7.25781H210.372V21.2784H207.931V7.25781Z" fill="#6E675C" stroke="#6E675C" stroke-width="0.559211" stroke-miterlimit="10"/>
</g>
</g>
<defs>
<clipPath id="clip0_1207_3431">
<rect width="211" height="46" fill="white"/>
</clipPath>
</defs>
</svg>
