<svg width="171" height="121" viewBox="0 0 171 121" fill="none" xmlns="http://www.w3.org/2000/svg">
<path d="M65.8512 32.67C65.8512 32.67 66.9671 33.1002 68.3922 32.7776C68.3922 32.7776 69.0644 32.67 68.567 32.1726C68.0695 31.6751 67.4242 31.5944 67.1956 31.5944C66.9671 31.6079 66.0797 31.823 65.7167 32.2936C65.7167 32.2936 65.4613 32.5624 65.8512 32.67Z" fill="white"/>
<path d="M79.2553 78.287C84.9692 83.3556 90.8041 81.9977 88.9084 77.4131C88.7067 76.9426 88.3437 76.5527 87.8866 76.3241C85.6145 75.1813 83.0601 74.5495 80.3443 74.5495C77.7495 74.5495 75.2892 75.141 73.0977 76.1897C72.8692 76.2972 72.9902 76.6602 73.2456 76.593C74.6976 76.1897 76.5395 75.8805 79.2553 78.287Z" fill="white"/>
<path d="M72.4121 97.1496C70.5567 97.8352 70.4089 100.632 70.7181 101.976C70.8391 102.514 71.1617 102.971 71.6054 103.267C74.0254 104.894 77.2521 106.077 80.1964 106.157C83.8399 106.265 87.2413 105.055 90.0377 102.904C90.2528 102.729 90.105 102.285 89.863 102.393C83.2214 105.122 78.005 95.0926 72.4121 97.1496Z" fill="white"/>
<path d="M168.473 23.6488C164.735 16.3888 148.414 16.6173 126.19 22.8959C125.975 22.9497 125.746 22.8824 125.612 22.7077C124.778 21.6724 123.918 20.6507 123.004 19.6558C100.995 -4.356 63.2026 -5.53911 38.6127 17.0207C20.9736 33.1809 14.9102 57.1658 20.9871 78.287C21.0274 78.4214 20.9871 78.5559 20.8795 78.65C6.15785 91.3685 -1.38448 102.689 1.99008 109.236C5.70074 116.456 21.8475 116.268 43.8426 110.11C43.9367 110.083 44.0443 110.097 44.1384 110.164C66.3755 125.222 97.2305 123.366 118.352 103.993C130.344 92.9952 136.986 78.3946 138.088 63.5384C138.102 63.4309 138.142 63.3502 138.223 63.283C160.218 47.0152 172.627 31.7154 168.473 23.6488ZM34.7407 103.038C26.6472 103.684 21.0677 102.353 19.2393 98.7898C17.6394 95.6841 19.078 91.2475 22.95 86.0444C23.192 85.7083 23.7163 85.7621 23.8776 86.1386C26.338 91.5701 29.6856 96.7059 33.9206 101.331C34.2567 101.707 34.6063 102.07 34.9559 102.433C35.171 102.648 35.0365 103.011 34.7407 103.038ZM132.495 68.4457C131.393 80.9356 125.975 92.8339 116.281 101.734C107.247 110.029 95.913 114.385 84.2835 114.95C78.5831 115.232 72.923 113.727 68.2174 110.5C66.0798 109.034 64.0362 107.152 62.3153 104.746C62.1136 104.463 62.2346 104.06 62.5707 103.939C64.7353 103.132 66.9402 102.272 69.1585 101.371C69.414 101.264 69.5484 100.995 69.4812 100.726C69.2526 99.8653 68.9031 96.7731 71.7667 95.5362C78.0319 92.807 84.6062 105.66 91.2343 100.242C91.6645 99.8788 92.4577 99.5023 92.7804 99.0452C93.9097 97.4184 94.8777 95.1732 95.4021 93.2507C95.4693 93.0221 95.187 92.8473 95.0122 93.0087C85.2515 101.116 79.3091 86.3806 70.5433 87.241C66.4159 87.6443 65.8512 92.5112 65.784 94.5413C65.784 94.6086 65.7974 94.6623 65.8109 94.7296C65.905 95.0119 65.7571 95.3077 65.4747 95.4152C63.4177 96.1681 61.4011 96.8672 59.4382 97.5126C59.1424 97.6067 58.8332 97.4319 58.7525 97.1361C54.9209 82.3203 68.3653 69.696 78.3814 69.1044C86.2867 68.6473 91.8662 71.2287 94.2862 73.2319C94.703 73.568 95.308 73.1781 95.1601 72.6538C94.4475 70.2069 93.3182 68.7146 92.6325 67.9886C92.4309 67.7735 92.5518 67.4373 92.8342 67.397C94.8643 67.1416 100.565 65.824 105.983 59.1287C110.971 52.9846 111.831 47.5396 111.939 45.1061C111.952 44.7162 112.49 44.6356 112.624 44.9986C113.539 47.6874 112.167 51.9762 111.334 54.1677C111.199 54.5172 111.643 54.813 111.912 54.5441C113.539 52.9173 116.322 49.4487 116.228 44.7162C116.093 38.0209 111.374 35.9773 110.635 34.1354C110.11 32.8448 111.509 32.791 112.409 32.8717C112.745 32.8986 112.934 32.4952 112.678 32.2667C112.154 31.7692 110.957 31.0701 108.242 30.3844C105.217 29.6047 105.391 28.2468 106.023 27.2788C106.292 26.862 105.902 26.3242 105.418 26.4587C101.923 27.4401 99.7715 30.2097 101.103 30.3844C102.635 30.5861 107.973 33.5977 109.747 37.1336C111.522 40.6694 111.32 41.987 110.231 40.6963C109.142 39.4057 105.66 32.912 99.4489 33.6246C96.518 33.9607 95.2273 34.5253 94.6761 35.0228C94.2996 35.3723 94.5685 36.0042 95.066 35.9639C99.5161 35.6681 104.141 40.5888 103.872 46.5043C103.603 52.7157 98.6153 57.3674 94.1114 59.4782C89.6075 61.589 86.6632 62.9603 70.8256 63.6729C60.1507 64.1569 54.3024 67.1953 51.6404 69.1313C51.3715 69.333 51.0354 68.97 51.2505 68.7146C55.862 63.3233 64.1841 61.2126 71.0945 60.9033C79.9006 60.5134 85.1305 60.4193 91.7183 56.9372C98.8035 53.1862 99.1531 49.3142 98.817 47.4992C98.7363 47.0556 98.1985 46.8942 97.8893 47.2169C96.7734 48.3731 94.6089 49.6907 93.8425 50.1478C93.6812 50.2419 93.5871 50.4167 93.5736 50.6049C93.5467 52.0031 91.5973 52.2048 91.3284 52.2182C91.315 52.2182 91.2881 52.2182 91.2746 52.2182C86.3405 51.909 84.1222 52.3392 83.1407 52.7694C82.8046 52.9173 82.8853 53.4013 83.2483 53.4417C84.2701 53.5492 85.8027 53.8719 85.8431 54.8264C85.9103 56.265 81.4736 55.8482 81.4736 55.8482C75.2623 55.0953 72.4121 55.3777 71.108 55.7944C70.6374 55.9423 70.5971 56.5742 71.0273 56.8028C71.5516 57.0851 71.6189 57.5019 71.4306 57.838C71.1617 58.322 72.5196 58.1741 63.3774 58.0397C57.4619 57.9456 55.4049 58.7522 54.6789 59.3169C54.4369 59.5051 54.5579 59.895 54.8536 59.9353C55.7679 60.0698 56.1981 60.4462 56.1981 61.3201C56.1981 62.1268 55.3914 62.557 55.0419 62.6914C54.9477 62.7318 54.8536 62.7452 54.7595 62.7318C52.8101 62.4763 49.2339 63.5788 48.9784 63.6594C48.965 63.6594 48.965 63.6729 48.9515 63.6729C44.5955 65.3669 43.1704 67.7869 42.6999 69.2927C42.552 69.7498 43.0494 70.1531 43.4796 69.9246C44.6359 69.2927 45.5635 69.575 45.819 69.6826C45.8593 69.696 45.8996 69.7229 45.94 69.7498C49.3817 72.4925 42.1352 77.8433 42.1352 77.8433C37.9943 80.5591 37.0129 84.8344 36.865 87.7384C36.8381 88.33 37.6313 88.5317 37.9002 88.0073C38.3304 87.1335 38.8951 86.6495 39.5539 87.6712C40.4009 88.9753 40.616 92.807 40.6429 95.8858C40.6429 96.3832 40.0379 96.6252 39.7017 96.2622C39.6749 96.2219 39.6345 96.195 39.6076 96.1547C18.7284 73.3798 19.2124 38.962 40.6832 19.2793C56.2384 5.00134 78.5696 2.37967 97.6204 10.7018C97.8221 10.7959 97.9431 10.9976 97.9431 11.2127C97.9431 11.3337 97.9296 11.4681 97.9431 11.616C97.9834 15.3132 93.3182 22.7077 87.443 24.0252C85.3187 24.4958 85.1977 23.1648 87.5774 21.3767C93.9097 16.6173 91.7721 10.6883 91.4091 10.1909C91.0461 9.68 90.8444 9.20945 90.8713 10.8362C90.8982 12.7857 89.5 16.5904 84.0684 21.0137C82.7508 22.0758 82.2131 22.3447 81.393 22.4522C79.5376 22.6808 79.0805 21.7531 81.1913 20.0457C84.7137 17.182 81.5677 11.5353 81.2989 13.1621C81.0569 14.6948 81.5677 14.8292 81.0703 16.577C80.5594 18.3113 76.0017 22.5867 68.9165 23.7429C61.8179 24.8991 62.759 28.8787 62.1136 30.613C61.4683 32.3473 63.485 32.3473 63.9959 32.3473C64.5067 32.3473 66.026 31.0432 66.5234 30.8281C67.0209 30.613 71.6592 30.8953 73.044 30.5323C73.8641 30.3172 74.6573 29.7929 75.1682 29.403C75.4371 29.2013 75.8135 29.4433 75.7328 29.766C75.4909 30.7743 74.4287 31.3256 74.4287 31.3256C65.0983 36.8243 58.0669 30.7474 58.0669 30.7474C57.0451 30.0618 57.9727 28.5829 58.7929 27.5746C59.1155 27.1712 58.766 26.5931 58.2685 26.7007C56.5342 27.0502 54.2352 27.9241 53.805 29.0131C53.2672 30.3441 52.5009 30.9088 52.3799 31.0029C52.3664 31.0029 52.3664 31.0163 52.353 31.0163C49.2204 32.7776 48.2121 34.7808 47.8894 35.9773C47.7684 36.421 48.239 36.8109 48.6557 36.6092L51.3446 35.3051C51.6539 35.1572 52.0169 35.332 52.111 35.6547L52.4067 36.784C52.5143 37.2008 53.0521 37.3352 53.3344 37.0126L54.0739 36.179C54.289 35.937 54.652 35.937 54.8671 36.1656L55.7006 37.0394C55.9023 37.2411 56.225 37.268 56.4401 37.0798L57.0451 36.5689C57.2871 36.3672 57.6501 36.4076 57.8383 36.663L58.2147 37.1873C58.403 37.4562 58.7929 37.4966 59.0349 37.268L59.976 36.3672C60.1642 36.179 60.4734 36.1656 60.6885 36.3269L61.5355 36.9722C61.7506 37.1336 62.0599 37.1201 62.2481 36.9319L62.9875 36.1924C63.122 36.058 63.3236 36.0042 63.4984 36.0446C65.7302 36.5958 69.8038 36.2731 71.6323 35.1707C73.7162 33.9203 76.7412 34.2564 74.2943 35.1303C70.0727 36.6361 67.4645 40.8173 65.3 42.6323C63.122 44.4473 63.0547 44.0843 63.485 43.3583C63.7539 42.9012 64.7487 41.9332 65.4344 41.2744C65.7436 40.9787 65.6092 40.4678 65.1924 40.3602L64.8563 40.2661C64.6412 40.2123 64.3992 40.293 64.2782 40.4812L63.7404 41.2476C63.5925 41.4627 63.2967 41.5433 63.0682 41.4223L62.7321 41.261C62.4632 41.14 62.154 41.2476 62.0195 41.503L61.3607 42.7937C61.2263 43.0626 60.8902 43.1701 60.6213 43.0222L59.5861 42.471C59.2231 42.2828 58.7929 42.5382 58.7929 42.955V44.1919C58.7929 44.5146 58.5105 44.77 58.1879 44.7297L57.6904 44.6759C57.6097 44.6624 57.5291 44.6356 57.4619 44.5952L56.0905 43.7079C55.7947 43.5197 55.4452 43.8154 55.5796 44.1381C55.8082 44.6759 56.1174 45.4288 56.4939 46.3968C57.3677 48.642 54.3965 50.7393 52.3664 50.8066C50.3363 50.8738 50.3363 50.7393 50.4842 51.4519C50.6321 52.1779 56.346 52.8232 59.3172 51.4519C62.2884 50.0806 63.2967 49.8654 65.905 49.7176C68.5132 49.5697 71.6189 48.5613 68.5132 48.3462C65.4075 48.1311 65.542 46.827 65.7571 45.9531C65.9722 45.0792 73.649 40.6694 76.1765 41.0997C78.7041 41.5299 78.489 42.6458 83.4096 42.9281C88.3303 43.2239 92.6997 38.0209 92.2426 37.7923C91.1402 37.2411 91.0057 38.2629 88.3303 39.1368C85.6549 40.0107 81.9576 40.1451 83.1945 37.6848C84.4314 35.2244 87.201 36.8781 93.8156 33.1137C100.242 29.4568 101.439 22.9093 101.076 22.1161C100.74 21.3632 99.8791 22.8556 99.785 23.0438C99.785 23.0572 99.7715 23.0707 99.7715 23.0707C96.5314 30.2903 85.4666 31.5944 85.1709 30.2903C85.0095 29.5912 84.9826 29.2282 85.6145 28.7711C86.1388 28.3947 86.7439 28.1796 87.3623 27.9779C101.452 23.2186 99.1396 12.705 98.8573 11.2933C98.8573 11.2799 98.8573 11.2664 98.8573 11.2664C105.62 14.4124 111.939 18.9567 117.357 24.8588C126.15 34.4581 131.164 46.1144 132.401 57.8783C132.415 58.0531 132.347 58.2279 132.213 58.3354C122.466 66.3214 109.384 74.8318 94.3937 82.5892C94.1383 82.7237 93.8156 82.6296 93.6677 82.3741C92.8342 80.9221 91.7586 79.618 90.5083 78.529C90.3873 78.4214 90.1991 78.5425 90.2663 78.7038C91.3284 81.554 86.5019 85.8966 79.1612 80.0482C76.4992 77.924 74.2002 77.7896 72.4121 78.0719C70.8929 78.3273 69.5215 79.134 68.5401 80.3306C66.4965 82.8178 65.2327 85.9503 65.0849 89.3787C65.0714 89.5938 65.3672 89.9837 65.6226 89.0426C66.147 87.0797 67.5855 84.1622 70.7853 83.9471C81.1241 83.2346 83.6113 95.8186 92.6594 92.6591C94.9584 91.8525 95.6844 90.0912 95.7113 89.54C95.7247 89.3518 95.8323 89.177 96.0071 89.0829C96.2356 88.9619 96.4776 88.8409 96.7062 88.7199C109.64 82.0649 121.471 74.9931 131.675 67.9617C132.025 67.6928 132.536 68.002 132.495 68.4457ZM58.3626 33.7724C56.951 34.0951 55.8216 33.6649 55.8216 33.6649C55.4317 33.5573 55.6872 33.2884 55.6872 33.2884C56.0636 32.8313 56.9375 32.6028 57.1661 32.5893C57.3946 32.5759 58.04 32.67 58.5374 33.1674C59.0349 33.6649 58.3626 33.7724 58.3626 33.7724ZM138.774 52.5543C138.451 52.8636 137.913 52.6619 137.86 52.2182C136.905 43.9902 134.23 35.937 129.793 28.6501C129.591 28.314 129.793 27.8838 130.183 27.83C140.562 26.3108 147.809 27.4267 149.946 31.5944C152.326 36.2462 147.916 43.8558 138.774 52.5543Z" fill="white"/>
</svg>
