<svg width="121" height="51" viewBox="0 0 121 51" fill="none" xmlns="http://www.w3.org/2000/svg">
<path d="M41.8411 20.0742C41.8411 23.9829 38.8178 27.958 32.9682 27.958H24.8183V39.2868H21.9921V12.0578H32.9682C38.752 12.0578 41.8411 16.1654 41.8411 20.0742ZM39.1464 20.0742C39.1464 16.6291 36.1888 14.7741 33.5597 14.7741H24.8183V25.1755H33.5597C36.1888 25.2417 39.1464 23.5192 39.1464 20.0742Z" fill="white"/>
<path d="M43.1556 31.7343L40.3952 39.5518H37.5033L47.6249 12.2566H50.714L60.8357 39.5518H57.8781L55.0519 31.7343M44.0758 29.0842H54.1317L49.1366 14.9066L44.0758 29.0842Z" fill="white"/>
<path d="M80.7504 25.9705H65.3707V39.2868H62.6103V12.0578H65.3707V23.3204H80.7504V12.0578H83.4451V39.2868H80.7504" fill="white"/>
<path d="M104.543 14.7079H90.4777V39.2868H87.783V12.0578H104.543" fill="white"/>
<path d="M60.9671 50.4169C44.9302 50.4169 29.8791 47.8994 18.5744 43.2619C6.94106 38.5581 0.5 32.1318 0.5 25.2417C0.5 18.3516 6.94106 11.9253 18.5744 7.1553C29.9449 2.51777 44.9959 0.000244141 60.9671 0.000244141C77.0041 0.000244141 92.0551 2.51777 103.36 7.1553C114.993 11.8591 121.434 18.2854 121.434 25.2417C121.434 32.1318 114.993 38.5581 103.36 43.3281C92.0551 47.8994 77.0041 50.4169 60.9671 50.4169ZM60.9671 2.12026C45.1931 2.12026 30.4049 4.63778 19.3631 9.14282C14.0394 11.2628 9.83297 13.7804 6.94106 16.5629C4.04916 19.3454 2.6032 22.2604 2.6032 25.1755C2.6032 28.1567 4.04916 31.0718 6.94106 33.788C9.83297 36.5705 14.0394 39.0881 19.3631 41.2743C30.4707 45.8456 45.2588 48.2969 60.9671 48.2969C76.7412 48.2969 91.5293 45.7794 102.571 41.2743C107.895 39.0881 112.101 36.5705 114.993 33.788C117.885 31.0055 119.331 28.0905 119.331 25.1755C119.331 22.1942 117.885 19.2792 114.993 16.5629C112.101 13.7804 107.895 11.2628 102.571 9.07657C91.5293 4.63778 76.7412 2.12026 60.9671 2.12026Z" fill="white"/>
</svg>
