<svg width="31" height="30" viewBox="0 0 31 30" fill="none" xmlns="http://www.w3.org/2000/svg">
<path fill-rule="evenodd" clip-rule="evenodd" d="M20.6227 8.19025C17.1176 7.26992 13.4288 7.26992 9.92368 8.19025C8.74707 8.49912 7.84841 9.44762 7.61483 10.6271C7.20098 12.7173 7.20098 14.8672 7.61483 16.9574C7.84835 18.1368 8.74701 19.0853 9.92368 19.3945C12.0435 19.9511 14.2391 20.1735 16.4292 20.053C16.7135 20.0374 16.9934 20.13 17.211 20.3113L19.7923 22.4629C19.8396 22.5024 19.9061 22.5111 19.9622 22.4854C20.0184 22.4596 20.0545 22.4039 20.0545 22.3427V19.8442C20.0545 19.6644 20.1791 19.5066 20.3556 19.4628C20.4448 19.4407 20.5338 19.4179 20.6227 19.3945C21.7994 19.0853 22.6981 18.1368 22.9315 16.9574C23.3454 14.8672 23.3454 12.7173 22.9315 10.6271C22.698 9.44762 21.7993 8.49912 20.6227 8.19025ZM18.5935 10.2857C18.8333 10.2857 19.0277 10.4776 19.0277 10.7143V12.2143C19.0277 12.451 18.8333 12.6428 18.5935 12.6428H17.0738C16.834 12.6428 16.6396 12.8348 16.6396 13.0714V17.1428C16.6396 17.3796 16.4452 17.5714 16.2054 17.5714H14.4686C14.2288 17.5714 14.0344 17.3796 14.0344 17.1428V13.0714C14.0344 12.8348 13.84 12.6428 13.6003 12.6428H12.0806C11.8408 12.6428 11.6464 12.451 11.6464 12.2143V10.7143C11.6464 10.4776 11.8408 10.2857 12.0806 10.2857H18.5935Z" fill="white"/>
</svg>
