<svg width="31" height="30" viewBox="0 0 31 30" fill="none" xmlns="http://www.w3.org/2000/svg">
<path d="M26.7962 9.1648C26.9561 8.64079 26.7962 8.25 26.0413 8.25H23.5544C22.9238 8.25 22.6307 8.5875 22.4709 8.95164C22.4709 8.95164 21.2097 12.0336 19.4156 14.0408C18.8383 14.627 18.5719 14.8046 18.261 14.8046C18.1011 14.8046 17.8702 14.6181 17.8702 14.0941V9.1648C17.8702 8.53421 17.6837 8.25 17.1597 8.25H13.2518C12.861 8.25 12.6212 8.54309 12.6212 8.81842C12.6212 9.41349 13.5182 9.55559 13.6071 11.2431V14.9112C13.6071 15.7105 13.465 15.8615 13.1452 15.8615C12.3015 15.8615 10.2498 12.7618 9.03305 9.21809C8.80212 8.52533 8.56232 8.25 7.92285 8.25H5.43601C4.72548 8.25 4.58337 8.5875 4.58337 8.95164C4.58337 9.60888 5.42712 12.8773 8.50903 17.2026C10.5696 20.1513 13.465 21.75 16.0939 21.75C17.6748 21.75 17.8702 21.3947 17.8702 20.7819V18.5526C17.8702 17.8421 18.0212 17.7 18.5186 17.7C18.8827 17.7 19.5222 17.8865 20.9965 19.3076C22.684 20.9951 22.9594 21.75 23.9097 21.75H26.3965C27.1071 21.75 27.4623 21.3947 27.258 20.6931C27.036 19.9914 26.2278 18.9789 25.162 17.7799C24.5847 17.0961 23.7143 16.3589 23.4478 15.9859C23.0748 15.5063 23.1814 15.302 23.4478 14.8757C23.4567 14.8845 26.4853 10.6125 26.7962 9.1648Z" fill="white"/>
</svg>
