<svg width="30" height="30" viewBox="0 0 30 30" fill="none" xmlns="http://www.w3.org/2000/svg">
<path fill-rule="evenodd" clip-rule="evenodd" d="M19.7781 22.3333C20.0227 22.5059 20.3321 22.5491 20.6055 22.4412C20.886 22.3333 21.0875 22.0958 21.145 21.8081C21.7997 18.7433 23.3753 10.9949 23.9724 8.21068C24.0156 8.00205 23.9437 7.77902 23.7782 7.64233C23.6127 7.50564 23.3825 7.46247 23.181 7.53441C20.0443 8.7071 10.3607 12.3403 6.40375 13.8007C6.15195 13.8942 5.98648 14.1317 6.00087 14.3979C6.00806 14.664 6.18792 14.8943 6.44692 14.9734C8.22393 15.5058 10.5549 16.2396 10.5549 16.2396C10.5549 16.2396 11.6413 19.5274 12.2096 21.2037C12.2816 21.4124 12.447 21.5778 12.6629 21.6354C12.8787 21.693 13.1089 21.6354 13.2744 21.4771C14.1881 20.6138 15.5982 19.2828 15.5982 19.2828C15.5982 19.2828 18.2601 21.2541 19.7781 22.3333ZM11.5262 15.8295L12.7852 19.9807L13.0657 17.3475C13.0657 17.3475 17.9291 12.959 20.7062 10.4553C20.7853 10.3834 20.7997 10.2611 20.7278 10.1748C20.663 10.0884 20.5407 10.0668 20.4472 10.1244C17.2313 12.182 11.5262 15.8295 11.5262 15.8295Z" fill="white"/>
</svg>
