<svg width="28" height="20" viewBox="0 0 28 20" fill="none" xmlns="http://www.w3.org/2000/svg">
<path d="M0.0207344 10.3166C0.0207344 4.77863 4.18073 0.956625 10.4207 0.956625C16.6607 0.956625 20.8207 4.77863 20.8207 10.3166C20.8207 15.8546 16.6607 19.6766 10.4207 19.6766C4.18073 19.6766 0.0207344 15.8546 0.0207344 10.3166ZM1.60673 10.3166C1.60673 15.0486 5.09073 18.2466 10.4207 18.2466C15.7507 18.2466 19.2347 15.0486 19.2347 10.3166C19.2347 5.58463 15.7507 2.38663 10.4207 2.38663C5.09073 2.38663 1.60673 5.58463 1.60673 10.3166ZM21.0889 3.11463V1.73663L23.0649 1.21662H24.0789V19.4166H22.4929V2.75063L21.0889 3.11463ZM25.9409 19.4686V17.7006H27.7089V19.4686H25.9409Z" fill="white"/>
</svg>
