<svg width="291" height="84" viewBox="0 0 291 84" fill="none" xmlns="http://www.w3.org/2000/svg">
<g clip-path="url(#clip0_1409_3701)">
<path d="M277.279 73.1432C282.985 73.1432 287.026 72.113 290.038 69.8942V59.83C286.947 61.9696 283.222 63.3168 277.992 63.3168C269.196 63.3168 265.551 56.5017 265.551 45.7244C265.551 34.3923 269.989 28.6074 278.072 28.6074C282.826 28.6074 287.502 30.2715 289.958 31.8564V21.3961C287.343 19.9696 282.826 18.9395 276.645 18.9395C260.875 18.9395 252.713 30.2715 252.713 46.1206C252.792 63.4753 260.796 73.1432 277.279 73.1432ZM200.173 68.547V58.4829C196.37 61.0979 189.872 63.3961 183.928 63.3961C174.894 63.3961 171.487 59.1168 170.932 50.3998H200.728V43.9017C200.728 25.7545 192.724 18.9395 180.441 18.9395C165.385 18.9395 158.253 30.43 158.253 46.1998C158.253 64.347 167.207 73.1432 182.898 73.1432C190.743 73.1432 196.528 71.0036 200.173 68.547ZM87.0904 19.8904V40.4942H70.6074V19.8904H58.2451V72.113H70.6074V50.3206H87.0904V72.113H99.4527V19.8904H87.0904ZM155.162 62.2866H149.694V19.8904H113.717V24.3281C113.717 37.0866 112.924 53.5696 108.566 62.2866H104.604V83.9998H116.015V72.113H143.672V83.9998H155.083V62.2866H155.162ZM239.558 72.113H253.585L233.773 43.981L251.207 19.8904H238.766L221.332 43.981V19.8904H208.97V72.113H221.332V46.4376L239.558 72.113ZM180.124 28.6074C186.226 28.6074 188.128 33.6791 188.128 40.2564V41.2866H170.932C171.249 32.9659 174.26 28.6074 180.124 28.6074ZM137.332 62.2866H119.898C123.306 54.4413 124.256 40.1772 124.256 31.1432V29.5583H137.332V62.2866Z" fill="white"/>
<path d="M47.9434 72.1132H35.3434V9.74717H29.717C19.4151 9.74717 14.0264 14.8981 14.0264 22.5849C14.0264 31.3019 17.7509 35.3434 25.4377 40.4943L31.7774 44.7736L13.5509 72.1132H0L16.4038 47.7057C6.97359 40.9698 1.66415 34.3925 1.66415 23.2981C1.66415 9.43019 11.3321 0 29.6377 0H47.8642V72.1132H47.9434Z" fill="#FC3F1D"/>
</g>
<defs>
<clipPath id="clip0_1409_3701">
<rect width="290.83" height="84" fill="white"/>
</clipPath>
</defs>
</svg>
