<svg width="386" height="84" viewBox="0 0 386 84" fill="none" xmlns="http://www.w3.org/2000/svg">
<path d="M384.631 0.671875H0.672852V82.3652H384.631V0.671875Z" fill="#2D291E"/>
<path d="M101.4 3.57062H96.3248V23.1671H101.4V3.57062Z" fill="#5EC5EE"/>
<path d="M101.4 23.1671H96.3248V42.7636H101.4V23.1671Z" fill="#2588C3"/>
<path d="M101.4 42.7636H96.3248V62.3603H101.4V42.7636Z" fill="#045D89"/>
<path d="M101.4 62.3603H96.3248V81.9558H101.4V62.3603Z" fill="#E3EBF1"/>
<path d="M45.9385 40.2836C45.9195 40.2646 45.4634 39.7895 44.6747 39.7895C44.2565 39.7895 43.8289 39.9224 43.4012 40.1697C43.325 40.2076 43.2776 40.2931 43.2965 40.3787C43.2965 40.3977 43.6103 42.5264 43.3727 43.4389C43.1921 44.1231 42.6123 44.931 41.5574 44.931C41.3293 44.931 41.1012 44.8928 40.8542 44.8264H40.8447L41.643 44.2847C41.7 44.2466 41.738 44.1801 41.738 44.1041C41.738 44.028 41.7 43.971 41.643 43.9235L40.0558 42.8306C40.5596 42.4504 40.8731 42.1844 40.9111 42.1464C40.9588 42.1084 40.9873 42.0513 40.9873 41.9943C40.9873 41.9373 40.9683 41.8801 40.9206 41.8327L40.6356 41.5476C40.5976 41.5096 40.5406 41.4812 40.4835 41.4812C40.436 41.4812 40.3885 41.5001 40.3505 41.5286C40.3315 41.5381 39.9134 41.8612 39.2766 42.2983L38.6398 41.8612L41.1297 40.1507L41.3198 40.6448C41.3483 40.7208 41.4244 40.7777 41.5099 40.7777C41.5099 40.7777 41.5099 40.7777 41.5194 40.7777C41.5954 40.7777 41.6715 40.7303 41.7095 40.6638L42.8974 38.478C42.9355 38.4018 42.926 38.3164 42.8879 38.2499C42.8499 38.1927 42.7834 38.1548 42.7075 38.1548C42.698 38.1548 42.6883 38.1548 42.6788 38.1548L40.2269 38.5254C40.1414 38.5349 40.0748 38.5919 40.0463 38.6776C40.0273 38.7535 40.0463 38.839 40.1129 38.8961L40.512 39.2477L37.6799 41.1959L34.8573 39.2477L35.2565 38.8961C35.3134 38.839 35.3421 38.7535 35.3136 38.6776C35.2945 38.5919 35.228 38.5349 35.1425 38.5254L32.6905 38.1548C32.681 38.1548 32.6715 38.1548 32.662 38.1548C32.586 38.1548 32.5195 38.1832 32.4814 38.2499C32.4339 38.3164 32.4339 38.4018 32.4719 38.478L33.6504 40.6638C33.6884 40.7303 33.7644 40.7777 33.8405 40.7777C33.85 40.7777 33.85 40.7777 33.85 40.7777C33.9355 40.7777 34.0019 40.7208 34.0401 40.6448L34.2397 40.1507L36.7296 41.8612L36.0928 42.2983C35.4561 41.8612 35.0379 41.5381 35.0284 41.5286C34.9904 41.5001 34.9429 41.4812 34.8955 41.4812C34.8383 41.4812 34.7813 41.5001 34.7433 41.5476L34.4583 41.8327C34.4201 41.8707 34.3916 41.9278 34.3916 41.9943C34.3916 42.0513 34.4201 42.1084 34.4678 42.1464C34.5153 42.1844 34.8288 42.4504 35.3326 42.8306L33.7454 43.9235C33.6884 43.9615 33.6504 44.028 33.6504 44.1041C33.6504 44.1801 33.6884 44.2371 33.7454 44.2847L34.5437 44.8264C34.5437 44.8264 34.5437 44.8264 34.5343 44.8264C34.2872 44.8928 34.0591 44.931 33.831 44.931C32.7761 44.931 32.1868 44.1231 32.0062 43.4389C31.7686 42.5264 32.0824 40.3977 32.0824 40.3787C32.0919 40.2931 32.0537 40.2076 31.9777 40.1697C31.5406 39.9224 31.1129 39.7895 30.7042 39.7895C29.906 39.7895 29.4497 40.2551 29.4307 40.2836C29.3927 40.3121 29.3737 40.3692 29.3737 40.4072C29.3642 40.5402 29.1172 43.6098 30.5428 45.1686C31.0654 45.7387 31.7591 46.0334 32.586 46.0334C32.7286 46.0334 32.89 46.0334 33.0422 46.0049C33.85 45.9098 34.6387 45.6912 35.4086 45.4251L36.7296 46.3185L33.812 48.2952C33.7549 48.3427 33.7169 48.3998 33.7169 48.4758C33.7169 48.5423 33.7454 48.6089 33.812 48.6564L36.7391 50.6806L34.2397 52.4103L34.0496 51.9256C34.0211 51.8495 33.945 51.802 33.8595 51.7925C33.8595 51.7925 33.8595 51.7925 33.85 51.7925C33.7739 51.7925 33.6979 51.84 33.6599 51.9066L32.4814 54.0925C32.4434 54.1589 32.4529 54.2541 32.4909 54.3111C32.529 54.368 32.5955 54.406 32.6715 54.406C32.681 54.406 32.6905 54.406 32.7 54.406L35.152 54.045C35.2375 54.0355 35.3039 53.9688 35.3231 53.8929C35.3516 53.8072 35.3231 53.7218 35.266 53.6648L34.8573 53.3036L37.6894 51.3459L40.5214 53.3036L40.1129 53.6648C40.0463 53.7218 40.0273 53.8072 40.0463 53.8929C40.0653 53.9688 40.1414 54.0258 40.2269 54.045L42.6788 54.406C42.6883 54.406 42.698 54.406 42.7075 54.406C42.7739 54.406 42.8404 54.3775 42.8879 54.3111C42.9355 54.2444 42.9355 54.1589 42.8974 54.0925L41.7095 51.9066C41.6715 51.84 41.6049 51.7925 41.5194 51.7925H41.5099C41.4149 51.7925 41.3483 51.8495 41.3198 51.9256L41.1297 52.4103L38.6303 50.6806L41.5574 48.6564C41.6145 48.6184 41.6525 48.5518 41.6525 48.4758C41.6525 48.3998 41.6145 48.3427 41.5574 48.2952L38.6398 46.3185L39.9608 45.4251C40.721 45.7007 41.5099 45.9098 42.3178 46.0049C42.4794 46.0239 42.6313 46.0334 42.7739 46.0334C43.6103 46.0334 44.2945 45.7387 44.8171 45.1686C46.2428 43.6098 45.9957 40.5402 45.9862 40.4072C45.9862 40.3692 45.9672 40.3216 45.9385 40.2836ZM37.6704 42.5456L38.2976 42.9732C38.098 43.0967 37.889 43.2298 37.6704 43.3628C37.4518 43.2298 37.2427 43.1062 37.0431 42.9732L37.6704 42.5456ZM35.3896 44.1136L36.2544 43.5149C36.4255 43.6195 36.5965 43.7334 36.7865 43.8571C36.4445 44.0375 36.1023 44.2086 35.7603 44.3702L35.3896 44.1136ZM39.9039 48.4758L37.6704 50.0154L35.4466 48.4758L37.6704 46.9647L39.9039 48.4758ZM37.6704 45.6627L36.5965 44.931C36.9766 44.7504 37.3283 44.5698 37.6704 44.3797C38.0126 44.5698 38.3738 44.7504 38.7538 44.931L37.6704 45.6627ZM39.5901 44.3702C39.2481 44.2181 38.8964 44.047 38.5542 43.8571C38.7443 43.7429 38.9154 43.629 39.0865 43.5149L39.9608 44.1136L39.5901 44.3702Z" fill="white"/>
<path d="M46.6898 42.0887C46.7752 41.9176 46.8132 41.5944 46.8132 41.5944L46.6898 41.5564V42.0887Z" fill="white"/>
<path d="M74.7713 34.4763C73.859 33.9252 72.3479 33.7351 70.8084 33.8777C73.2128 33.0413 74.8568 31.2547 74.9425 29.658C73.6879 29.297 72.3859 29.4869 71.255 29.7436C72.4239 28.8693 74.3437 27.2726 74.1061 24.9251C72.9752 24.6496 70.9035 25.4384 70.0387 25.8281C72.8136 24.2694 73.8116 20.5819 72.3385 18.4913C71.4641 19.0044 67.5011 23.053 66.8549 23.5187C68.9078 21.1712 69.8676 19.489 70.4187 17.9115C71.0744 16.1913 71.1221 13.1882 68.9932 12.1808C67.9858 14.4807 64.4697 20.3824 62.5119 22.8344C62.2933 22.6443 62.1222 22.3878 61.8467 22.3401C61.381 23.8322 59.9934 25.8186 58.7295 26.7689C58.6629 26.6453 58.5394 26.3033 58.3209 25.9326C56.9809 27.9378 53.5025 30.6844 52.3811 32.3761C51.5068 33.6306 51.5068 34.7615 52.7234 35.9304C53.2175 36.4245 54.1488 37.2894 53.3411 38.5059C52.2387 40.1119 50.0244 40.302 48.8269 39.3517C48.8269 39.0667 48.8174 38.791 48.8079 38.5344C50.2238 37.9833 50.5565 36.054 49.5111 34.8565C49.283 35.2936 48.903 35.6169 48.4468 35.7783C48.3232 35.2746 48.2186 35.0371 48.2091 35.0086L48.1521 34.8945H48.0287C48.0192 34.8945 47.5533 34.866 46.8596 34.79C47.6485 34.5334 48.1521 33.8015 48.0382 32.8228C46.8216 33.8682 45.6053 32.8702 45.3295 32.5947C44.5693 31.7014 44.3507 30.6939 44.6548 29.1543C44.9115 27.8144 46.299 25.6855 47.2113 25.0013C47.3444 25.1247 47.5533 25.3815 48 25.3433C48.2567 25.2578 48.6844 25.0392 49.0075 24.9156C49.9293 24.6401 50.8226 24.8491 51.3929 25.2198C52.4381 25.8566 52.3432 26.5598 52.3147 27.073C53.9017 26.1796 53.3506 24.6875 51.2692 24.1364C52.6949 24.1364 53.8637 25.4384 54.1678 25.6C54.9567 26.1796 56.0876 26.0467 56.7433 25.733C58.0073 25.1342 58.2639 23.6421 57.9217 23.3381C57.7982 23.8704 57.3896 24.3455 56.6577 24.431C55.5744 24.5546 54.529 24.0889 53.7021 23.7183C52.9989 23.4235 51.868 23.2049 51.0981 23.2526C52.5238 22.4637 54.7381 22.5492 55.5268 23.7657C56.0019 23.3855 56.2966 23.0435 56.4296 22.2546C56.8383 20.1258 55.1752 19.0329 53.3981 19.0329C53.4456 18.5198 53.0844 18.2632 52.6092 18.4341C52.6092 18.2156 52.5523 18.0445 52.4286 17.959C52.4668 17.959 52.5238 17.94 52.5617 17.94C54.3484 17.8165 56.0401 17.2652 56.9524 16.3054C58.5489 14.5947 56.0019 12.4279 56.9144 10.7458C57.7887 11.1259 58.4348 11.6201 59.6419 11.7911C59.7653 12.0478 59.8794 12.5609 59.9174 12.8365C60.3071 14.7373 58.4348 15.0509 58.9196 17.0752C59.1287 17.997 59.8224 18.3107 60.0505 19.4036C60.0505 19.4036 60.136 20.1638 59.4707 20.8292C61.0103 20.8672 61.8182 19.5652 61.343 18.3581C61.1339 17.864 60.6016 17.3983 60.6016 16.8186C61.3905 17.864 62.0937 17.826 63.3101 17.4363C63.8614 17.2652 63.9089 18.0351 63.5668 18.6529C64.403 18.1586 64.6121 17.3508 64.6121 16.9896C64.6121 16.1343 63.9468 15.7352 63.3101 15.9062C62.9491 15.9442 62.2269 16.4384 62.1792 15.7352C62.0273 14.5187 63.9469 14.5662 63.5572 12.6085C63.3483 11.6296 62.2554 11.0879 60.5542 10.8788C60.3831 10.7077 59.9554 10.2991 59.7273 9.95693C58.796 8.40785 57.8267 7.99919 57.2469 8.3128C56.5627 8.65494 56.211 8.94956 55.6504 9.25367C55.2037 9.49127 54.7286 9.61482 54.4339 9.95693C53.6926 10.8788 54.3959 12.3043 54.7761 13.1787C55.0326 13.6919 55.6504 14.8608 55.3748 15.7352C55.0706 16.7806 53.3506 17.4363 52.3052 17.6549C52.2387 17.6549 52.1911 17.6739 52.1246 17.6739V17.2652C52.4286 16.733 52.6854 16.0963 52.8945 15.5166C53.5977 13.6349 52.5523 12.8746 51.0032 12.5134C50.8036 12.3899 50.5945 12.3424 50.3379 12.4279H50.2905L50.2525 12.7415L50.0434 12.675L50.0909 12.2948H49.9957C50.1763 12.1713 50.2525 11.9527 50.2525 11.7436C50.2525 11.5155 50.1668 11.335 50.0814 11.2114H50.2905L50.2048 11.1259C50.1668 11.0404 50.0814 10.9548 49.9483 10.8218C49.9103 10.7838 49.8628 10.6982 49.8628 10.6507C49.9008 10.6887 49.9483 10.7362 50.0339 10.7743C50.1194 10.8598 50.243 10.9453 50.2905 11.0309L50.4139 11.1164V9.39622L50.2905 9.50076C50.2525 9.53878 50.1194 9.62431 50.0339 9.71934C49.9483 9.80488 49.9103 9.80488 49.8628 9.8429C49.8628 9.80488 49.9008 9.75736 49.9483 9.67183C50.0814 9.5863 50.1668 9.46276 50.2048 9.39622L50.2905 9.26317H48.5418L48.6273 9.39622C48.7129 9.45325 48.8174 9.5863 48.903 9.67183C48.941 9.75736 48.9885 9.80488 49.0264 9.8429C48.979 9.80488 48.903 9.80488 48.8553 9.71934C48.7034 9.63381 48.6273 9.54828 48.5418 9.50076L48.4753 9.39622V11.1449L48.5608 11.0594C48.6463 10.9738 48.7319 10.8883 48.8743 10.8028C48.922 10.7648 48.998 10.7172 49.0454 10.6792C48.998 10.7172 48.96 10.8028 48.922 10.8503C48.8363 10.9833 48.7224 11.0594 48.6463 11.1544L48.5608 11.2399H48.8363C48.6844 11.3635 48.6463 11.544 48.6463 11.7721C48.6463 11.9812 48.7319 12.1998 48.8743 12.3233H48.8363L48.8743 12.7035L48.6463 12.77L48.5988 12.4564H48.5608C48.3042 12.3709 48.0951 12.4184 47.924 12.5419C46.3465 12.9031 45.301 13.6729 46.0045 15.5451C46.2229 16.1248 46.4796 16.7616 46.7931 17.2938V17.5694C45.2156 17.0562 42.374 15.3265 41.6138 14.2811C41.5282 14.1766 41.4617 14.091 41.4237 14.0245H41.4142L41.4427 12.8936C41.9938 11.9717 42.4881 10.8408 42.8681 9.80488C43.8661 7.09633 42.393 5.9654 40.0552 5.49973C39.8177 5.32866 39.5229 5.24313 39.1334 5.37618L39.0478 5.80385L38.5537 5.76583L38.5916 5.21462C38.5252 5.23363 38.4395 5.23363 38.3541 5.23363C38.6868 5.06257 38.9244 4.65391 38.9244 4.23575C38.9244 3.93163 38.7722 3.57049 38.5157 3.39942H38.9244C38.6868 3.19033 38.3066 2.74367 38.2306 2.43956C38.5252 2.52509 38.9718 2.92424 39.1809 3.14282V0.928473C38.9718 1.09954 38.5252 1.5272 38.2306 1.56522C38.3066 1.31812 38.6868 0.890459 38.9244 0.671875H36.71C36.881 0.890459 37.3086 1.31812 37.3468 1.56522C37.09 1.5272 36.6624 1.09954 36.4248 0.928473V3.14282C36.6624 2.92424 37.0805 2.52509 37.3468 2.43956C37.3086 2.73416 36.881 3.18084 36.71 3.39942H37.09C36.8335 3.57049 36.71 3.93163 36.71 4.23575C36.71 4.65391 36.9191 5.07206 37.2611 5.23363C37.1757 5.23363 37.09 5.23363 36.9571 5.19561L37.0046 5.74682L36.5104 5.78484L36.463 5.35717C36.0828 5.23363 35.7882 5.31917 35.5315 5.48072C33.2127 5.95591 31.7396 7.07734 32.7376 9.78587C33.0796 10.8218 33.5739 11.9622 34.163 12.8746V14.0435C34.125 14.0815 34.0775 14.1671 33.9919 14.2526C33.2507 15.298 30.3901 17.0277 28.8126 17.5409V17.2652C29.1263 16.733 29.3924 16.0963 29.6014 15.5166C30.3047 13.6349 29.2592 12.8746 27.6817 12.5134C27.5011 12.3899 27.3015 12.3424 27.0449 12.4279H27.0069L26.9595 12.7415L26.7504 12.675L26.7884 12.2948H26.7504C26.8738 12.1713 26.9595 11.9527 26.9595 11.7436C26.9595 11.5155 26.9215 11.335 26.7884 11.2114H27.0449L26.9595 11.1259C26.8738 11.0404 26.7884 10.9548 26.7029 10.8218C26.6647 10.7838 26.5983 10.6982 26.5508 10.6507C26.5983 10.6887 26.7029 10.7362 26.7409 10.7743C26.8643 10.8598 26.95 10.9453 27.0449 11.0309L27.1306 11.1164V9.39622L27.0449 9.50076C26.9595 9.53878 26.8738 9.62431 26.7409 9.71934C26.7029 9.80488 26.5983 9.80488 26.5508 9.8429C26.5983 9.80488 26.6552 9.75736 26.7029 9.67183C26.7884 9.5863 26.8738 9.46276 26.9595 9.39622L27.0449 9.26317H25.2963L25.3819 9.39622C25.4199 9.45325 25.5338 9.5863 25.6195 9.67183C25.7049 9.75736 25.7429 9.80488 25.7429 9.8429C25.7144 9.79538 25.667 9.79538 25.591 9.70985C25.4864 9.62431 25.3534 9.53878 25.3153 9.49127L25.1823 9.38672V11.1354L25.3153 11.0499C25.3534 10.9643 25.4864 10.8788 25.591 10.7933C25.6765 10.7552 25.7144 10.7077 25.7524 10.6697C25.7524 10.7077 25.7144 10.7933 25.629 10.8408C25.5433 10.9738 25.4294 11.0499 25.3914 11.1449L25.3058 11.2304H25.5338C25.4294 11.354 25.3342 11.5345 25.3342 11.7626C25.3342 11.9717 25.4199 12.1903 25.6195 12.3138H25.5338L25.5815 12.694L25.3439 12.7605L25.3058 12.4469H25.2583C25.0017 12.3614 24.7926 12.4089 24.6215 12.5324C23.044 12.8936 21.9985 13.6634 22.7019 15.5356C22.9205 16.1153 23.1771 16.752 23.4906 17.2843V17.6929C23.4242 17.6929 23.3672 17.6739 23.3195 17.6739C22.2743 17.4553 20.5256 16.7996 20.2311 15.7542C19.9553 14.8798 20.5731 13.7109 20.8297 13.1977C21.2383 12.3233 21.9226 10.8978 21.2003 9.97595C20.8771 9.63381 20.4115 9.51027 19.9553 9.27268C19.4042 8.97806 19.062 8.67395 18.3588 8.33181C17.7981 8.0182 16.8477 8.41734 15.8784 9.97595C15.6693 10.3181 15.2227 10.7172 15.0421 10.8978C13.36 11.1069 12.2766 11.6391 12.039 12.6275C11.6493 14.5852 13.5691 14.5472 13.4455 15.7542C13.398 16.4574 12.6567 15.9632 12.3146 15.9252C11.6493 15.7542 10.9936 16.1533 10.9936 17.0086C10.9936 17.3698 11.2312 18.1776 12.039 18.6719C11.6969 18.054 11.7349 17.2843 12.3146 17.4553C13.531 17.845 14.2058 17.883 15.0041 16.8376C15.0041 17.4078 14.4909 17.883 14.2628 18.3771C13.7876 19.5937 14.5764 20.8862 16.135 20.8482C15.4317 20.1829 15.5743 19.4226 15.5743 19.4226C15.7929 18.3297 16.4771 18.016 16.7052 17.0942C17.1804 15.0699 15.2987 14.7563 15.7073 12.8556C15.7453 12.5799 15.8309 12.0668 15.9639 11.8102C17.1804 11.6391 17.8456 11.1544 18.6915 10.7648C19.5658 12.4469 17.0473 14.6137 18.6533 16.3244C19.5753 17.2843 21.2763 17.8355 23.044 17.959C23.0819 17.959 23.1391 17.978 23.1866 17.9875C23.063 18.0731 22.9965 18.2346 22.9965 18.4533C22.5308 18.2822 22.1696 18.5387 22.2363 19.0519C20.402 19.0519 18.7864 20.1448 19.1856 22.2736C19.3091 23.0625 19.6133 23.4045 20.1074 23.7847C20.8771 22.5684 23.0914 22.4827 24.5361 23.2716C23.7472 23.2241 22.6163 23.4427 21.9226 23.7372C21.1052 24.0984 20.0695 24.5736 18.986 24.45C18.2353 24.3645 17.8551 23.8989 17.7031 23.3571C17.3609 23.6613 17.6175 25.1437 18.8911 25.752C19.5277 26.0657 20.6585 26.1986 21.4474 25.619C21.7515 25.4479 22.9205 24.1554 24.3555 24.1554C22.2838 24.7065 21.704 26.1986 23.329 27.0919C23.2625 26.5788 23.1866 25.8756 24.2223 25.2388C24.8021 24.8776 25.7144 24.6591 26.6173 24.9346C26.931 25.0582 27.3586 25.2768 27.6152 25.3623C28.0619 25.4004 28.271 25.1437 28.4039 25.0203C29.3257 25.7045 30.6657 27.8333 30.9604 29.1733C31.2835 30.7129 31.0459 31.7109 30.2762 32.6137C30.0196 32.8892 28.7841 33.8872 27.5772 32.8418C27.4631 33.8205 27.9667 34.5429 28.7556 34.809C28.0524 34.885 27.5772 34.9134 27.5677 34.9134H27.4441L27.3966 35.0276C27.3871 35.0466 27.2825 35.2936 27.1496 35.7878C26.7124 35.6169 26.3322 35.3031 26.1041 34.866C25.0587 36.0635 25.3819 37.9833 26.7884 38.5344C26.7789 38.8005 26.7694 39.0762 26.7694 39.3707C25.5625 40.302 23.3767 40.1025 22.2933 38.5059C21.4569 37.2894 22.4167 36.415 22.892 35.9304C24.1084 34.7615 24.1084 33.6306 23.2246 32.3761C22.0937 30.6939 18.6248 27.9378 17.2849 25.9326C17.0663 26.2938 16.9428 26.6358 16.8953 26.7689C15.6408 25.8186 14.2343 23.8322 13.7686 22.3401C13.512 22.3783 13.322 22.6443 13.1034 22.8344C11.1647 20.3824 7.62938 14.4807 6.63152 12.1808C4.52175 13.1882 4.55977 16.1913 5.206 17.9115C5.77621 19.489 6.73606 21.1712 8.7603 23.5187C8.12358 23.0435 4.16062 19.0044 3.28631 18.4913C1.82277 20.5819 2.82064 24.2694 5.58614 25.8281C4.74033 25.4384 2.64957 24.6496 1.51866 24.9251C1.30958 27.2726 3.20077 28.8693 4.36971 29.7436C3.22928 29.4869 1.92731 29.297 0.672852 29.658C0.758384 31.2547 2.42149 33.0508 4.75934 33.8777C3.2673 33.7256 1.75625 33.9252 0.834411 34.4763C1.00547 36.1395 2.88716 37.5746 5.13948 37.9166C3.62842 38.0877 2.28844 38.753 1.58518 39.6653C2.41198 40.7487 3.62842 41.5851 5.48161 41.5471C5.05394 41.6992 4.55977 41.9937 4.14161 42.3929C4.09409 42.3549 4.00856 42.3075 3.93254 42.3075C3.83751 42.3454 3.80899 42.4784 3.83751 42.564C3.83751 42.564 3.83751 42.564 3.83751 42.6305C3.65695 42.7541 3.5619 42.906 3.54289 43.0582C3.37184 43.3052 3.19128 43.5903 3.09623 43.847C3.14374 43.866 3.18176 43.9135 3.21978 43.9325C3.21027 44.0656 3.24829 44.227 3.35283 44.3886C3.2673 44.4743 3.22928 44.5977 3.18176 44.7309L2.09836 44.2937C2.04135 45.282 2.25994 46.0898 2.75411 46.5935C3.14374 47.0401 3.59042 46.9737 3.45737 47.1258L4.6358 47.848C4.84487 48.2946 5.27252 48.2946 5.56713 48.1712C5.56713 48.1712 5.56713 48.2092 5.56713 48.2567C5.56713 48.7223 5.89025 49.1025 6.30841 49.2546C6.22287 49.6441 6.39394 49.8912 6.92614 50.0718L11.3547 60.811C11.1837 61.3241 11.3547 61.7708 11.7444 61.9419C11.6493 62.0655 11.5733 62.1985 11.5733 62.455C11.7444 62.3316 12.001 62.2841 12.1245 62.6451C12.21 62.9017 11.7444 63.7285 12.4476 64.2893C12.3526 64.7835 12.6187 65.2871 13.1224 65.5057C13.1224 65.7624 13.36 66.5891 13.398 66.8839C13.0844 67.3305 12.3526 68.0147 12.4476 68.7654C12.5332 69.2978 12.7422 69.4689 13.1699 69.6018C12.9988 70.5618 13.531 70.9894 14.3388 71.0369C14.3388 71.7401 14.9946 71.9872 15.4222 72.0347C15.8309 72.3389 16.0019 72.4624 16.4676 72.7001C16.04 73.2038 16.3441 73.869 17.1233 74.0876C17.2089 74.3821 17.4275 74.6389 17.8646 74.7433C18.1212 75.171 18.5869 75.171 18.8624 75.0474C19.0335 74.9619 19.3377 74.4678 19.0715 74.0401C19.2426 73.831 19.1571 73.4223 19.0335 73.1658C19.2901 72.7001 19.0715 72.1203 18.72 71.9492C18.7675 71.6927 18.6343 71.284 18.5489 71.0369C19.1666 70.6472 19.9363 70.1626 20.2119 69.9915C21.723 68.9081 23.4337 67.9388 25.3724 67.8152C25.8665 67.7677 26.7789 67.7297 27.292 67.7677C28.0809 67.8531 29.1643 68.0907 29.801 67.5966C30.0004 67.4729 30.1241 67.2544 30.0861 67.0453C30.0006 66.5511 29.4683 66.1235 29.2972 65.6863C29.2497 65.5534 29.1738 65.3538 29.0881 65.1732C29.6394 65.2681 30.1526 65.1922 30.4663 65.04C30.8083 64.9166 31.6352 64.2988 31.5972 63.377C30.9319 63.6906 29.3352 64.1182 29.1643 62.5027C28.9932 61.0771 30.2477 59.8605 32.2148 60.3928C33.5547 60.7349 35.5125 63.5861 33.7258 64.831C32.8515 65.4297 31.5115 66 31.6826 67.5586C32.2529 66.8554 33.0226 66.5132 34.0206 66.5986C32.557 67.682 31.4261 67.8152 29.8865 68.642C28.5465 69.4307 27.5486 70.7329 26.4938 70.7709C25.6859 70.8088 25.2393 69.8489 26.0282 69.1077C25.2393 68.9365 24.1939 69.5543 23.8993 70.3812C23.5191 71.5121 23.8138 72.3199 24.5171 72.7761C23.5668 73.2892 22.8539 74.2872 23.1961 75.7126C23.5191 76.8817 24.6882 76.8817 24.2415 78.3738C24.8973 78.2027 25.3247 77.756 25.5148 77.1192C25.6005 76.6726 25.6859 76.2069 25.9045 75.9883C25.8096 76.8817 26.3227 78.2027 27.5486 78.8014C28.3754 79.2101 29.6774 79.3715 30.6754 78.3358C31.0839 79.5047 32.462 80.5121 33.8969 80.4645C34.5527 80.4645 35.1989 80.1794 35.6836 79.8943C36.0258 80.7592 36.9001 81.643 37.7648 82.0612C38.6581 81.643 39.5324 80.7592 39.8936 79.8943C40.3688 80.1889 41.0245 80.4645 41.6613 80.4645C43.0392 80.5026 44.4934 79.5047 44.8829 78.3358C45.8808 79.3715 47.1828 79.2101 48.0097 78.8014C49.226 78.2027 49.7392 76.8817 49.6537 75.9883C49.8818 76.2069 49.9672 76.6726 50.0624 77.1192C50.2335 77.756 50.6515 78.2027 51.3167 78.3738C50.8701 76.8817 52.0676 76.8817 52.3622 75.7126C52.7044 74.2872 52.001 73.2797 51.0602 72.7761C51.7444 72.3294 52.0676 71.5216 51.6589 70.3812C51.3644 69.5543 50.319 68.9365 49.5301 69.1077C50.319 69.8489 49.8913 70.8088 49.0644 70.7709C48.0192 70.7329 47.0212 69.4212 45.6717 68.642C44.1417 67.8057 43.0108 67.682 41.5377 66.5986C42.5356 66.5132 43.3243 66.8554 43.8756 67.5586C44.0467 66 42.7067 65.4297 41.8324 64.831C40.0647 63.5861 42.0035 60.7349 43.372 60.3928C45.3105 59.8605 46.5935 61.0771 46.394 62.5027C46.1849 64.1277 44.6263 63.7001 43.9231 63.377C43.9231 64.2893 44.7499 64.9071 45.092 65.04C45.4911 65.2301 46.2325 65.3348 46.8881 65.0495C46.8691 65.2112 46.8406 65.3823 46.8406 65.4297C46.7077 66.8172 45.9663 66.9408 46.2229 67.5111C46.5841 67.9388 48.9695 67.8531 49.6157 67.9863C50.7466 68.1384 51.7064 68.5564 52.7898 68.7751C54.0064 69.0317 55.2987 69.0317 56.3916 69.4784C57.0948 69.7824 57.8837 70.3527 58.5679 70.6947C59.6134 70.8658 59.4423 71.2935 60.1075 71.2935C60.7063 71.2935 60.9344 70.7803 61.7041 70.5713C62.2364 70.4476 62.835 70.6567 63.3673 70.4856C63.7568 70.4002 63.9279 70.001 64.2891 69.7824C64.7167 69.5258 65.3153 69.5258 65.7145 69.1551C65.9236 68.965 65.9711 68.604 65.9331 68.3475L65.9426 68.4044C66.7599 67.8341 67.3777 66.9978 67.7197 66.038C67.9288 66 68.0999 65.8099 68.0999 65.5913C68.0999 65.5534 68.0999 65.5057 68.0999 65.5057C68.309 65.3348 68.4419 65.078 68.4419 64.8215C68.4419 64.4984 68.3185 64.2419 68.0999 64.0328C68.0999 64.0328 68.0999 63.9851 68.0999 63.9471C68.0999 63.776 68.0145 63.6526 67.9288 63.5385C67.5868 61.6853 66.1802 60.1932 64.365 59.7276C64.365 59.6801 64.365 59.6801 64.365 59.642H64.327C64.327 59.5565 64.2891 59.509 64.2226 59.509C63.9658 59.2524 63.6618 58.8533 63.6238 58.5967C63.9184 58.6822 64.4125 59.1478 64.6691 59.3379V56.886C64.4125 57.0761 63.9279 57.5418 63.6238 57.6272C63.6618 57.3232 64.1275 56.7909 64.365 56.5818H61.8752C62.1032 56.7909 62.5784 57.3232 62.6164 57.6272C62.3218 57.5418 61.8277 57.0761 61.5806 56.886V59.3379C61.8372 59.1478 62.3218 58.6822 62.6164 58.5967C62.5784 58.9007 62.1032 59.4329 61.8752 59.642L61.9606 59.6801C60.1075 60.1078 58.6154 61.6474 58.2734 63.5385C58.1498 63.6431 58.0643 63.776 58.0643 63.9471C58.0643 63.9851 58.0643 64.0328 58.0643 64.0328C57.8457 64.2419 57.7221 64.4984 57.7221 64.8215C57.7221 65.0685 57.8457 65.3348 58.0643 65.5057C58.0643 65.5057 58.0643 65.5439 58.0643 65.5913C58.0643 65.8669 58.2354 66 58.4443 66.038C58.53 66.2756 58.6344 66.5132 58.7485 66.7222C58.7485 66.7032 58.7485 66.7032 58.777 66.6748C58.6249 67.378 57.7696 67.8057 57.5797 67.8057C56.0591 68.0242 54.3769 67.378 52.8468 66.8077C52.1721 66.5511 51.2503 66.2566 50.8036 65.5913C50.528 65.1067 50.4044 64.8025 50.547 64.3748C50.7181 64.5839 50.9937 64.8215 51.3834 65.0306C51.4214 64.8215 51.4214 64.5839 51.5068 64.4128C51.8965 64.9926 52.5143 65.2871 53.2555 65.2491C52.8088 64.8689 52.5997 63.8617 52.8088 62.9873C53.4266 64.0328 55.7738 64.2419 56.2015 62.3696C55.3272 62.7783 54.7666 62.3316 54.605 61.8564C54.3484 61.1056 55.2037 59.2904 54.4339 57.8933C53.8163 56.848 53.1129 56.2113 51.4783 55.9545C51.602 55.7549 51.6494 55.584 51.6874 55.2893C50.1763 55.8406 48.8743 55.4129 48.2567 54.2059C48.5608 54.3295 48.998 54.377 49.4256 54.377C48.0856 53.2841 48.1711 50.1954 49.1311 48.5987C49.2545 48.5132 49.302 48.4278 49.4256 48.3898C49.7202 48.9884 50.5945 48.9884 51.0412 49.4732C51.2123 49.3021 51.2977 49.2546 51.4688 49.112C51.4688 49.112 51.5068 51.6495 51.6779 52.6948C51.849 53.8638 52.9799 53.7402 53.5597 54.2535C54.2439 53.5026 55.4793 53.5406 55.2892 52.2481C55.1183 50.9556 54.8615 49.7772 54.8235 48.9029C55.2037 49.6918 55.9544 52.6568 56.2492 53.5026C56.7338 54.7572 57.9502 54.377 58.6344 54.8711C59.0811 53.9968 60.212 53.7402 59.7653 52.4192C59.6419 52.0772 57.7887 48.1807 57.513 47.4298C58.1687 48.3898 59.9649 51.8205 60.5162 52.7804C61.1339 53.7782 62.2648 53.2936 63.0725 53.5406C63.2246 52.8184 64.3176 51.9821 63.5192 50.7275C62.5214 49.0645 60.174 46.1658 60.0505 45.7571C60.5162 46.2038 64.1559 50.7275 64.441 50.9746C65.2868 51.716 66.5224 51.1457 67.2541 51.1457C67.2541 50.3189 67.9098 49.3781 66.9595 48.4183C66.0852 47.5819 64.08 46.1563 63.6523 45.6717C64.9923 46.5935 66.5698 48.0571 67.5106 48.2946C69.1738 48.7223 69.7724 48.0571 70.3902 47.8005C69.8771 46.2894 70.5613 45.5862 67.045 44.1131C70.0862 45.1965 71.4356 44.6642 72.5191 43.8089C72.0914 42.7254 71.008 41.8131 70.1241 41.5091C71.9867 41.5471 73.2223 40.7202 74.0301 39.6273C73.3459 38.715 71.9867 38.0497 70.4282 37.8786C72.7281 37.5651 74.5623 36.1395 74.7713 34.4763ZM4.22714 45.6432C4.18912 45.6432 4.18912 45.6812 4.14161 45.7286C3.88503 45.6906 3.88503 45.3866 3.93254 45.13C4.05608 45.13 4.14161 45.0919 4.22714 45.0064L4.26516 45.0539L4.14161 45.1395C4.18912 45.301 4.18912 45.4721 4.22714 45.6432ZM5.06345 47.4298L4.6453 47.1827C4.81637 46.9832 4.97792 46.9832 5.14899 47.0973C5.14899 47.2207 5.14899 47.3443 5.06345 47.4298ZM6.3179 44.7688C6.26089 44.7688 6.20386 44.7688 6.14685 44.7688C6.13734 44.7593 6.12784 44.7404 6.11833 44.7309C6.19437 44.7119 6.2799 44.7119 6.34643 44.6927C6.34643 44.7119 6.32742 44.7404 6.3179 44.7688ZM30.4853 75.9027C29.4398 75.9027 28.6986 75.247 29.2307 74.3251C29.5063 74.7433 30.0576 74.9334 30.5327 74.9809C30.4853 75.4181 30.4853 75.5417 30.4853 75.9027ZM46.3845 74.3251C46.9168 75.247 46.1754 75.9027 45.1301 75.9027C45.1301 75.5417 45.1301 75.4181 45.0445 74.9809C45.5291 74.9429 46.0994 74.7623 46.3845 74.3251ZM30.4473 17.9115C32.8325 17.3983 35.2654 16.0583 36.3583 14.9273C37.2611 14.9844 38.43 14.9939 39.3139 14.9369C40.3878 16.0773 42.7827 17.3888 45.1776 17.902C43.7901 17.902 41.3667 17.7785 41.0625 17.4363C41.1482 18.3107 43.0013 19.2989 44.2176 19.5652C43.2104 19.6886 42.2791 19.5652 41.4902 19.204C41.9179 19.8217 42.412 20.2874 43.2199 20.563C42.374 21.6084 40.6254 22.2831 38.8959 22.1215C39.3233 22.6348 40.1122 22.9579 40.7965 22.8629C39.2379 25.3433 38.088 27.8903 37.8124 30.8365H37.8029V30.846C37.5462 27.8903 36.3963 25.3433 34.8472 22.8629C35.5505 22.9484 36.3203 22.6348 36.7195 22.1215C34.9709 22.2926 33.2887 21.6084 32.4143 20.563C33.2317 20.2874 33.7163 19.8217 34.144 19.204C33.3743 19.5652 32.4143 19.6886 31.4166 19.5652C32.6329 19.2894 34.5052 18.3107 34.5907 17.4363C34.2581 17.7879 31.8347 17.9115 30.4473 17.9115ZM8.57973 44.1321C8.36115 44.227 8.09505 44.3412 7.89548 44.4266C7.89548 44.4076 7.89548 44.3886 7.89548 44.3697C8.10457 44.2842 8.37066 44.208 8.57973 44.1321ZM23.9183 55.2988C23.9658 55.5935 24.0039 55.7646 24.1274 55.964C22.4834 56.2208 21.7896 56.8575 21.1909 57.9028C20.3545 59.3094 21.2288 61.1245 20.9913 61.8659C20.8202 62.3316 20.2785 62.7877 19.4042 62.3791C19.8319 64.2609 22.1696 64.0423 22.7874 62.9968C22.9965 63.8712 22.7874 64.8786 22.3597 65.2586C23.0914 65.2966 23.7092 65.0021 24.0894 64.4223C24.1749 64.5934 24.1749 64.831 24.2128 65.04C24.6215 64.831 24.8781 64.5934 25.0492 64.3843C25.1158 64.5934 25.1918 65.0875 25.0967 65.4867C24.7831 65.6958 24.4314 65.8954 23.8803 66.1806C23.006 66.6083 21.4094 67.2259 20.4971 67.3495C19.7462 67.4729 18.4442 67.0453 18.1117 66C17.8076 65.0021 16.9808 64.679 16.325 65.2966C16.154 65.1732 15.6883 65.078 15.4887 65.3918C15.4887 65.3918 15.2797 64.9166 15.0231 64.6885C15.1941 64.1752 15.0611 63.5574 14.5954 63.3484C14.5574 62.3411 13.9397 62.3411 13.7211 61.9989C13.5976 61.7898 13.5976 61.5237 13.8922 61.4858C13.7686 61.2957 13.5025 61.2577 13.4645 61.2577C13.55 60.83 13.417 60.2977 12.8468 60.1268L7.79095 49.6918C8.11406 49.3496 7.94299 48.8554 7.58187 48.6843C7.58187 48.6843 7.58187 48.6464 7.58187 48.5987C7.61037 48.5132 7.61989 48.4563 7.62938 48.3898C7.76243 48.3706 7.9335 48.3326 8.07604 48.2946C9.07391 48.0571 10.6325 46.5935 11.982 45.6717C11.5068 46.1658 9.54909 47.5914 8.67476 48.4183C7.85748 49.2259 8.1996 50.0338 8.33264 50.7655L8.5227 51.1742C9.26398 51.2219 10.3759 51.6685 11.2027 50.9841C11.4593 50.7275 15.1086 46.2038 15.5933 45.7666C15.4032 46.1753 13.1034 49.074 12.058 50.737C11.2882 51.9916 12.4191 52.8184 12.5522 53.5501C13.379 53.2936 14.5099 53.7877 15.1086 52.7899C15.6883 51.83 17.456 48.3993 18.1117 47.4393C17.8551 48.1902 15.9829 52.0867 15.8499 52.4287C15.4032 53.7497 16.5341 54.0063 16.9808 54.8806C17.665 54.3865 18.8911 54.7762 19.3662 53.5121C19.6608 52.6663 20.4115 49.7013 20.8012 48.9124C20.7537 49.7867 20.4971 50.9651 20.326 52.2576C20.1549 53.5596 21.3715 53.5121 22.0082 54.263C22.6258 53.7497 23.7567 53.8733 23.9278 52.7043C24.0989 51.659 24.1369 49.1215 24.1369 49.1215C24.308 49.2736 24.3934 49.3116 24.5835 49.4827C25.0017 48.9884 25.8855 48.9884 26.1801 48.3993C26.3132 48.4373 26.3512 48.5227 26.4843 48.6084C27.4441 50.2049 27.5201 53.2936 26.1801 54.3865C26.5698 54.3865 27.0544 54.339 27.3491 54.2154C26.7599 55.4224 25.4389 55.8501 23.9183 55.2988ZM33.3648 69.8965C32.576 70.9799 31.9582 71.7686 31.4451 73.1183C30.5233 73.0326 30.7039 71.9017 30.9984 71.3315C31.6162 70.2006 34.125 68.7275 35.389 67.2544C34.8283 68.1953 34.0491 69.0507 33.3648 69.8965ZM36.0923 71.9017C35.5791 73.8975 35.2179 76.8437 35.389 78.1647C33.6214 77.2429 34.6192 73.6884 35.3034 72.1583C36.2539 70.0295 36.9191 67.4255 37.1377 65.7624C37.6888 67.0263 36.463 70.5523 36.0923 71.9017ZM40.2263 78.1647C40.3973 76.8437 40.0552 73.8975 39.5229 71.9017C39.1524 70.5523 37.9359 67.0263 38.4777 65.7624C38.6868 67.4255 39.352 70.02 40.3118 72.1583C40.996 73.6884 41.9938 77.2429 40.2263 78.1647ZM44.6168 71.322C44.921 71.9017 45.092 73.0231 44.1702 73.1086C43.657 71.7591 43.0393 70.9799 42.2791 69.887C41.5663 69.0507 40.787 68.1858 40.2263 67.2449C41.4807 68.7275 43.999 70.1911 44.6168 71.322ZM44.3982 56.0687C42.089 60.5544 37.8599 64.2037 37.8124 64.1562C37.7648 64.2132 33.5358 60.5544 31.2265 56.0687C28.9172 51.5924 27.4346 44.5503 27.3586 41.1859C27.273 37.8217 27.9382 36.3866 27.9382 36.3866C27.9382 36.3866 30.8273 36.2249 33.1367 35.4268C35.0943 34.752 37.2232 33.0318 37.8219 32.528C38.4205 33.0318 40.5494 34.7425 42.5166 35.4268C44.8164 36.2346 47.7055 36.3866 47.7055 36.3866C47.7055 36.3866 48.3612 37.8312 48.2757 41.1859C48.1806 44.5503 46.6982 51.5924 44.3982 56.0687Z" fill="white"/>
<path d="M123.496 45.5959C124.95 45.2822 126.537 45.0636 128.257 44.9496C129.977 44.826 131.66 44.769 133.332 44.769C135.1 44.769 136.896 44.9211 138.711 45.2347C140.536 45.5484 142.19 46.1185 143.682 46.9548C145.174 47.7912 146.39 48.9411 147.35 50.4142C148.3 51.8873 148.785 53.7881 148.785 56.1068C148.785 58.2927 148.348 60.1554 147.483 61.695C146.618 63.2346 145.459 64.4986 144.024 65.4679C142.589 66.4374 140.935 67.1501 139.082 67.5968C137.229 68.0434 135.309 68.2715 133.332 68.2715C133.123 68.2715 132.8 68.262 132.372 68.243C131.935 68.224 131.489 68.205 131.023 68.1955C130.557 68.1765 130.101 68.148 129.673 68.1196C129.236 68.0814 128.923 68.0529 128.713 68.0149V81.6432H123.515V45.5959H123.496ZM133.484 49.3403C132.543 49.3403 131.641 49.3593 130.757 49.3877C129.873 49.4257 129.189 49.5114 128.704 49.6443V63.4342C128.875 63.5007 129.16 63.5483 129.559 63.5673C129.958 63.5863 130.377 63.6053 130.804 63.6433C131.241 63.6813 131.65 63.6908 132.049 63.6908C132.448 63.6908 132.753 63.6908 132.962 63.6908C134.206 63.6908 135.442 63.5958 136.659 63.4057C137.875 63.2156 138.968 62.8544 139.966 62.3033C140.954 61.752 141.752 60.9918 142.361 59.9938C142.969 59.0056 143.273 57.7226 143.273 56.1448C143.273 54.7763 142.978 53.6549 142.389 52.7616C141.8 51.8778 141.04 51.1746 140.099 50.6613C139.167 50.1481 138.112 49.7964 136.953 49.6063C135.784 49.4354 134.625 49.3403 133.484 49.3403Z" fill="white"/>
<path d="M149.972 68.0146C149.972 65.7621 150.267 63.7379 150.856 61.9512C151.445 60.1644 152.31 58.6438 153.46 57.399C154.601 56.1539 155.998 55.1942 157.651 54.5384C159.295 53.8825 161.177 53.5499 163.297 53.5499C165.511 53.5499 167.459 53.9111 169.122 54.6429C170.785 55.3746 172.173 56.382 173.285 57.684C174.397 58.986 175.214 60.5066 175.756 62.2648C176.298 64.0134 176.564 65.9332 176.564 68.0146C176.564 70.2289 176.259 72.2246 175.651 73.9922C175.043 75.7599 174.178 77.271 173.047 78.516C171.916 79.761 170.529 80.7208 168.885 81.3766C167.241 82.0323 165.378 82.3651 163.297 82.3651C161.006 82.3651 159.029 82.0038 157.366 81.2721C155.703 80.5402 154.325 79.5425 153.232 78.2595C152.139 76.9764 151.322 75.4559 150.79 73.7072C150.239 71.9585 149.972 70.0578 149.972 68.0146ZM155.171 68.0146C155.171 69.2976 155.313 70.5519 155.608 71.7874C155.903 73.023 156.368 74.1159 157.024 75.0947C157.68 76.0736 158.516 76.8433 159.543 77.4326C160.569 78.0219 161.833 78.3164 163.344 78.3164C168.685 78.3164 171.356 74.8856 171.356 68.0241C171.356 66.6744 171.213 65.3724 170.918 64.1181C170.624 62.873 170.168 61.7706 169.531 60.8201C168.894 59.8698 168.067 59.1002 167.041 58.5014C166.015 57.9121 164.779 57.6175 163.344 57.6175C160.674 57.6175 158.649 58.4729 157.262 60.1931C155.865 61.8941 155.171 64.5076 155.171 68.0146Z" fill="white"/>
<path d="M202.765 79.761C201.549 80.6259 200.131 81.2816 198.497 81.7093C196.863 82.1465 195.152 82.3651 193.346 82.3651C191.056 82.3651 189.107 82.0133 187.491 81.3196C185.877 80.6259 184.575 79.6564 183.567 78.4116C182.56 77.1665 181.837 75.6555 181.381 73.8878C180.935 72.1202 180.706 70.1624 180.706 68.0146C180.706 63.4052 181.828 59.8414 184.062 57.3228C186.295 54.814 189.516 53.5499 193.707 53.5499C195.543 53.5499 197.139 53.7116 198.497 54.0441C199.847 54.3768 201.063 54.7855 202.137 55.2701L200.902 59.1666C199.971 58.682 198.963 58.3018 197.88 58.0262C196.797 57.7505 195.617 57.6081 194.345 57.6081C188.728 57.6081 185.925 61.0769 185.925 68.0146C185.925 69.3355 186.076 70.6091 186.39 71.8349C186.702 73.0704 187.197 74.1634 187.891 75.1137C188.585 76.0641 189.487 76.8433 190.599 77.4326C191.721 78.0219 193.09 78.3164 194.706 78.3164C196.151 78.3164 197.423 78.1168 198.506 77.7177C199.591 77.3186 200.493 76.8433 201.225 76.2922L202.765 79.761Z" fill="white"/>
<path d="M226.999 79.761C225.783 80.6259 224.365 81.2816 222.731 81.7093C221.097 82.1465 219.386 82.3651 217.58 82.3651C215.29 82.3651 213.341 82.0133 211.725 81.3196C210.111 80.6259 208.809 79.6564 207.801 78.4116C206.793 77.1665 206.072 75.6555 205.615 73.8878C205.168 72.1202 204.94 70.1624 204.94 68.0146C204.94 63.4052 206.063 59.8414 208.296 57.3228C210.529 54.814 213.75 53.5499 217.941 53.5499C219.777 53.5499 221.373 53.7116 222.731 54.0441C224.081 54.3768 225.297 54.7855 226.371 55.2701L225.136 59.1666C224.205 58.682 223.197 58.3018 222.114 58.0262C221.029 57.7505 219.851 57.6081 218.579 57.6081C212.962 57.6081 210.159 61.0769 210.159 68.0146C210.159 69.3355 210.31 70.6091 210.624 71.8349C210.936 73.0704 211.431 74.1634 212.125 75.1137C212.81 76.0641 213.721 76.8433 214.842 77.4326C215.965 78.0219 217.333 78.3164 218.949 78.3164C220.394 78.3164 221.667 78.1168 222.749 77.7177C223.834 77.3186 224.736 76.8433 225.459 76.2922L226.999 79.761Z" fill="white"/>
<path d="M250.71 66.0376L251.441 60.6302H250.871L248.324 65.7241L235.532 81.6426H231.845V54.3293H236.635V70.4475L236.273 75.2373H236.843L239.239 70.6091L251.773 54.3293H255.519V81.6332H250.729V66.0376H250.71Z" fill="white"/>
<path d="M281.453 66.0376L282.185 60.6302H281.613L279.068 65.7241L266.276 81.6426H262.587V54.3293H267.368V70.4475L267.006 75.2373H267.578L269.972 70.6091L282.508 54.3293H286.252V81.6332H281.462V66.0376H281.453Z" fill="white"/>
<path d="M152.872 14.7943L153.432 9.41523H153.157L151.037 14.3286L140.897 30.5133H139.5L128.751 14.2811L126.746 9.41523H126.47L127.25 14.7373V38.8576H122.907V3.00977H126.356L138.559 21.3423L140.393 25.3338H140.507L142.237 21.2377L153.879 3.00977H157.5V38.8481H152.872V14.7943Z" fill="white"/>
<path d="M183.901 23.6993L184.071 20.525H183.901L181.62 23.8039L169.085 38.8576H166.519V13.2548H170.976V28.8693L170.805 31.8915H171.023L173.2 28.7172L185.735 13.2548H188.348V38.8576H183.892V23.6993H183.901Z" fill="white"/>
<path d="M213.979 27.5388H201.386V38.8576H196.929V13.2548H201.386V23.9558H213.979V13.2548H218.436V38.8576H213.979V27.5388Z" fill="white"/>
<path d="M252.031 45.3581H249.018L248.181 38.8576H227.017V13.2548H231.474V35.2746H243.563V13.2548H248.021V35.2746H252.031V45.3581Z" fill="white"/>
<path d="M274.924 23.6993L275.096 20.525H274.924L272.644 23.8039L260.107 38.8576H257.542V13.2548H261.999V28.8693L261.828 31.8915H262.056L264.233 28.7172L276.769 13.2548H279.382V38.8576H274.924V23.6993Z" fill="white"/>
<path d="M300.488 39.057C299.85 39.2661 299.195 39.3802 298.512 39.4182C297.827 39.4562 297.199 39.4657 296.649 39.4657C293.266 39.4657 290.671 38.3728 288.846 36.187C287.022 34.0011 286.118 30.6274 286.118 26.0467C286.118 21.6749 287.117 18.3866 289.131 16.1628C291.136 13.9485 294.034 12.8365 297.818 12.8365C298.853 12.8365 299.746 12.9031 300.488 13.0456V3.00977H304.726V13.0931C305.393 12.9886 305.99 12.9221 306.514 12.8841C307.036 12.846 307.531 12.8365 308.015 12.8365C311.693 12.8365 314.459 13.8154 316.311 15.7827C318.164 17.7499 319.096 21.0001 319.096 25.5334C319.096 27.6812 318.849 29.62 318.345 31.3402C317.841 33.0603 317.111 34.5239 316.141 35.7213C315.171 36.9189 313.993 37.8407 312.606 38.4869C311.209 39.1332 309.602 39.4562 307.787 39.4562C307.454 39.4562 306.959 39.4277 306.313 39.3802C305.667 39.3328 305.135 39.2376 304.726 39.0952V49.0835H300.488V39.057ZM297.76 36.092C298.207 36.092 298.654 36.073 299.1 36.0445C299.547 36.0064 300.031 35.9399 300.544 35.8354V16.4289C300.099 16.3624 299.681 16.3054 299.29 16.2769C298.901 16.2388 298.426 16.2293 297.875 16.2293C295.574 16.2293 293.779 17.0181 292.495 18.6147C291.213 20.2019 290.576 22.6823 290.576 26.0657C290.576 27.5006 290.718 28.8311 290.994 30.0571C291.27 31.2832 291.706 32.3571 292.305 33.2599C292.895 34.1627 293.655 34.866 294.558 35.3601C295.461 35.8449 296.534 36.092 297.76 36.092ZM307.169 16.2198C306.722 16.2198 306.324 16.2293 305.971 16.2484C305.619 16.2674 305.183 16.3434 304.66 16.4764V35.9304C305.031 35.9969 305.449 36.0445 305.915 36.054C306.381 36.073 306.894 36.0825 307.445 36.0825C309.821 36.0825 311.616 35.1797 312.823 33.3644C314.03 31.5587 314.638 28.9452 314.638 25.5334C314.638 22.6348 314.088 20.3539 312.995 18.7003C311.903 17.0562 309.963 16.2198 307.169 16.2198Z" fill="white"/>
<path d="M328.894 13.2546L329.731 16.3243H329.95C330.804 15.1268 331.907 14.2145 333.266 13.5872C334.625 12.96 336.173 12.6368 337.913 12.6368C341.63 12.6368 344.394 13.6442 346.209 15.659C348.024 17.6738 348.938 20.9716 348.938 25.5429C348.938 27.6905 348.633 29.6293 348.015 31.3495C347.398 33.0696 346.542 34.5333 345.42 35.7308C344.308 36.9282 342.959 37.85 341.381 38.4962C339.805 39.1425 338.047 39.4657 336.117 39.4657C334.74 39.4657 333.655 39.3895 332.857 39.2376C332.059 39.0855 331.193 38.8194 330.262 38.4393V49.0928H325.805V13.2546H328.894ZM337.086 16.2197C335.194 16.2197 333.693 16.6759 332.601 17.5787C331.508 18.4816 330.739 19.8596 330.291 21.7034V34.4001C330.956 34.8755 331.717 35.246 332.572 35.5025C333.427 35.7593 334.559 35.8827 335.974 35.8827C338.54 35.8827 340.574 35.0084 342.075 33.2502C343.578 31.4921 344.328 28.9071 344.328 25.4952C344.328 24.0983 344.195 22.8247 343.938 21.6844C343.682 20.544 343.264 19.565 342.683 18.7666C342.104 17.9684 341.363 17.3412 340.461 16.8945C339.548 16.4478 338.427 16.2197 337.086 16.2197Z" fill="white"/>
<path d="M360.425 23.034C361.32 22.9009 362.175 22.8059 362.993 22.749C363.809 22.7013 364.589 22.6728 365.33 22.6728C367.222 22.6728 368.809 22.8724 370.091 23.2621C371.375 23.6518 372.401 24.1934 373.181 24.8776C373.959 25.5621 374.51 26.3697 374.824 27.3107C375.138 28.2515 375.299 29.2495 375.299 30.3042C375.299 33.412 374.358 35.6643 372.487 37.0615C370.615 38.4584 367.573 39.1617 363.382 39.1617C361.006 39.1617 358.535 39.0572 355.97 38.8576V13.2548H360.425V23.034ZM360.425 35.2746C361.795 35.4837 363.115 35.5789 364.379 35.5789C366.718 35.5789 368.352 35.1607 369.284 34.3243C370.215 33.488 370.681 32.3001 370.681 30.7701C370.681 29.4014 370.224 28.28 369.313 27.3867C368.4 26.5029 366.813 26.0562 364.551 26.0562C363.913 26.0562 363.23 26.0752 362.489 26.1037C361.747 26.1417 361.063 26.2368 360.425 26.4079V35.2746ZM379.7 13.2548H384.157V38.8576H379.7V13.2548Z" fill="white"/>
</svg>
