<svg width="360" height="84" viewBox="0 0 360 84" fill="none" xmlns="http://www.w3.org/2000/svg">
<path fill-rule="evenodd" clip-rule="evenodd" d="M74.582 3.86539C54.9536 -1.28846 34.2964 -1.28846 14.6677 3.86539C8.0787 5.59508 3.04623 10.9067 1.73815 17.5117C-0.579385 29.217 -0.579385 41.2561 1.73815 52.9612C3.04589 59.5662 8.07836 64.8779 14.6677 66.6094C26.5385 69.7263 38.834 70.9713 51.0988 70.2967C52.6908 70.2096 54.2582 70.728 55.4765 71.7431L69.9321 83.7921C70.197 84.0136 70.5692 84.0622 70.8837 83.9181C71.1981 83.7737 71.4005 83.4616 71.4005 83.1193V69.1275C71.4005 68.1208 72.0983 67.2367 73.0863 66.9918C73.5858 66.8677 74.0843 66.7401 74.582 66.6094C81.1716 64.8779 86.2042 59.5662 87.5117 52.9612C89.8293 41.2561 89.8293 29.217 87.5117 17.5117C86.2037 10.9067 81.1713 5.59508 74.582 3.86539ZM63.2187 15.6C64.5613 15.6 65.6502 16.6745 65.6502 18V26.3999C65.6502 27.7255 64.5613 28.7999 63.2187 28.7999H54.7084C53.3655 28.7999 52.2769 29.8746 52.2769 31.2V53.9999C52.2769 55.3256 51.1883 56.4 49.8453 56.4H40.1194C38.7765 56.4 37.6879 55.3256 37.6879 53.9999V31.2C37.6879 29.8746 36.5993 28.7999 35.2566 28.7999H26.7464C25.4035 28.7999 24.3148 27.7255 24.3148 26.3999V18C24.3148 16.6745 25.4035 15.6 26.7464 15.6H63.2187Z" fill="#FC3234"/>
<path d="M125.525 61.6875C125.082 61.6875 124.72 61.5466 124.438 61.2649C124.156 60.9833 124.015 60.621 124.015 60.1782V27.8172H113.027C112.625 27.8172 112.282 27.6762 112.001 27.3945C111.719 27.1129 111.578 26.7706 111.578 26.3682V20.9344C111.578 20.4917 111.719 20.1294 112.001 19.8477C112.282 19.5659 112.625 19.425 113.027 19.425H144.664C145.106 19.425 145.469 19.5659 145.75 19.8477C146.032 20.1294 146.173 20.4917 146.173 20.9344V26.3682C146.173 26.7706 146.032 27.1129 145.75 27.3945C145.469 27.6762 145.106 27.8172 144.664 27.8172H133.736V60.1782C133.736 60.621 133.595 60.9833 133.313 61.2649C133.031 61.5466 132.669 61.6875 132.226 61.6875H125.525ZM159.899 62.2913C155.27 62.2913 151.587 61.0032 148.85 58.4273C146.154 55.8514 144.725 52.1081 144.564 47.1975C144.564 46.8755 144.564 46.4528 144.564 45.9297C144.564 45.3661 144.564 44.9235 144.564 44.6014C144.725 41.5021 145.429 38.8456 146.677 36.6319C147.924 34.3778 149.675 32.6674 151.929 31.5C154.183 30.2925 156.82 29.6888 159.838 29.6888C163.219 29.6888 166.037 30.3931 168.291 31.8019C170.585 33.1703 172.296 35.0622 173.423 37.4772C174.59 39.852 175.174 42.5888 175.174 45.6882V47.0768C175.174 47.4792 175.013 47.8215 174.691 48.1032C174.409 48.3848 174.067 48.5258 173.664 48.5258H153.922C153.922 48.566 153.922 48.6465 153.922 48.7673C153.922 48.8479 153.922 48.9282 153.922 49.0088C153.962 50.2969 154.203 51.4842 154.646 52.5709C155.129 53.6175 155.793 54.4628 156.639 55.1067C157.524 55.7506 158.571 56.0727 159.778 56.0727C160.784 56.0727 161.61 55.9317 162.253 55.65C162.897 55.3684 163.421 55.0261 163.823 54.6237C164.266 54.2213 164.588 53.8789 164.789 53.5973C165.151 53.1949 165.433 52.9534 165.634 52.8728C165.876 52.752 166.238 52.6917 166.721 52.6917H173C173.403 52.6917 173.725 52.8124 173.966 53.0539C174.248 53.2553 174.369 53.5571 174.328 53.9595C174.288 54.6035 173.946 55.4085 173.302 56.3745C172.698 57.3004 171.793 58.226 170.585 59.1518C169.378 60.0372 167.868 60.7819 166.057 61.3857C164.286 61.9894 162.233 62.2913 159.899 62.2913ZM153.922 43.0317H165.755V42.9109C165.755 41.4619 165.514 40.2143 165.031 39.1677C164.588 38.0809 163.924 37.2357 163.038 36.6319C162.153 36.0282 161.086 35.7263 159.838 35.7263C158.591 35.7263 157.524 36.0282 156.639 36.6319C155.753 37.2357 155.069 38.0809 154.586 39.1677C154.143 40.2143 153.922 41.4619 153.922 42.9109V43.0317ZM182.658 61.6875C182.255 61.6875 181.913 61.5466 181.632 61.2649C181.35 60.9833 181.209 60.621 181.209 60.1782V31.8019C181.209 31.3591 181.35 30.9968 181.632 30.7152C181.913 30.4335 182.255 30.2925 182.658 30.2925H188.575C189.017 30.2925 189.38 30.4335 189.661 30.7152C189.943 30.9968 190.084 31.3591 190.084 31.8019V34.1565C191.131 32.8685 192.479 31.8019 194.129 30.9567C195.779 30.1114 197.792 29.6888 200.167 29.6888C202.541 29.6888 204.614 30.2322 206.385 31.3189C208.197 32.3655 209.605 33.915 210.612 35.9678C211.658 37.9804 212.181 40.4355 212.181 43.3335V60.1782C212.181 60.621 212.02 60.9833 211.698 61.2649C211.417 61.5466 211.074 61.6875 210.672 61.6875H204.272C203.829 61.6875 203.467 61.5466 203.185 61.2649C202.904 60.9833 202.763 60.621 202.763 60.1782V43.6958C202.763 41.5625 202.24 39.9124 201.193 38.745C200.187 37.5375 198.697 36.9338 196.725 36.9338C194.833 36.9338 193.324 37.5375 192.197 38.745C191.07 39.9124 190.507 41.5625 190.507 43.6958V60.1782C190.507 60.621 190.366 60.9833 190.084 61.2649C189.802 61.5466 189.46 61.6875 189.058 61.6875H182.658ZM236.863 62.2913C233.08 62.2913 229.86 61.6673 227.203 60.4197C224.587 59.1316 222.554 57.2802 221.105 54.8652C219.656 52.41 218.851 49.4314 218.69 45.9297C218.65 44.2793 218.63 42.5085 218.63 40.6167C218.63 38.7248 218.65 36.9136 218.69 35.1829C218.851 31.7213 219.656 28.7832 221.105 26.3682C222.595 23.9129 224.668 22.0413 227.324 20.7533C229.981 19.4653 233.16 18.8213 236.863 18.8213C239.56 18.8213 242.015 19.1634 244.229 19.8477C246.443 20.5319 248.355 21.518 249.965 22.806C251.575 24.094 252.823 25.6034 253.708 27.3342C254.593 29.0648 255.076 30.9968 255.157 33.1302C255.157 33.4924 255.016 33.7943 254.734 34.0358C254.493 34.2773 254.191 34.398 253.829 34.398H246.946C246.463 34.398 246.081 34.2773 245.799 34.0358C245.517 33.7943 245.296 33.3919 245.135 32.8283C244.531 30.4535 243.525 28.8233 242.116 27.9379C240.707 27.0525 238.956 26.6097 236.863 26.6097C234.368 26.6097 232.396 27.294 230.947 28.6624C229.498 30.0308 228.713 32.3051 228.592 35.4848C228.471 38.7852 228.471 42.1662 228.592 45.6278C228.713 48.8075 229.498 51.0818 230.947 52.4502C232.396 53.8186 234.368 54.5029 236.863 54.5029C238.956 54.5029 240.707 54.0601 242.116 53.1747C243.565 52.2488 244.571 50.6187 245.135 48.2843C245.296 47.6805 245.517 47.2781 245.799 47.0768C246.081 46.8353 246.463 46.7145 246.946 46.7145H253.829C254.191 46.7145 254.493 46.8353 254.734 47.0768C255.016 47.3183 255.157 47.6202 255.157 47.9824C255.076 50.1157 254.593 52.0477 253.708 53.7784C252.823 55.5091 251.575 57.0185 249.965 58.3065C248.355 59.5946 246.443 60.5806 244.229 61.2649C242.015 61.9493 239.56 62.2913 236.863 62.2913ZM262.786 61.6875C262.343 61.6875 261.981 61.5466 261.699 61.2649C261.417 60.9833 261.277 60.621 261.277 60.1782V20.3307C261.277 19.8879 261.417 19.5257 261.699 19.2439C261.981 18.9622 262.343 18.8213 262.786 18.8213H269.307C269.708 18.8213 270.052 18.9622 270.333 19.2439C270.614 19.5257 270.755 19.8879 270.755 20.3307V33.915C271.842 32.627 273.171 31.6006 274.74 30.8359C276.31 30.0713 278.203 29.6888 280.415 29.6888C282.791 29.6888 284.883 30.2322 286.694 31.3189C288.545 32.3655 289.994 33.915 291.042 35.9678C292.089 37.9804 292.611 40.4355 292.611 43.3335V60.1782C292.611 60.621 292.469 60.9833 292.189 61.2649C291.908 61.5466 291.546 61.6875 291.102 61.6875H284.521C284.119 61.6875 283.776 61.5466 283.495 61.2649C283.214 60.9833 283.072 60.621 283.072 60.1782V43.6958C283.072 41.5625 282.55 39.9124 281.502 38.745C280.455 37.5375 278.967 36.9338 277.035 36.9338C275.142 36.9338 273.614 37.5375 272.446 38.745C271.32 39.9124 270.755 41.5625 270.755 43.6958V60.1782C270.755 60.621 270.614 60.9833 270.333 61.2649C270.052 61.5466 269.708 61.6875 269.307 61.6875H262.786ZM309.073 62.2913C306.941 62.2913 305.027 61.8889 303.337 61.0838C301.646 60.2385 300.3 59.1116 299.292 57.7028C298.286 56.294 297.783 54.7242 297.783 52.9935C297.783 50.1357 298.93 47.8819 301.224 46.2315C303.56 44.5812 306.618 43.4543 310.401 42.8505L318.31 41.7034V40.6167C318.31 39.0469 317.948 37.8394 317.223 36.9942C316.499 36.1489 315.231 35.7263 313.42 35.7263C312.091 35.7263 311.026 35.988 310.22 36.5112C309.417 37.0343 308.792 37.7187 308.348 38.5639C308.028 39.0871 307.563 39.3488 306.96 39.3488H301.224C300.783 39.3488 300.439 39.228 300.197 38.9865C299.956 38.7049 299.856 38.3828 299.896 38.0205C299.896 37.3362 300.158 36.5314 300.681 35.6055C301.206 34.6797 302.009 33.7741 303.096 32.8887C304.182 31.9628 305.571 31.1982 307.261 30.5944C308.952 29.9907 311.026 29.6888 313.48 29.6888C316.016 29.6888 318.189 29.9907 320.001 30.5944C321.812 31.1982 323.261 32.0434 324.347 33.1302C325.434 34.2169 326.24 35.4848 326.763 36.9338C327.288 38.3426 327.547 39.872 327.547 41.5223V60.1782C327.547 60.621 327.408 60.9833 327.125 61.2649C326.844 61.5466 326.482 61.6875 326.038 61.6875H320.121C319.72 61.6875 319.378 61.5466 319.095 61.2649C318.814 60.9833 318.672 60.621 318.672 60.1782V57.9443C318.15 58.709 317.446 59.4335 316.559 60.1178C315.674 60.7617 314.609 61.2851 313.359 61.6875C312.152 62.09 310.724 62.2913 309.073 62.2913ZM311.488 56.0123C312.816 56.0123 314.005 55.7306 315.05 55.167C316.097 54.6035 316.921 53.7383 317.525 52.5709C318.129 51.4036 318.431 49.9346 318.431 48.1635V47.1372L312.816 48.0428C310.642 48.405 309.054 48.9484 308.046 49.6729C307.041 50.3974 306.537 51.2828 306.537 52.3294C306.537 53.0941 306.76 53.7582 307.201 54.3218C307.684 54.8854 308.309 55.308 309.073 55.5897C309.839 55.8713 310.642 56.0123 311.488 56.0123ZM349.716 61.6875C347.222 61.6875 345.088 61.2851 343.316 60.48C341.547 59.6348 340.197 58.3467 339.271 56.616C338.386 54.8854 337.942 52.7119 337.942 50.0955V37.4168H333.233C332.792 37.4168 332.43 37.2758 332.146 36.9942C331.866 36.7125 331.724 36.3503 331.724 35.9074V31.8019C331.724 31.3591 331.866 30.9968 332.146 30.7152C332.43 30.4335 332.792 30.2925 333.233 30.2925H337.942V20.3307C337.942 19.8879 338.084 19.5257 338.365 19.2439C338.688 18.9622 339.05 18.8213 339.452 18.8213H345.369C345.812 18.8213 346.174 18.9622 346.455 19.2439C346.739 19.5257 346.878 19.8879 346.878 20.3307V30.2925H354.425C354.829 30.2925 355.17 30.4335 355.451 30.7152C355.735 30.9968 355.874 31.3591 355.874 31.8019V35.9074C355.874 36.3503 355.735 36.7125 355.451 36.9942C355.17 37.2758 354.829 37.4168 354.425 37.4168H346.878V49.371C346.878 50.9006 347.14 52.1081 347.663 52.9935C348.227 53.8388 349.193 54.2614 350.561 54.2614H354.968C355.372 54.2614 355.714 54.4024 355.995 54.684C356.278 54.9657 356.417 55.308 356.417 55.7104V60.1782C356.417 60.621 356.278 60.9833 355.995 61.2649C355.714 61.5466 355.372 61.6875 354.968 61.6875H349.716Z" fill="white"/>
</svg>
