<svg width="130" height="131" viewBox="0 0 130 131" fill="none" xmlns="http://www.w3.org/2000/svg">
<path d="M116.124 108.643L115.905 106.526C113.787 101.125 92.9722 88.0591 66.8991 75.9423L66.7531 75.8693L66.8261 75.7233L103.27 2.21969L103.416 2.29269C104.219 2.65765 104.292 2.87663 104.292 2.94962L116.27 106.526C116.416 106.964 116.489 107.329 116.416 107.694L116.124 108.643ZM67.1182 75.7233C92.3879 87.4752 112.107 99.7379 115.759 105.65L103.927 2.94962C103.854 2.87663 103.708 2.80364 103.343 2.58466L67.1182 75.7233Z" fill="#998467"/>
<path d="M109.989 100.322L103.854 2.80364H104.146L110.354 100.322H109.989Z" fill="#998467"/>
<path d="M92.3149 88.862L103.562 2.58466L103.854 2.65765L92.68 88.862H92.3149Z" fill="#998467"/>
<path d="M13.6576 60.5409L13.7306 60.1759C13.8036 59.7379 14.1688 59.373 14.6801 59.081C14.9722 58.935 15.3374 58.789 15.7756 58.716L102.321 2.07371L102.394 2.00072C102.54 1.92772 102.832 2.00072 103.343 2.29269L103.489 2.36568L103.416 2.51167L66.9722 76.0153L66.8261 75.9423C43.3823 64.9934 22.2756 58.0591 15.9216 59.081L13.6576 60.5409ZM14.8261 59.373C14.607 59.446 14.4609 59.5919 14.3149 59.6649L14.8261 59.373ZM102.54 2.29269L16.5059 58.716C23.6632 58.2051 43.8205 64.9204 66.8991 75.5773L103.124 2.51167C102.832 2.36568 102.613 2.29269 102.54 2.29269Z" fill="#998467"/>
<path d="M102.763 2.11213L40.7056 64.787L40.9651 65.0438L103.022 2.36885L102.763 2.11213Z" fill="#998467"/>
<path d="M102.475 2.02807L21.684 59.1458L21.8527 59.3841L102.644 2.26643L102.475 2.02807Z" fill="#998467"/>
<path d="M116.051 107.183C115.467 102.22 93.8486 88.4971 66.8991 75.9423C41.0452 63.9715 18.6239 56.8912 14.607 59.519L14.4609 59.227L102.394 2.00072C102.467 2.00072 102.613 1.92772 103.416 2.21969C104.292 2.58466 104.292 2.80364 104.292 2.87663L116.416 107.11L116.051 107.183ZM62.3711 73.5336C63.9048 74.1905 65.4385 74.9204 67.0452 75.6503C92.0958 87.2562 112.545 99.9569 115.905 105.869L103.927 2.94962C103.854 2.87663 103.635 2.73064 103.197 2.51167C102.832 2.36568 102.54 2.29269 102.467 2.29269L15.7025 58.789C21.6183 57.7671 40.461 63.6795 62.3711 73.5336Z" fill="#998467"/>
<path d="M116.124 108.643L115.905 106.526C113.787 101.125 92.9722 88.0591 66.8991 75.9423L66.7531 75.8693L66.8261 75.7233L103.27 2.21969L103.416 2.29269C104.219 2.65765 104.292 2.87663 104.292 2.94962L116.27 106.526C116.416 106.964 116.489 107.329 116.416 107.694L116.124 108.643ZM67.1182 75.7233C92.3879 87.4752 112.107 99.7379 115.759 105.65L103.927 2.94962C103.854 2.87663 103.708 2.80364 103.343 2.58466L67.1182 75.7233Z" fill="#998467"/>
<path d="M116.124 108.643L103.927 2.87663H104.219L116.343 107.11C116.343 107.329 116.343 107.475 116.343 107.694L116.124 108.643Z" fill="#998467"/>
<path d="M13.6576 60.5409L13.7306 60.1759C13.8036 59.7379 14.1688 59.373 14.6801 59.081C14.9722 58.935 15.3374 58.789 15.7756 58.716L102.321 2.07371L102.394 2.00072C102.54 1.92772 102.832 2.00072 103.343 2.29269L103.489 2.36568L103.416 2.51167L66.9722 76.0153L66.8261 75.9423C43.3823 64.9934 22.2756 58.0591 15.9216 59.081L13.6576 60.5409ZM14.8261 59.373C14.607 59.446 14.4609 59.5919 14.3149 59.6649L14.8261 59.373ZM102.54 2.29269L16.5059 58.716C23.6632 58.2051 43.8205 64.9204 66.8991 75.5773L103.124 2.51167C102.832 2.36568 102.613 2.29269 102.54 2.29269Z" fill="#998467"/>
<path d="M63.2475 92.2927L63.1014 92.2197C34.3261 78.862 12.6351 64.7744 13.7306 60.1759L13.7306 60.1029H13.8036L102.686 1.78174L102.613 2.1467C102.686 2.21969 102.905 2.36568 103.27 2.51167L103.416 2.58466L63.2475 92.2927ZM14.0227 60.3219C13.2194 64.7744 35.1295 78.935 63.0284 91.8547L103.051 2.73064C102.759 2.58466 102.54 2.43867 102.467 2.36568L14.0227 60.3219Z" fill="#998467"/>
<path d="M20.0115 67.6941L19.7924 67.4022L102.467 2.1467L102.686 2.43867L20.0115 67.6941Z" fill="#998467"/>
<path d="M102.713 2.36743L37.4444 78.8362L37.7223 79.073L102.991 2.60429L102.713 2.36743Z" fill="#998467"/>
<path d="M67.8486 94.4095C66.2419 93.6796 64.7081 92.9496 63.1014 92.2197L62.9553 92.1467L103.197 2.43867L103.343 2.51167C103.635 2.65765 103.854 2.73064 104 2.73064L104.219 1.92772L116.416 107.694C116.343 108.132 115.978 108.497 115.467 108.789C111.012 110.906 91.3654 104.92 67.8486 94.4095ZM63.3205 92.0007C88.3711 103.607 110.646 110.687 115.247 108.497C115.686 108.278 115.905 108.059 115.978 107.694L103.927 3.09561C103.781 3.09561 103.562 3.02261 103.343 2.87663L63.3205 92.0007Z" fill="#998467"/>
<path d="M103.503 2.85134L89.0485 102.905L89.4099 102.957L103.864 2.9035L103.503 2.85134Z" fill="#998467"/>
<path d="M104.203 2.91049L103.838 2.92523L108.108 108.534L108.473 108.519L104.203 2.91049Z" fill="#998467"/>
<path d="M67.8486 94.4095C66.2419 93.6796 64.7081 92.9496 63.1014 92.2197C34.3261 78.862 12.6351 64.7744 13.7306 60.1759C13.8036 59.8109 14.0227 59.519 14.3879 59.227L102.394 2.00072L102.467 2.1467L102.613 2.21969C102.613 2.1467 102.613 2.1467 102.613 2.1467C102.613 2.21969 102.905 2.36568 103.343 2.58466C103.635 2.73064 103.854 2.80364 104 2.80364L104.219 2.00072L116.416 107.767C116.343 108.205 115.978 108.57 115.467 108.862C111.012 110.906 91.3654 104.92 67.8486 94.4095ZM102.394 2.36568L14.607 59.519C14.3149 59.7379 14.1688 59.9569 14.0958 60.2489C13.0003 64.6285 35.0565 78.862 63.1744 91.9277C88.298 103.607 110.646 110.687 115.247 108.497C115.686 108.278 115.905 108.059 115.978 107.694L103.927 3.09561C103.781 3.09561 103.489 2.94962 103.124 2.80364C102.759 2.65765 102.54 2.51167 102.394 2.36568Z" fill="#998467"/>
<path d="M44.4778 127.986L44.3317 127.913C44.2587 127.913 44.1857 127.84 44.1857 127.767L15.1183 63.3876C14.0227 62.0737 13.5115 60.9788 13.7306 60.1759L13.8767 59.6649L15.5565 63.3146C20.8879 69.519 40.0227 81.1248 63.2475 91.9277L63.3935 92.0007L63.3205 92.1467L44.4778 127.986ZM15.8486 64.1905L44.4048 127.402L62.8823 92.1467C40.2418 81.6357 21.9834 70.6139 15.8486 64.1905ZM14.0958 60.9788C14.1688 61.3438 14.3149 61.7087 14.607 62.0737L14.0958 60.9788Z" fill="#998467"/>
<path d="M44.1857 127.767L19.7924 67.6211L20.0845 67.4752L44.5508 127.694L44.1857 127.767Z" fill="#998467"/>
<path d="M37.7832 78.9228L37.4215 78.9733L44.2293 127.698L44.5909 127.648L37.7832 78.9228Z" fill="#998467"/>
<path d="M44.4048 127.913L44.2587 127.84L44.3317 127.694L63.1014 91.8547L63.2475 91.9277C84.0621 101.636 103.051 108.132 111.523 108.789L116.489 107.402L116.416 107.694C116.343 108.132 115.978 108.497 115.467 108.789C114.663 109.154 113.349 109.3 111.523 109.154L44.5508 127.913C44.4778 127.986 44.4778 127.986 44.4048 127.913ZM63.1744 92.2927L44.6969 127.548L110.573 109.081C101.736 108.059 83.6239 101.782 63.1744 92.2927ZM115.905 107.913L112.472 108.862C113.714 108.862 114.663 108.789 115.247 108.424C115.54 108.278 115.759 108.132 115.905 107.913Z" fill="#998467"/>
<path d="M44.5508 127.913L44.4048 127.621L89.1014 102.804L89.3205 103.096L44.5508 127.913Z" fill="#998467"/>
<path d="M108.224 108.389L44.4481 127.581L44.5534 127.931L108.329 108.739L108.224 108.389Z" fill="#998467"/>
<path d="M44.4048 127.913C44.3317 127.84 44.2587 127.84 44.2587 127.767L13.9497 61.6357L14.2418 61.4898C16.798 67.1102 37.8317 80.1759 63.1744 91.9277C87.3486 103.169 109.04 110.176 114.663 108.643L114.736 108.935L44.4778 127.913C44.4778 127.986 44.4778 127.986 44.4048 127.913ZM44.4778 127.621L112.764 109.227C104.95 109.227 85.0115 102.439 63.1014 92.2927C39.9497 81.5628 20.4497 69.7379 15.1183 63.3876L44.4778 127.621Z" fill="#998467"/>
<path d="M44.2587 127.986V127.84H44.1857V127.694L66.7531 75.5773L66.8991 75.6503C95.6744 89.008 117.292 103.096 116.27 107.694V107.767H116.197L44.2587 127.986ZM67.0452 76.0153L44.6969 127.621L116.051 107.621C116.708 103.023 94.8711 88.935 67.0452 76.0153Z" fill="#998467"/>
<path d="M44.5508 127.913L44.4048 127.621L110.062 100.176L110.208 100.468L44.5508 127.913Z" fill="#998467"/>
<path d="M44.5508 127.913L44.4048 127.621L92.3879 88.716L92.607 89.008L44.5508 127.913Z" fill="#998467"/>
<path d="M44.4048 128.205L44.1857 127.767L13.7306 60.1759L13.7306 60.1029C13.8036 59.6649 14.1688 59.3 14.6801 59.008C19.4272 56.6722 41.4104 63.6795 67.0452 75.5044L67.1913 75.5774L67.1182 75.7233L44.5508 127.986H44.4778L44.4048 128.205ZM14.0227 60.1759L44.3317 127.402L66.68 75.8693C65.2194 75.2124 63.6857 74.4825 62.225 73.8255C39.0003 63.4606 19.0621 57.3292 14.7531 59.373C14.3879 59.592 14.1688 59.8109 14.0227 60.1759Z" fill="#998467"/>
<path d="M44.2587 127.767L40.68 64.9204H41.0452L44.5508 127.694L44.2587 127.767Z" fill="#998467"/>
<path d="M44.1857 127.767L21.6913 59.373L21.9834 59.3L44.5508 127.694L44.1857 127.767Z" fill="#998467"/>
<path d="M44.4778 127.986L44.3317 127.913C44.2587 127.913 44.1857 127.84 44.1857 127.767L15.1183 63.3876C14.0227 62.0737 13.5115 60.9788 13.7306 60.1759L13.8767 59.6649L15.5565 63.3146C20.8879 69.519 40.0227 81.1248 63.2475 91.9277L63.3935 92.0007L63.3205 92.1467L44.4778 127.986ZM15.8486 64.1905L44.4048 127.402L62.8823 92.1467C40.2418 81.6357 21.9834 70.6139 15.8486 64.1905ZM14.0958 60.9788C14.1688 61.3438 14.3149 61.7087 14.607 62.0737L14.0958 60.9788Z" fill="#998467"/>
<path d="M44.2587 127.986V127.84L44.1126 127.767V127.694L13.9497 61.6357C13.7306 61.0518 13.5845 60.6138 13.7306 60.1759C13.8036 59.7379 14.1688 59.373 14.6801 59.081C19.4272 56.7452 41.4104 63.7525 67.0452 75.5774C95.8205 88.935 117.438 103.023 116.416 107.621V107.694L116.343 107.694L44.7699 127.767L44.843 127.913L44.6239 127.84L44.2587 127.986ZM44.4778 127.621L116.051 107.548C116.781 103.023 94.798 88.935 66.8991 75.9423C41.7755 64.2635 19.4272 57.1832 14.8261 59.446C14.3879 59.6649 14.1688 59.9569 14.0958 60.2489C14.0227 60.6139 14.0958 61.0518 14.3149 61.4898L44.4778 127.621C44.4778 127.548 44.4778 127.548 44.4778 127.621Z" fill="#998467"/>
<path d="M44.4048 127.913L44.2587 127.84L44.3317 127.694L63.1014 91.8547L63.2475 91.9277C84.0621 101.636 103.051 108.132 111.523 108.789L116.489 107.402L116.416 107.694C116.343 108.132 115.978 108.497 115.467 108.789C114.663 109.154 113.349 109.3 111.523 109.154L44.5508 127.913C44.4778 127.986 44.4778 127.986 44.4048 127.913ZM63.1744 92.2927L44.6969 127.548L110.573 109.081C101.736 108.059 83.6239 101.782 63.1744 92.2927ZM115.905 107.913L112.472 108.862C113.714 108.862 114.663 108.789 115.247 108.424C115.54 108.278 115.759 108.132 115.905 107.913Z" fill="#998467"/>
<path d="M44.5508 127.913L44.4778 127.767L44.3317 127.694L44.3317 127.621L44.4048 127.621L116.343 107.402L116.27 107.694C116.124 108.278 115.613 108.716 114.736 109.008L44.5508 127.913ZM115.905 107.913L75.8823 119.154L114.663 108.643C115.32 108.497 115.686 108.278 115.905 107.913Z" fill="#998467"/>
<path d="M44.4778 127.986L44.3317 127.913C44.2587 127.913 44.1857 127.84 44.1857 127.767L14.9722 63.3876C13.8767 62.0737 13.3654 60.9788 13.5115 60.1029L13.6576 59.6649L15.3374 63.3146C20.6688 69.519 39.8767 81.1248 63.1744 92.0007L63.3205 92.0737L63.2475 92.2197L44.4778 127.986ZM15.7025 64.1905L44.4048 127.475L62.8823 92.2197C40.1688 81.6357 21.8374 70.6139 15.7025 64.1905ZM13.8767 60.9058C13.9497 61.2708 14.1688 61.6357 14.3879 62.0737L13.8767 60.9058Z" fill="#998467"/>
<path d="M44.1857 127.767L19.5733 67.5482L19.9385 67.4752L44.5508 127.694L44.1857 127.767Z" fill="#998467"/>
<path d="M44.2587 127.767L37.3205 79.008L37.6126 78.935L44.5508 127.694L44.2587 127.767Z" fill="#998467"/>
<path d="M44.4048 127.913L44.2587 127.84L44.3317 127.694L63.1014 91.9277L63.2475 92.0007C84.1351 101.709 103.124 108.278 111.669 108.935L116.635 107.548L116.562 107.84C116.489 108.278 116.124 108.643 115.613 108.935C114.809 109.3 113.422 109.446 111.669 109.3L44.5508 127.913C44.4778 127.986 44.4778 127.986 44.4048 127.913ZM63.1744 92.3657L44.6969 127.548L110.646 109.154C101.809 108.132 83.6239 101.782 63.1744 92.3657ZM116.051 107.986L112.618 108.935C113.86 108.935 114.809 108.862 115.394 108.497C115.759 108.424 115.905 108.205 116.051 107.986Z" fill="#998467"/>
<path d="M89.1737 102.866L44.3715 127.631L44.5482 127.95L89.3504 103.185L89.1737 102.866Z" fill="#998467"/>
<path d="M44.5508 127.913L44.4778 127.621L108.309 108.497L108.382 108.789L44.5508 127.913Z" fill="#998467"/>
<path d="M44.4048 127.913C44.3317 127.84 44.2587 127.84 44.2587 127.767L13.8036 61.5628L14.0958 61.4168C16.652 67.0372 37.7587 80.1759 63.1744 91.9277C87.4216 103.169 109.186 110.249 114.882 108.716L114.955 109.008L44.5508 127.913C44.4778 127.986 44.4778 127.986 44.4048 127.913ZM44.4778 127.621L112.91 109.3C105.023 109.227 85.0845 102.512 63.1014 92.2927C39.9497 81.5628 20.3036 69.6649 14.9722 63.3146L44.4778 127.621Z" fill="#998467"/>
<path d="M44.2587 127.986V127.84H44.1857V127.694L66.7531 75.5773L66.8991 75.6503C95.7475 89.008 117.512 103.169 116.416 107.84V107.913H116.343L44.2587 127.986ZM66.9722 76.0153L44.6239 127.621L116.124 107.694C116.927 103.096 94.9441 89.008 66.9722 76.0153Z" fill="#998467"/>
<path d="M110.25 100.211L44.4438 127.588L44.5841 127.925L110.391 100.547L110.25 100.211Z" fill="#998467"/>
<path d="M44.5508 127.913L44.4048 127.621L92.461 88.789L92.6801 89.008L44.5508 127.913Z" fill="#998467"/>
<path d="M44.4048 128.205L13.5115 60.1759L13.5115 60.1029C13.5845 59.6649 13.9497 59.3 14.4609 59.008C19.2081 56.6722 41.2643 63.6795 66.9722 75.5774L67.1183 75.6503L67.0452 75.7963L44.5508 127.986H44.4778L44.4048 128.205ZM13.8767 60.1029L44.4048 127.402L66.68 75.8693C41.5565 64.1905 19.2081 57.1102 14.607 59.3C14.2418 59.519 13.9497 59.8109 13.8767 60.1029Z" fill="#998467"/>
<path d="M40.9823 64.8847L40.6178 64.9058L44.2508 127.791L44.6154 127.77L40.9823 64.8847Z" fill="#998467"/>
<path d="M44.1857 127.767L21.5452 59.3L21.8374 59.227L44.5508 127.694L44.1857 127.767Z" fill="#998467"/>
<path d="M44.4778 127.986L44.3317 127.913C44.2587 127.913 44.1857 127.84 44.1857 127.767L14.9722 63.3876C13.8767 62.0737 13.3654 60.9788 13.5115 60.1029L13.6576 59.6649L15.3374 63.3146C20.6688 69.519 39.8767 81.1248 63.1744 92.0007L63.3205 92.0737L63.2475 92.2197L44.4778 127.986ZM15.7025 64.1905L44.4048 127.475L62.8823 92.2197C40.1688 81.6357 21.8374 70.6139 15.7025 64.1905ZM13.8767 60.9058C13.9497 61.2708 14.1688 61.6357 14.3879 62.0737L13.8767 60.9058Z" fill="#998467"/>
<path d="M44.2587 127.986V127.84L44.1126 127.767V127.694L13.8036 61.5628C13.5115 60.9788 13.4385 60.4679 13.5845 60.1029C13.6576 59.6649 14.0227 59.3 14.534 59.008C19.2812 56.6722 41.3374 63.6795 67.0452 75.5774C95.8935 88.935 117.658 103.096 116.562 107.767V107.84H116.489L44.7699 127.84L44.843 127.986L44.6239 127.913L44.2587 127.986ZM44.4778 127.621L116.197 107.621C116.927 103.096 94.8711 88.935 66.8261 75.9423C41.7025 64.1905 19.2081 57.1102 14.607 59.3C14.1688 59.519 13.9497 59.8109 13.8767 60.1759C13.8036 60.5409 13.8767 60.9788 14.0958 61.4168L44.4778 127.621C44.4778 127.548 44.4778 127.548 44.4778 127.621Z" fill="#998467"/>
<path d="M44.4048 127.913L44.2587 127.84L44.3317 127.694L63.1014 91.9277L63.2475 92.0007C84.1351 101.709 103.124 108.278 111.669 108.935L116.635 107.548L116.562 107.84C116.489 108.278 116.124 108.643 115.613 108.935C114.809 109.3 113.422 109.446 111.669 109.3L44.5508 127.913C44.4778 127.986 44.4778 127.986 44.4048 127.913ZM63.1744 92.3657L44.6969 127.548L110.646 109.154C101.809 108.132 83.6239 101.782 63.1744 92.3657ZM116.051 107.986L112.618 108.935C113.86 108.935 114.809 108.862 115.394 108.497C115.759 108.424 115.905 108.205 116.051 107.986Z" fill="#998467"/>
<path d="M44.5508 127.913L44.4778 127.767L44.3317 127.694L44.3317 127.621L44.4048 127.621L116.489 107.548L116.416 107.84C116.27 108.424 115.759 108.862 114.882 109.154L44.5508 127.913ZM116.051 107.986L75.7362 119.227L114.882 108.716C115.467 108.57 115.832 108.351 116.051 107.986Z" fill="#998467"/>
<path d="M116.27 108.716L116.051 106.599C113.933 101.198 93.0452 88.0591 66.8991 75.9423L66.7531 75.8693L66.8261 75.7233L103.27 2.21969L103.416 2.29269C104.219 2.65765 104.292 2.87663 104.292 2.94962L116.416 106.599C116.562 107.037 116.635 107.475 116.562 107.767L116.27 108.716ZM67.1182 75.7233C92.4609 87.4752 112.253 99.8109 115.905 105.796L103.927 2.94962C103.854 2.87663 103.708 2.80364 103.343 2.58466L67.1182 75.7233Z" fill="#998467"/>
<path d="M110.135 100.395L103.854 2.80364H104.146L110.427 100.395H110.135Z" fill="#998467"/>
<path d="M103.532 2.58406L92.3714 88.8692L92.7335 88.916L103.894 2.63085L103.532 2.58406Z" fill="#998467"/>
<path d="M13.4385 60.4679L13.5115 60.1029C13.5845 59.6649 13.9497 59.3 14.4609 59.008C14.7531 58.862 15.1183 58.716 15.5565 58.643L102.321 2.07371L102.394 2.00072C102.54 1.92772 102.832 2.00072 103.343 2.29269L103.489 2.36568L103.416 2.51167L66.9722 76.0153L66.8261 75.9423C43.2362 64.9934 22.0565 58.0591 15.7025 59.008L13.4385 60.4679ZM14.6801 59.3C14.4609 59.446 14.3149 59.519 14.1688 59.6649L14.6801 59.3ZM102.54 2.29269L16.3598 58.5701C23.5171 58.0591 43.7475 64.7744 66.8991 75.5044L103.124 2.51167C102.832 2.36568 102.613 2.29269 102.54 2.29269Z" fill="#998467"/>
<path d="M40.8992 64.9934L40.6801 64.7744L102.759 2.1467L102.978 2.36568L40.8992 64.9934Z" fill="#998467"/>
<path d="M102.478 1.98077L21.627 59.1406L21.7957 59.379L102.647 2.21914L102.478 1.98077Z" fill="#998467"/>
<path d="M116.197 107.256C115.613 102.22 93.9216 88.4971 66.8261 75.9423C40.9722 63.8985 18.4778 56.8182 14.3879 59.446L14.2418 59.154L93.5565 7.69415C94.4329 7.11021 95.3823 6.59926 96.4778 6.01531C98.6688 4.84743 101.006 3.60656 102.321 2.00072C102.394 2.00072 102.54 1.92772 103.343 2.21969C103.927 2.51167 104.219 2.73064 104.219 2.87663L116.489 107.183L116.197 107.256ZM62.298 73.4606C63.8317 74.1175 65.3654 74.8474 66.9722 75.5774C92.0958 87.2562 112.618 99.9569 116.051 105.869L103.927 2.94962C103.854 2.87663 103.635 2.73064 103.197 2.51167C102.832 2.36568 102.613 2.29269 102.54 2.29269C101.152 3.89853 98.8149 5.1394 96.6239 6.30729C95.6014 6.89123 94.5789 7.40218 93.7755 7.98612L15.5565 58.716C21.4722 57.6941 40.3879 63.6795 62.298 73.4606Z" fill="#998467"/>
<path d="M116.27 108.716L116.051 106.599C113.933 101.198 93.0452 88.0591 66.8991 75.9423L66.7531 75.8693L66.8261 75.7233L103.27 2.21969L103.416 2.29269C104.219 2.65765 104.292 2.87663 104.292 2.94962L116.416 106.599C116.562 107.037 116.635 107.475 116.562 107.767L116.27 108.716ZM67.1182 75.7233C92.4609 87.4752 112.253 99.8109 115.905 105.796L103.927 2.94962C103.854 2.87663 103.708 2.80364 103.343 2.58466L67.1182 75.7233Z" fill="#998467"/>
<path d="M116.27 108.716L116.124 107.767L103.927 2.87663H104.219L116.489 107.183C116.489 107.402 116.489 107.621 116.489 107.767L116.27 108.716Z" fill="#998467"/>
<path d="M13.4385 60.4679L13.5115 60.1029C13.5845 59.6649 13.9497 59.3 14.4609 59.008C14.7531 58.862 15.1183 58.716 15.5565 58.643L102.321 2.07371L102.394 2.00072C102.54 1.92772 102.832 2.00072 103.343 2.29269L103.489 2.36568L103.416 2.51167L66.9722 76.0153L66.8261 75.9423C43.2362 64.9934 22.0565 58.0591 15.7025 59.008L13.4385 60.4679ZM14.6801 59.3C14.4609 59.446 14.3149 59.519 14.1688 59.6649L14.6801 59.3ZM102.54 2.29269L16.3598 58.5701C23.5171 58.0591 43.7475 64.7744 66.8991 75.5044L103.124 2.51167C102.832 2.36568 102.613 2.29269 102.54 2.29269Z" fill="#998467"/>
<path d="M63.1744 92.3657L63.0284 92.2927C34.1801 78.862 12.489 64.7744 13.5845 60.1029L13.5845 60.0299H13.6576L102.759 1.85473L102.686 2.21969C102.759 2.29269 102.978 2.43867 103.343 2.58466L103.489 2.65765L63.1744 92.3657ZM13.8767 60.2489C13.0733 64.7744 35.0565 78.935 63.0284 91.9277L103.051 2.73064C102.759 2.58466 102.54 2.43867 102.467 2.36568L13.8767 60.2489Z" fill="#998467"/>
<path d="M19.8654 67.6211L19.6463 67.4022L102.467 2.1467L102.686 2.43867L19.8654 67.6211Z" fill="#998467"/>
<path d="M102.693 2.32896L37.3773 78.8532L37.6551 79.0901L102.971 2.56582L102.693 2.32896Z" fill="#998467"/>
<path d="M67.8486 94.4825C66.2418 93.7525 64.6351 93.0226 63.0284 92.2927L62.8823 92.2197L103.197 2.43867L103.343 2.51167C103.635 2.65765 103.854 2.73064 104 2.73064L104.219 1.92772L104.365 2.87663L116.562 107.767C116.489 108.205 116.124 108.57 115.613 108.862C111.158 111.052 91.4385 105.066 67.8486 94.4825ZM63.3205 92.0737C88.4441 103.68 110.792 110.833 115.394 108.57C115.832 108.351 116.051 108.132 116.124 107.767L103.927 3.09561C103.781 3.09561 103.562 3.02261 103.343 2.87663L63.3205 92.0737Z" fill="#998467"/>
<path d="M89.1014 103.023L103.489 2.80364L103.854 2.87663L89.4666 103.023H89.1014Z" fill="#998467"/>
<path d="M108.236 108.643L103.781 2.94962H104.146L108.528 108.643H108.236Z" fill="#998467"/>
<path d="M67.8486 94.4825C66.2418 93.7525 64.6351 93.0226 63.0284 92.2927C34.1801 78.862 12.489 64.7744 13.5845 60.1029C13.6576 59.7379 13.8767 59.446 14.2418 59.154L102.394 2.00072L102.467 2.1467L102.613 2.21969C102.613 2.1467 102.613 2.1467 102.613 2.1467C102.613 2.21969 102.905 2.36568 103.343 2.58466C103.635 2.73064 103.854 2.80364 104 2.80364L104.219 2.00072L104.365 2.94962L116.562 107.84C116.489 108.278 116.124 108.643 115.613 108.935C111.158 111.052 91.4385 105.066 67.8486 94.4825ZM14.3879 59.446C14.0958 59.665 13.9497 59.8839 13.8767 60.1759C12.8542 64.6284 34.9834 78.862 63.1744 92.0007C88.3711 103.68 110.792 110.833 115.394 108.57C115.832 108.351 116.051 108.132 116.124 107.767L103.927 3.09561C103.781 3.09561 103.489 2.94962 103.124 2.80364C102.686 2.58466 102.467 2.43867 102.394 2.36568L14.3879 59.446Z" fill="#998467"/>
</svg>
