<svg width="130" height="131" viewBox="0 0 130 131" fill="none" xmlns="http://www.w3.org/2000/svg">
<g clip-path="url(#clip0_539_2546)">
<path d="M62.8504 128.468C56.6714 125.864 50.7903 119.243 45.9513 109.498C28.9034 110.689 15.2799 106.002 8.65426 96.7035C3.36865 89.339 2.99642 79.5196 7.46314 69.0307L7.61203 68.7332L7.76092 68.9564C20.4166 94.8438 56.5225 114.036 88.2362 111.73H88.4596L88.3851 111.953C83.5462 123.186 76.7717 129.509 69.2527 129.658C67.0193 129.732 64.9349 129.286 62.8504 128.468ZM46.1002 109.201L46.1747 109.275C52.577 122.293 60.9148 129.658 69.1038 129.435C76.4739 129.286 83.1739 123.112 87.9384 112.028C56.2992 114.185 20.4166 95.1413 7.61203 69.3283C3.2942 79.594 3.74087 89.2646 8.87759 96.4803C15.5032 105.779 29.0523 110.391 46.0258 109.126L46.1002 109.201Z" fill="#AA9B87"/>
<path d="M40.1446 123.484C31.0623 119.615 23.2455 113.069 19.4488 105.407L19.6722 105.258C26.0744 118.276 44.2391 127.947 60.2448 126.831V127.129C53.6192 127.575 46.6213 126.162 40.1446 123.484Z" fill="#AA9B87"/>
<path d="M41.0379 121.773C25.5533 115.152 12.1532 103.994 5.67645 90.9011L5.89979 90.7524C16.8432 113.069 48.0358 129.658 75.3572 127.724V128.021C64.0415 128.84 51.9814 126.459 41.0379 121.773Z" fill="#AA9B87"/>
<path d="M26.1489 116.64C25.7022 116.417 25.2555 116.193 24.8833 115.896C21.0122 112.772 21.7566 104.366 26.9678 92.1657L27.1911 92.2401C21.98 104.291 21.2355 112.623 25.0322 115.673C28.6056 118.574 36.1246 116.268 45.9513 109.201L46.1002 109.424C37.1668 115.821 30.1689 118.351 26.1489 116.64Z" fill="#AA9B87"/>
<path d="M44.7602 126.533C42.8246 125.715 44.3135 116.714 45.9513 109.275L46.1747 109.35C43.1224 123.781 44.1646 126.013 44.8346 126.31C44.8346 126.31 44.8346 126.31 44.9091 126.31C45.5047 126.533 48.0358 125.715 55.8525 107.49L56.0759 107.564C52.8747 115.003 47.2169 127.352 44.7602 126.533Z" fill="#AA9B87"/>
<path d="M62.8504 128.468C56.6714 125.864 50.7158 119.243 45.9513 109.424L45.8769 109.275H46.1002C77.7394 106.969 112.059 85.2476 122.555 60.848L122.704 60.5504L122.853 60.7736C128.586 72.527 128.809 84.2061 123.374 93.5791C117.27 104.142 104.465 110.912 88.3107 112.102C83.4717 123.335 76.6972 129.583 69.1782 129.732C67.0193 129.732 64.9349 129.286 62.8504 128.468ZM46.2491 109.424C52.6514 122.368 60.9893 129.658 69.1038 129.435C76.5483 129.211 83.2484 123.037 88.0129 111.879V111.804H88.0873C104.242 110.614 116.972 103.919 123.002 93.4304C128.288 84.2061 128.139 72.7502 122.555 61.1455C111.984 85.4707 77.8139 107.044 46.2491 109.424Z" fill="#AA9B87"/>
<path d="M60.2448 127.129V126.831C68.3593 126.236 74.7616 122.888 77.8139 117.607C80.4939 112.92 80.4195 107.118 77.5161 101.241L77.7394 101.092C80.6428 107.044 80.7917 112.92 78.0372 117.681C74.985 123.112 68.5082 126.533 60.2448 127.129Z" fill="#AA9B87"/>
<path d="M75.3572 128.021V127.724C89.2785 126.757 100.296 120.954 105.508 111.804C110.123 103.77 109.974 93.8023 105.061 83.7598L105.284 83.611C110.272 93.7279 110.421 103.845 105.731 111.953C100.445 121.177 89.4274 127.054 75.3572 128.021Z" fill="#AA9B87"/>
<path d="M62.7015 119.467C57.0437 117.086 51.3858 113.664 45.9513 109.424L46.1002 109.201C61.287 121.177 78.0372 125.938 92.0329 122.442C102.083 119.913 109.602 113.292 113.92 103.398L114.143 103.473C109.825 113.441 102.232 120.136 92.1074 122.665C83.0995 124.971 72.9005 123.781 62.7015 119.467Z" fill="#AA9B87"/>
<path d="M46.0258 109.424L46.1002 109.201C79.8239 120.285 115.855 109.424 126.278 85.0244L126.501 85.0988C116.004 109.647 79.8984 120.582 46.0258 109.424Z" fill="#AA9B87"/>
<path d="M45.9513 109.424L45.8769 109.35C33.1467 83.3878 31.3601 42.3251 41.8568 17.8511V17.7767H41.9313C73.7194 15.4706 109.9 34.7374 122.63 60.6992V60.848C112.133 85.3963 77.665 107.192 45.9513 109.498V109.424ZM42.1546 17.9999C31.7323 42.4739 33.519 83.3134 46.1002 109.126C77.7394 106.82 111.984 85.0988 122.481 60.6992C109.825 34.9606 73.7938 15.7682 42.1546 17.9999Z" fill="#AA9B87"/>
<path d="M77.5906 101.241C71.1883 88.2231 53.0236 78.5526 37.0179 79.6684V79.3708C53.0981 78.255 71.4116 87.9256 77.8139 101.092L77.5906 101.241Z" fill="#AA9B87"/>
<path d="M105.061 83.8342C94.1174 61.5175 62.9248 44.9287 35.6034 46.8628V46.5653C63.0737 44.6311 94.3407 61.2199 105.284 83.6854L105.061 83.8342Z" fill="#AA9B87"/>
<path d="M46.1002 109.424L45.9513 109.201C66.9449 94.1743 92.4796 62.0382 103.051 37.5642L103.274 37.6386C92.7774 62.187 67.0938 94.323 46.1002 109.424Z" fill="#AA9B87"/>
<path d="M45.8769 109.275C50.9392 85.7683 63.5948 46.6396 74.0916 22.1656L74.315 22.24C63.8182 46.714 51.1625 85.7683 46.1002 109.275H45.8769Z" fill="#AA9B87"/>
<path d="M20.7888 106.002C15.6521 103.845 11.4832 100.646 8.57981 96.6291C3.2942 89.2646 2.92198 79.4452 7.38869 69.0307C1.65641 57.2773 1.43307 45.6726 6.86757 36.2996C12.9721 25.6619 25.8511 18.8925 42.0802 17.7767H42.3035L42.2291 17.9999C31.7323 42.4739 33.519 83.3878 46.1747 109.275L46.2491 109.424H46.0258C36.2734 110.168 27.6378 108.903 20.7888 106.002ZM41.8568 17.9999C25.8511 19.1901 13.1954 25.8851 7.16535 36.374C1.8053 45.6726 2.02863 57.2773 7.76092 68.882L7.76092 68.9564L7.76092 69.0307C3.2942 79.3708 3.74087 89.1158 8.95204 96.4803C15.5032 105.705 28.9778 110.317 45.9513 109.201C33.2212 83.3135 31.4345 42.5482 41.8568 17.9999Z" fill="#AA9B87"/>
<path d="M19.4488 105.407C16.5455 99.4559 16.3966 93.5791 19.151 88.8182C22.2777 83.4622 28.7545 80.0403 36.9435 79.4452V79.7428C28.8289 80.3379 22.4266 83.6854 19.3744 88.967C16.6943 93.6535 16.7688 99.4559 19.6722 105.333L19.4488 105.407Z" fill="#AA9B87"/>
<path d="M5.67645 90.9011C0.688618 80.7842 0.539728 70.7417 5.22978 62.6333C10.5154 53.4834 21.6077 47.6067 35.6034 46.6396V46.9372C21.6822 47.9043 10.6643 53.7066 5.45311 62.7821C0.837509 70.8161 0.9864 80.7842 5.97423 90.9011H5.67645Z" fill="#AA9B87"/>
<path d="M45.9513 109.424C18.9277 88.1487 5.52756 50.8798 16.0243 26.3314L16.2477 26.4058C5.75089 50.8054 19.151 88 46.1002 109.201L45.9513 109.424Z" fill="#AA9B87"/>
<path d="M39.1024 106.82C32.0301 103.845 25.7022 99.9766 20.1188 95.3645C13.121 89.5621 7.68647 82.6439 4.41088 75.3538C-0.27917 64.9394 -0.576951 54.3761 3.59198 44.6311L3.88976 44.7799C-0.279169 54.4505 0.0186117 64.9394 4.70866 75.2794C11.5576 90.3804 26.5956 102.803 46.1002 109.201L46.0258 109.424C43.6435 108.68 41.3357 107.787 39.1024 106.82Z" fill="#AA9B87"/>
<path d="M48.408 104.812C30.4667 97.1498 14.9077 84.2805 7.46314 69.0307V68.882C17.9599 44.3336 52.4281 22.5376 84.1417 20.3059H84.2162L84.2906 20.3803C97.0208 46.3421 98.8074 87.4048 88.3107 111.879V111.953H88.2362C74.985 112.995 61.0637 110.242 48.408 104.812ZM7.68647 69.0307C20.4166 94.8438 56.3737 114.036 88.0129 111.804C98.4352 87.4048 96.6485 46.5653 84.0673 20.6779C52.4281 22.9095 18.1833 44.6311 7.68647 69.0307Z" fill="#AA9B87"/>
<path d="M60.2448 76.9904C44.7602 70.3698 31.3601 59.2114 24.8833 46.1189L25.1067 45.9701C36.0501 68.2869 67.2427 84.8756 94.5641 82.9415V83.2391C83.2484 84.0573 71.2627 81.6769 60.2448 76.9904Z" fill="#AA9B87"/>
<path d="M27.1911 92.2401L26.9678 92.1657C37.4646 67.6917 63.1482 35.4813 84.1417 20.4547L84.2906 20.6779C63.2971 35.6301 37.6879 67.7661 27.1911 92.2401Z" fill="#AA9B87"/>
<path d="M56.0759 107.639L55.8525 107.564C66.3493 83.0903 79.005 44.036 84.0673 20.5291L84.2906 20.6035C79.2284 44.036 66.5727 83.1647 56.0759 107.639Z" fill="#AA9B87"/>
<path d="M87.9384 112.028L88.0129 111.804C98.5097 87.3305 96.723 46.4165 83.9929 20.5291L83.9184 20.3803H84.1417C101.264 19.1157 114.888 23.8022 121.513 33.1752C126.799 40.5397 127.171 50.3591 122.704 60.7736C128.437 72.527 128.66 84.1317 123.226 93.5047C117.121 104.142 104.316 110.912 88.0873 112.028H87.9384ZM84.3651 20.6035C96.9463 46.4909 98.733 87.2561 88.3851 111.73C104.391 110.54 117.047 103.845 123.077 93.356C128.437 84.0573 128.213 72.4526 122.481 60.8479V60.6992C126.948 50.3591 126.501 40.6141 121.29 33.324C114.739 24.0998 101.264 19.4133 84.3651 20.6035Z" fill="#AA9B87"/>
<path d="M94.6385 83.2391V82.9415C108.56 81.9744 119.578 76.1721 124.789 67.0222C129.404 58.9882 129.256 49.0201 124.268 38.9032L124.491 38.7544C129.479 48.8713 129.628 58.9882 124.938 67.0966C119.727 76.3953 108.634 82.1976 94.6385 83.2391Z" fill="#AA9B87"/>
<path d="M114.143 103.473L113.92 103.398C124.417 78.9989 111.016 41.8787 84.0673 20.6779L84.2162 20.4547C111.24 41.6556 124.714 78.9245 114.143 103.473Z" fill="#AA9B87"/>
<path d="M126.501 85.0988L126.278 85.0244C130.447 75.3538 130.149 64.865 125.459 54.5249C118.61 39.4239 103.572 27.0753 84.0673 20.6779L84.1417 20.4547C93.9685 23.7278 102.679 28.4143 109.974 34.5142C116.972 40.3166 122.407 47.2348 125.682 54.5249C130.447 64.7906 130.67 75.4282 126.501 85.0988Z" fill="#AA9B87"/>
<path d="M122.63 61.0711L122.481 60.8479C109.825 34.9606 73.7194 15.7682 42.0802 17.9999H41.8568L41.9313 17.7767C46.7702 6.61834 53.5447 0.295269 61.0637 0.0721014C69.3271 -0.151066 77.8139 7.21345 84.2162 20.3059C101.264 19.1157 114.888 23.7278 121.513 33.1008C126.799 40.4654 127.171 50.2847 122.704 60.7736L122.63 61.0711ZM81.8339 24.9924C99.7008 32.5801 115.111 45.375 122.63 60.476C126.948 50.2103 126.501 40.5397 121.364 33.324C114.739 24.0254 101.19 19.4133 84.2162 20.6779H84.1417L84.0673 20.6035C77.665 7.51101 69.2527 0.14649 61.0637 0.369658C53.6936 0.518436 46.9936 6.69273 42.2291 17.7023C55.3314 16.8096 69.1782 19.562 81.8339 24.9924Z" fill="#AA9B87"/>
<path d="M124.268 38.9776C113.324 16.6609 82.1317 0.0721016 54.8103 2.00622V1.70866C82.2806 -0.225455 113.548 16.3633 124.491 38.8288L124.268 38.9776Z" fill="#AA9B87"/>
<path d="M103.274 37.6386L103.051 37.5642C108.262 25.5132 109.006 17.1816 105.21 14.1316C101.562 11.2305 94.1174 13.5365 84.2906 20.6035L84.1417 20.3803C93.0752 13.9829 100.073 11.4536 104.168 13.1646C104.614 13.3877 105.061 13.6109 105.433 13.9085C109.23 17.0328 108.485 25.4388 103.274 37.6386Z" fill="#AA9B87"/>
<path d="M74.3894 22.24L74.1661 22.1656C77.3672 14.7267 83.0251 2.45255 85.4818 3.19644H85.5562C87.4918 4.01472 86.0029 13.0158 84.3651 20.4547L84.1417 20.3803C87.194 5.94884 86.1518 3.64278 85.4818 3.41961C85.4818 3.41961 85.4818 3.41961 85.4073 3.41961C84.7373 3.27083 82.2062 4.08911 74.3894 22.24Z" fill="#AA9B87"/>
<path d="M7.61203 69.3283L7.46314 69.1051C1.73085 57.3517 1.50752 45.6726 6.94202 36.2996C12.9721 25.6619 25.7767 18.9669 41.9313 17.7767C46.7702 6.61834 53.5447 0.295269 61.0637 0.146491C69.4016 -0.0766766 77.8139 7.36223 84.2906 20.4547L84.3651 20.6035L84.1417 20.6035C52.5025 22.9095 18.1832 44.6311 7.68647 69.1051L7.61203 69.3283ZM67.2427 1.63427C65.2326 0.741603 63.1482 0.369658 61.0637 0.369658C53.6192 0.592825 46.9191 6.76712 42.1546 17.9255L42.1546 17.9999L42.0802 17.9999C25.9256 19.1901 13.1954 25.8851 7.16535 36.374C1.8053 45.6726 1.95419 57.1285 7.53758 68.7332C18.1833 44.3336 52.3536 22.7608 83.9184 20.3803C79.1539 10.7097 73.2727 4.1635 67.2427 1.63427Z" fill="#AA9B87"/>
<path d="M24.9578 46.1189C19.9699 35.9276 19.821 25.8851 24.5111 17.7767C29.7967 8.62684 40.889 2.75011 54.8848 1.78305V2.08061C40.9635 3.04766 29.9456 8.85001 24.7344 17.9999C20.1188 26.0339 20.2677 36.002 25.2555 46.0445L24.9578 46.1189Z" fill="#AA9B87"/>
<path d="M16.2477 26.4058L16.0243 26.3314C20.3422 16.3633 27.9356 9.66829 38.0601 7.13906C52.1303 3.56839 68.9549 8.40368 84.2162 20.3803L84.0673 20.6035C68.8805 8.62684 52.1303 3.79155 38.1346 7.36223C28.0845 9.96585 20.5655 16.5121 16.2477 26.4058Z" fill="#AA9B87"/>
<path d="M3.88976 44.7799L3.66643 44.7055C14.1632 20.1571 50.3436 9.29635 84.2162 20.3803L84.1417 20.6035C50.3436 9.51951 14.3865 20.3803 3.88976 44.7799Z" fill="#AA9B87"/>
<path d="M39.2513 124.525C34.5612 122.516 30.3923 119.838 28.68 118.723C24.8089 116.268 21.1611 112.846 19.9699 111.73C16.1732 108.234 13.121 103.994 11.8554 102.208C10.2176 99.9766 9.32427 98.4144 7.46314 94.9181C7.16535 94.4718 6.94202 94.0255 6.71868 93.5048L6.4209 92.9096C5.37867 90.5292 4.03865 87.628 3.2942 85.2476C1.58196 79.3708 1.35863 78.6269 0.465283 72.6758C0.0930566 70.221 -0.0558339 66.5759 0.0186113 63.6747C0.0930566 60.5504 0.614173 56.5334 0.986399 53.6322C1.43307 50.2847 3.51754 42.8458 6.12312 37.4898C7.61203 34.4398 9.62205 30.9436 11.1854 28.5631C12.8232 26.1827 15.0565 23.2815 16.8432 21.3474C19.3744 18.595 24.1389 13.5365 32.6256 8.62684C34.6356 7.43662 40.889 3.86594 51.0136 1.55988C58.3837 -0.151066 65.8282 -0.0766767 69.0294 0.14649C73.1238 0.518436 75.2083 0.667214 79.8239 1.70866C84.2162 2.67572 88.0873 4.23789 89.5018 4.833C89.5762 4.833 94.1174 6.69273 98.5097 9.37073C102.306 11.6768 104.093 13.0902 107.071 15.545C109.528 17.5535 114.813 22.612 118.908 28.7863C120.471 31.1667 122.258 34.2167 123.374 36.4483C123.895 37.5642 125.831 41.5068 126.724 44.7055C128.586 51.0286 128.586 51.0286 129.553 57.2773C129.851 59.3602 130 62.3357 130 66.2784C130 69.5515 129.479 73.7173 129.032 76.3209C128.511 79.2964 127.469 83.1647 126.576 85.7683C124.64 91.7938 120.918 98.4144 118.833 101.39C117.195 103.77 114.888 106.672 113.175 108.606C111.612 110.317 109.304 112.772 107.22 114.408C104.689 116.417 101.86 118.648 99.403 120.136C94.2663 123.26 91.5863 124.376 88.9807 125.418C81.9084 128.319 72.975 130.03 65.0838 130.03C59.2026 130.03 55.1081 129.286 53.5447 129.063C47.8125 127.947 45.3558 127.203 40.4424 125.269C40.1446 124.897 39.6979 124.674 39.2513 124.525ZM9.10093 97.2242C10.1432 99.0839 10.9621 100.349 12.0787 101.985C13.4188 103.77 16.471 107.936 20.1933 111.433C21.3844 112.548 25.0322 115.97 28.8289 118.425C30.6156 119.615 35.4545 122.74 40.6657 124.748C45.5791 126.682 48.0358 127.426 53.7681 128.542C55.257 128.84 59.3515 129.509 65.2326 129.509C73.1238 129.509 81.9828 127.872 89.0551 124.971C91.6607 123.93 94.3407 122.814 99.4774 119.69C101.86 118.276 104.763 115.97 107.22 113.962C109.23 112.325 111.612 109.87 113.101 108.234C114.813 106.3 117.047 103.399 118.759 101.018C120.769 98.0425 124.565 91.4962 126.427 85.4707C127.246 82.8671 128.288 79.0733 128.809 76.0977C129.256 73.5685 129.777 69.4027 129.777 66.1296C129.777 62.187 129.628 59.2858 129.33 57.1285C128.362 50.8798 128.362 50.8798 126.576 44.6311C125.608 41.4324 123.747 37.4898 123.225 36.374C122.109 34.1423 120.397 31.0923 118.833 28.7119C114.813 22.5376 109.528 17.5535 107.071 15.545C104.019 13.0902 102.306 11.6768 98.5097 9.37073C94.1174 6.69273 89.5762 4.90739 89.5762 4.90739C88.0873 4.31228 84.2906 2.8245 79.8984 1.85744C75.2828 0.815992 73.1983 0.592825 69.1038 0.295269C65.9027 -0.00228756 58.5326 -0.00228761 51.1625 1.70866C41.0379 4.01472 34.859 7.5854 32.849 8.77562C24.3622 13.6853 19.6722 18.7438 17.141 21.4961C15.3543 23.3559 13.121 26.257 11.4832 28.7119C9.91983 31.0923 7.90981 34.5886 6.4209 37.6386C3.88976 42.8458 1.8053 50.2847 1.35863 53.6322C0.9864 56.459 0.465283 60.5504 0.390837 63.6004C0.316392 66.5015 0.465283 70.1466 0.837509 72.6014C1.65641 78.5526 1.87974 79.2964 3.59198 85.0988C4.26199 87.4792 5.602 90.3804 6.64424 92.7609L6.94202 93.356C7.2398 93.8767 7.46314 94.323 7.68647 94.7694C13.6421 105.109 27.7122 110.465 45.6535 109.275C45.8024 109.275 45.8769 109.275 46.0258 109.275V109.573C29.2756 110.614 15.8754 106.151 9.10093 97.2242Z" fill="#AA9B87"/>
<path d="M73.0494 46.1189C56.6714 39.1264 47.068 24.6205 51.7581 13.6853C56.3737 2.75011 73.5705 -0.448621 89.9485 6.54395C106.326 13.5365 115.93 28.0424 111.24 38.9776C106.624 49.9128 89.5018 53.1115 73.0494 46.1189ZM89.7996 6.76712C73.4961 -0.151066 56.5226 2.97327 51.9814 13.8341C47.4402 24.5461 56.8948 38.9776 73.1983 45.8958C89.5018 52.8139 106.475 49.6896 111.016 38.8288C115.632 28.0424 106.103 13.6853 89.7996 6.76712Z" fill="#AA9B87"/>
</g>
<defs>
<clipPath id="clip0_539_2546">
<rect width="130" height="130" fill="white" transform="translate(0 0.416504)"/>
</clipPath>
</defs>
</svg>
