<svg width="22" height="20" viewBox="0 0 22 20" fill="none" xmlns="http://www.w3.org/2000/svg">
<path fill-rule="evenodd" clip-rule="evenodd" d="M18.3602 0.920576C13.6867 -0.306533 8.76835 -0.306533 4.09486 0.920576C2.52604 1.33241 1.32783 2.59707 1.01639 4.1697C0.46459 6.95668 0.46459 9.82312 1.01639 12.6101C1.32775 14.1827 2.52596 15.4474 4.09486 15.8596C6.92123 16.6017 9.84873 16.8982 12.7689 16.7376C13.148 16.7168 13.5212 16.8402 13.8112 17.0819L17.253 19.9507C17.3161 20.0035 17.4047 20.0151 17.4796 19.9807C17.5545 19.9464 17.6027 19.8721 17.6027 19.7906V16.4592C17.6027 16.2195 17.7688 16.009 18.004 15.9507C18.123 15.9211 18.2417 15.8907 18.3602 15.8596C19.9291 15.4474 21.1274 14.1827 21.4387 12.6101C21.9905 9.82312 21.9905 6.95668 21.4387 4.1697C21.1272 2.59707 19.929 1.33241 18.3602 0.920576ZM15.6546 3.71453C15.9743 3.71453 16.2335 3.97037 16.2335 4.28596V6.28593C16.2335 6.60156 15.9743 6.85737 15.6546 6.85737H13.6284C13.3086 6.85737 13.0494 7.11325 13.0494 7.42881V12.8574C13.0494 13.173 12.7902 13.4288 12.4705 13.4288H10.1548C9.83504 13.4288 9.57585 13.173 9.57585 12.8574V7.42881C9.57585 7.11325 9.31666 6.85737 8.99698 6.85737H6.97073C6.65098 6.85737 6.39179 6.60156 6.39179 6.28593V4.28596C6.39179 3.97037 6.65098 3.71453 6.97073 3.71453H15.6546Z" fill="white"/>
</svg>
