<svg width="40" height="40" viewBox="0 0 40 40" fill="none" xmlns="http://www.w3.org/2000/svg">
<path fill-rule="evenodd" clip-rule="evenodd" d="M27.0525 10.9203C22.3791 9.69322 17.4607 9.69322 12.7872 10.9203C11.2184 11.3322 10.0202 12.5968 9.70877 14.1695C9.15697 16.9564 9.15697 19.8229 9.70877 22.6098C10.0201 24.1824 11.2183 25.4471 12.7872 25.8594C15.6136 26.6015 18.5411 26.8979 21.4613 26.7373C21.8404 26.7166 22.2135 26.84 22.5036 27.0817L25.9454 29.9505C26.0085 30.0033 26.0971 30.0148 26.172 29.9805C26.2469 29.9461 26.295 29.8718 26.295 29.7903V26.4589C26.295 26.2192 26.4612 26.0088 26.6964 25.9504C26.8154 25.9209 26.934 25.8905 27.0525 25.8594C28.6215 25.4471 29.8197 24.1824 30.131 22.6098C30.6829 19.8229 30.6829 16.9564 30.131 14.1695C29.8196 12.5968 28.6214 11.3322 27.0525 10.9203ZM24.347 13.7143C24.6667 13.7143 24.9259 13.9701 24.9259 14.2857V16.2857C24.9259 16.6013 24.6667 16.8571 24.347 16.8571H22.3207C22.001 16.8571 21.7418 17.113 21.7418 17.4286V22.8571C21.7418 23.1727 21.4826 23.4286 21.1629 23.4286H18.8472C18.5274 23.4286 18.2682 23.1727 18.2682 22.8571V17.4286C18.2682 17.113 18.009 16.8571 17.6894 16.8571H15.6631C15.3434 16.8571 15.0842 16.6013 15.0842 16.2857V14.2857C15.0842 13.9701 15.3434 13.7143 15.6631 13.7143H24.347Z" fill="white"/>
</svg>
