<svg width="31" height="18" viewBox="0 0 31 18" fill="none" xmlns="http://www.w3.org/2000/svg">
<path d="M30.079 1.21998C30.2922 0.521297 30.079 0.000244141 29.0724 0.000244141H25.7567C24.9159 0.000244141 24.5251 0.450244 24.3119 0.935771C24.3119 0.935771 22.6303 5.04498 20.2382 7.7213C19.4685 8.50288 19.1132 8.73972 18.6988 8.73972C18.4856 8.73972 18.1777 8.49103 18.1777 7.79235V1.21998C18.1777 0.379191 17.929 0.000244141 17.2303 0.000244141H12.0198C11.4988 0.000244141 11.179 0.391034 11.179 0.758139C11.179 1.55156 12.3751 1.74103 12.4935 3.99103V8.88182C12.4935 9.94761 12.304 10.1489 11.8777 10.1489C10.7527 10.1489 8.01718 6.01603 6.39481 1.29103C6.08691 0.36735 5.76718 0.000244141 4.91455 0.000244141H1.59876C0.651388 0.000244141 0.461914 0.450244 0.461914 0.935771C0.461914 1.81209 1.58691 6.16998 5.69613 11.9371C8.44349 15.8687 12.304 18.0002 15.8093 18.0002C17.9172 18.0002 18.1777 17.5266 18.1777 16.7095V13.7371C18.1777 12.7897 18.379 12.6002 19.0422 12.6002C19.5277 12.6002 20.3803 12.8489 22.3461 14.7437C24.5961 16.9937 24.9632 18.0002 26.2303 18.0002H29.5461C30.4935 18.0002 30.9672 17.5266 30.6948 16.591C30.3988 15.6555 29.3211 14.3055 27.9001 12.7068C27.1303 11.795 25.9698 10.8121 25.6145 10.3147C25.1172 9.67525 25.2593 9.40288 25.6145 8.83445C25.6264 8.8463 29.6645 3.15024 30.079 1.21998Z" fill="white"/>
</svg>
